{
.appVersion = "1339";
DisplayStrings = (
v,
a
);
copyright = " ";
customParameters = (
{
name = panose;
value = (
0,
0,
0,
0,
0,
0,
0,
0,
0,
0
);
},
{
name = unicodeRanges;
value = (
0,
1,
2,
3,
5,
31,
33,
35,
38,
62
);
},
{
name = fsType;
value = (
);
},
{
name = glyphOrder;
value = (
.notdef,
space,
zero,
one,
two,
three,
four,
five,
six,
seven,
eight,
nine,
exclam,
quotedbl,
numbersign,
dollar,
percent,
ampersand,
quotesingle,
parenleft,
parenright,
asterisk,
plus,
comma,
hyphen,
period,
slash,
colon,
semicolon,
less,
equal,
greater,
question,
at,
A,
B,
C,
D,
E,
F,
G,
H,
I,
J,
K,
L,
M,
N,
O,
P,
Q,
R,
S,
T,
U,
V,
W,
X,
Y,
Z,
bracketleft,
backslash,
bracketright,
asciicircum,
underscore,
grave,
a,
b,
c,
d,
e,
f,
g,
h,
i,
j,
k,
l,
m,
n,
o,
p,
q,
r,
s,
t,
u,
v,
w,
x,
y,
z,
braceleft,
bar,
braceright,
asciitilde,
exclamdown,
cent,
sterling,
currency,
yen,
brokenbar,
section,
dieresis,
copyright,
ordfeminine,
guillemotleft,
logicalnot,
registered,
macron,
degree,
plusminus,
twosuperior,
threesuperior,
acute,
uni00B5,
paragraph,
periodcentered,
cedilla,
onesuperior,
ordmasculine,
guillemotright,
onequarter,
onehalf,
threequarters,
questiondown,
Agrave,
Aacute,
Acircumflex,
Atilde,
Adieresis,
Aring,
AE,
Ccedilla,
Egrave,
Eacute,
Ecircumflex,
Edieresis,
Igrave,
Iacute,
Icircumflex,
Idieresis,
Eth,
Ntilde,
Ograve,
Oacute,
Ocircumflex,
Otilde,
Odieresis,
multiply,
Oslash,
Ugrave,
Uacute,
Ucircumflex,
Udieresis,
Yacute,
Thorn,
germandbls,
agrave,
aacute,
acircumflex,
atilde,
adieresis,
aring,
ae,
ccedilla,
egrave,
eacute,
ecircumflex,
edieresis,
igrave,
iacute,
icircumflex,
idieresis,
eth,
ntilde,
ograve,
oacute,
ocircumflex,
otilde,
odieresis,
divide,
oslash,
ugrave,
uacute,
ucircumflex,
udieresis,
yacute,
thorn,
ydieresis,
dotlessi,
Lslash,
lslash,
OE,
oe,
Scaron,
scaron,
Ydieresis,
Zcaron,
zcaron,
florin,
circumflex,
caron,
breve,
dotaccent,
ring,
ogonek,
tilde,
hungarumlaut,
endash,
emdash,
quoteleft,
quoteright,
quotesinglbase,
quotedblleft,
quotedblright,

glyphs = (
{
glyphname = .notdef;
lastChange = "2021-07-12 13:17:18 +0000";
layers = (
{
layerId = "AC43567E-C337-40C0-B780-8BB3F06D1FA4";
paths = (
{
closed = 1;
nodes = (
"125 0 LINE",
"125 125 LINE",
"0 125 LINE",
"0 0 LINE"
);
}
);
width = 1000;
},
{
layerId = "2C46A1C2-E2B6-44B8-927E-E05F8288DB30";
paths = (
{
closed = 1;
nodes = (
"125 0 LINE",
"125 125 LINE",
"0 125 LINE",
"0 0 LINE"
);
}
);
width = 1000;
}
);
note = .notdef;
},
{
glyphname = zero;
lastChange = "2021-07-12 13:17:18 +0000";
layers = (
{
layerId = "AC43567E-C337-40C0-B780-8BB3F06D1FA4";
paths = (
{
closed = 1;
nodes = (
"500 750 LINE",
"375 750 LINE",
"375 875 LINE",
"500 875 LINE"
);
},
{
closed = 1;
nodes = (
"625 750 LINE",
"500 750 LINE",
"500 875 LINE",
"625 875 LINE"
);
},
{
closed = 1;
nodes = (
"750 750 LINE",
"625 750 LINE",
"625 875 LINE",
"750 875 LINE"
);
},
{
closed = 1;
nodes = (
"375 625 LINE",
"250 625 LINE",
"250 750 LINE",
"375 750 LINE"
);
},
{
closed = 1;
nodes = (
"500 625 LINE",
"375 625 LINE",
"375 750 LINE",
"500 750 LINE"
);
},
{
closed = 1;
nodes = (
"750 625 LINE",
"625 625 LINE",
"625 750 LINE",
"750 750 LINE"
);
},
{
closed = 1;
nodes = (
"875 625 LINE",
"750 625 LINE",
"750 750 LINE",
"875 750 LINE"
);
},
{
closed = 1;
nodes = (
"250 500 LINE",
"125 500 LINE",
"125 625 LINE",
"250 625 LINE"
);
},
{
closed = 1;
nodes = (
"375 500 LINE",
"250 500 LINE",
"250 625 LINE",
"375 625 LINE"
);
},
{
closed = 1;
nodes = (
"875 500 LINE",
"750 500 LINE",
"750 625 LINE",
"875 625 LINE"
);
},
{
closed = 1;
nodes = (
"1000 500 LINE",
"875 500 LINE",
"875 625 LINE",
"1000 625 LINE"
);
},
{
closed = 1;
nodes = (
"250 375 LINE",
"125 375 LINE",
"125 500 LINE",
"250 500 LINE"
);
},
{
closed = 1;
nodes = (
"375 375 LINE",
"250 375 LINE",
"250 500 LINE",
"375 500 LINE"
);
},
{
closed = 1;
nodes = (
"625 375 LINE",
"500 375 LINE",
"500 500 LINE",
"625 500 LINE"
);
},
{
closed = 1;
nodes = (
"875 375 LINE",
"750 375 LINE",
"750 500 LINE",
"875 500 LINE"
);
},
{
closed = 1;
nodes = (
"1000 375 LINE",
"875 375 LINE",
"875 500 LINE",
"1000 500 LINE"
);
},
{
closed = 1;
nodes = (
"250 250 LINE",
"125 250 LINE",
"125 375 LINE",
"250 375 LINE"
);
},
{
closed = 1;
nodes = (
"375 250 LINE",
"250 250 LINE",
"250 375 LINE",
"375 375 LINE"
);
},
{
closed = 1;
nodes = (
"875 250 LINE",
"750 250 LINE",
"750 375 LINE",
"875 375 LINE"
);
},
{
closed = 1;
nodes = (
"1000 250 LINE",
"875 250 LINE",
"875 375 LINE",
"1000 375 LINE"
);
},
{
closed = 1;
nodes = (
"375 125 LINE",
"250 125 LINE",
"250 250 LINE",
"375 250 LINE"
);
},
{
closed = 1;
nodes = (
"500 125 LINE",
"375 125 LINE",
"375 250 LINE",
"500 250 LINE"
);
},
{
closed = 1;
nodes = (
"750 125 LINE",
"625 125 LINE",
"625 250 LINE",
"750 250 LINE"
);
},
{
closed = 1;
nodes = (
"875 125 LINE",
"750 125 LINE",
"750 250 LINE",
"875 250 LINE"
);
},
{
closed = 1;
nodes = (
"500 0 LINE",
"375 0 LINE",
"375 125 LINE",
"500 125 LINE"
);
},
{
closed = 1;
nodes = (
"625 0 LINE",
"500 0 LINE",
"500 125 LINE",
"625 125 LINE"
);
},
{
closed = 1;
nodes = (
"750 0 LINE",
"625 0 LINE",
"625 125 LINE",
"750 125 LINE"
);
}
);
width = 1125;
},
{
layerId = "2C46A1C2-E2B6-44B8-927E-E05F8288DB30";
paths = (
{
closed = 1;
nodes = (
"-352 1762 LINE",
"-477 1762 LINE",
"-477 1887 LINE",
"-352 1887 LINE"
);
},
{
closed = 1;
nodes = (
"-344 11 LINE",
"-469 11 LINE",
"-469 136 LINE",
"-344 136 LINE"
);
},
{
closed = 1;
nodes = (
"-566 62 LINE",
"-691 62 LINE",
"-691 187 LINE",
"-566 187 LINE"
);
},
{
closed = 1;
nodes = (
"-853 1481 LINE",
"-978 1481 LINE",
"-978 1606 LINE",
"-853 1606 LINE"
);
},
{
closed = 1;
nodes = (
"1396 -823 LINE",
"1271 -823 LINE",
"1271 -698 LINE",
"1396 -698 LINE"
);
},
{
closed = 1;
nodes = (
"448 1292 LINE",
"323 1292 LINE",
"323 1417 LINE",
"448 1417 LINE"
);
},
{
closed = 1;
nodes = (
"172 1045 LINE",
"47 1045 LINE",
"47 1170 LINE",
"172 1170 LINE"
);
},
{
closed = 1;
nodes = (
"930 22 LINE",
"805 22 LINE",
"805 147 LINE",
"930 147 LINE"
);
},
{
closed = 1;
nodes = (
"-599 -486 LINE",
"-724 -486 LINE",
"-724 -361 LINE",
"-599 -361 LINE"
);
},
{
closed = 1;
nodes = (
"119 699 LINE",
"-6 699 LINE",
"-6 824 LINE",
"119 824 LINE"
);
},
{
closed = 1;
nodes = (
"1884 1429 LINE",
"1759 1429 LINE",
"1759 1554 LINE",
"1884 1554 LINE"
);
},
{
closed = 1;
nodes = (
"784 1820 LINE",
"659 1820 LINE",
"659 1945 LINE",
"784 1945 LINE"
);
},
{
closed = 1;
nodes = (
"620 -1046 LINE",
"495 -1046 LINE",
"495 -921 LINE",
"620 -921 LINE"
);
},
{
closed = 1;
nodes = (
"1663 529 LINE",
"1538 529 LINE",
"1538 654 LINE",
"1663 654 LINE"
);
},
{
closed = 1;
nodes = (
"1056 -620 LINE",
"931 -620 LINE",
"931 -495 LINE",
"1056 -495 LINE"
);
},
{
closed = 1;
nodes = (
"1929 -870 LINE",
"1804 -870 LINE",
"1804 -745 LINE",
"1929 -745 LINE"
);
},
{
closed = 1;
nodes = (
"83 -400 LINE",
"-42 -400 LINE",
"-42 -275 LINE",
"83 -275 LINE"
);
},
{
closed = 1;
nodes = (
"1324 -457 LINE",
"1199 -457 LINE",
"1199 -332 LINE",
"1324 -332 LINE"
);
},
{
closed = 1;
nodes = (
"-349 1748 LINE",
"-474 1748 LINE",
"-474 1873 LINE",
"-349 1873 LINE"
);
},
{
closed = 1;
nodes = (
"1933 1073 LINE",
"1808 1073 LINE",
"1808 1198 LINE",
"1933 1198 LINE"
);
},
{
closed = 1;
nodes = (
"634 1243 LINE",
"509 1243 LINE",
"509 1368 LINE",
"634 1368 LINE"
);
},
{
closed = 1;
nodes = (
"-632 -414 LINE",
"-757 -414 LINE",
"-757 -289 LINE",
"-632 -289 LINE"
);
},
{
closed = 1;
nodes = (
"581 627 LINE",
"456 627 LINE",
"456 752 LINE",
"581 752 LINE"
);
},
{
closed = 1;
nodes = (
"1144 1081 LINE",
"1019 1081 LINE",
"1019 1206 LINE",
"1144 1206 LINE"
);
},
{
closed = 1;
nodes = (
"726 -287 LINE",
"601 -287 LINE",
"601 -162 LINE",
"726 -162 LINE"
);
},
{
closed = 1;
nodes = (
"157 439 LINE",
"32 439 LINE",
"32 564 LINE",
"157 564 LINE"
);
},
{
closed = 1;
nodes = (
"-451 670 LINE",
"-576 670 LINE",
"-576 795 LINE",
"-451 795 LINE"
);
}
);
width = 1125;
}
);
note = zero;
unicode = 0030;
},
{
glyphname = one;
lastChange = "2021-07-12 13:18:37 +0000";
layers = (
{
layerId = "AC43567E-C337-40C0-B780-8BB3F06D1FA4";
paths = (
{
closed = 1;
nodes = (
"625 750 LINE",
"500 750 LINE",
"500 875 LINE",
"625 875 LINE"
);
},
{
closed = 1;
nodes = (
"750 750 LINE",
"625 750 LINE",
"625 875 LINE",
"750 875 LINE"
);
},
{
closed = 1;
nodes = (
"500 625 LINE",
"375 625 LINE",
"375 750 LINE",
"500 750 LINE"
);
},
{
closed = 1;
nodes = (
"625 625 LINE",
"500 625 LINE",
"500 750 LINE",
"625 750 LINE"
);
},
{
closed = 1;
nodes = (
"750 625 LINE",
"625 625 LINE",
"625 750 LINE",
"750 750 LINE"
);
},
{
closed = 1;
nodes = (
"625 500 LINE",
"500 500 LINE",
"500 625 LINE",
"625 625 LINE"
);
},
{
closed = 1;
nodes = (
"750 500 LINE",
"625 500 LINE",
"625 625 LINE",
"750 625 LINE"
);
},
{
closed = 1;
nodes = (
"625 375 LINE",
"500 375 LINE",
"500 500 LINE",
"625 500 LINE"
);
},
{
closed = 1;
nodes = (
"750 375 LINE",
"625 375 LINE",
"625 500 LINE",
"750 500 LINE"
);
},
{
closed = 1;
nodes = (
"625 250 LINE",
"500 250 LINE",
"500 375 LINE",
"625 375 LINE"
);
},
{
closed = 1;
nodes = (
"750 250 LINE",
"625 250 LINE",
"625 375 LINE",
"750 375 LINE"
);
},
{
closed = 1;
nodes = (
"625 125 LINE",
"500 125 LINE",
"500 250 LINE",
"625 250 LINE"
);
},
{
closed = 1;
nodes = (
"750 125 LINE",
"625 125 LINE",
"625 250 LINE",
"750 250 LINE"
);
},
{
closed = 1;
nodes = (
"375 0 LINE",
"250 0 LINE",
"250 125 LINE",
"375 125 LINE"
);
},
{
closed = 1;
nodes = (
"500 0 LINE",
"375 0 LINE",
"375 125 LINE",
"500 125 LINE"
);
},
{
closed = 1;
nodes = (
"625 0 LINE",
"500 0 LINE",
"500 125 LINE",
"625 125 LINE"
);
},
{
closed = 1;
nodes = (
"750 0 LINE",
"625 0 LINE",
"625 125 LINE",
"750 125 LINE"
);
},
{
closed = 1;
nodes = (
"875 0 LINE",
"750 0 LINE",
"750 125 LINE",
"875 125 LINE"
);
},
{
closed = 1;
nodes = (
"1000 0 LINE",
"875 0 LINE",
"875 125 LINE",
"1000 125 LINE"
);
}
);
width = 1125;
},
{
layerId = "2C46A1C2-E2B6-44B8-927E-E05F8288DB30";
paths = (
{
closed = 1;
nodes = (
"1723 -276 LINE",
"1598 -276 LINE",
"1598 -151 LINE",
"1723 -151 LINE"
);
},
{
closed = 1;
nodes = (
"1751 -484 LINE",
"1626 -484 LINE",
"1626 -359 LINE",
"1751 -359 LINE"
);
},
{
closed = 1;
nodes = (
"-188 824 LINE",
"-313 824 LINE",
"-313 949 LINE",
"-188 949 LINE"
);
},
{
closed = 1;
nodes = (
"449 1435 LINE",
"324 1435 LINE",
"324 1560 LINE",
"449 1560 LINE"
);
},
{
closed = 1;
nodes = (
"-708 -707 LINE",
"-833 -707 LINE",
"-833 -582 LINE",
"-708 -582 LINE"
);
},
{
closed = 1;
nodes = (
"-667 1012 LINE",
"-792 1012 LINE",
"-792 1137 LINE",
"-667 1137 LINE"
);
},
{
closed = 1;
nodes = (
"-466 -770 LINE",
"-591 -770 LINE",
"-591 -645 LINE",
"-466 -645 LINE"
);
},
{
closed = 1;
nodes = (
"1778 1848 LINE",
"1653 1848 LINE",
"1653 1973 LINE",
"1778 1973 LINE"
);
},
{
closed = 1;
nodes = (
"-450 -258 LINE",
"-575 -258 LINE",
"-575 -133 LINE",
"-450 -133 LINE"
);
},
{
closed = 1;
nodes = (
"-698 -578 LINE",
"-823 -578 LINE",
"-823 -453 LINE",
"-698 -453 LINE"
);
},
{
closed = 1;
nodes = (
"207 1391 LINE",
"82 1391 LINE",
"82 1516 LINE",
"207 1516 LINE"
);
},
{
closed = 1;
nodes = (
"1531 1246 LINE",
"1406 1246 LINE",
"1406 1371 LINE",
"1531 1371 LINE"
);
},
{
closed = 1;
nodes = (
"1008 -240 LINE",
"883 -240 LINE",
"883 -115 LINE",
"1008 -115 LINE"
);
},
{
closed = 1;
nodes = (
"1712 -847 LINE",
"1587 -847 LINE",
"1587 -722 LINE",
"1712 -722 LINE"
);
},
{
closed = 1;
nodes = (
"1482 -225 LINE",
"1357 -225 LINE",
"1357 -100 LINE",
"1482 -100 LINE"
);
},
{
closed = 1;
nodes = (
"-764 -1235 LINE",
"-889 -1235 LINE",
"-889 -1110 LINE",
"-764 -1110 LINE"
);
},
{
closed = 1;
nodes = (
"24 -905 LINE",
"-101 -905 LINE",
"-101 -780 LINE",
"24 -780 LINE"
);
},
{
closed = 1;
nodes = (
"-583 575 LINE",
"-708 575 LINE",
"-708 700 LINE",
"-583 700 LINE"
);
},
{
closed = 1;
nodes = (
"2225 -614 LINE",
"2100 -614 LINE",
"2100 -489 LINE",
"2225 -489 LINE"
);
}
);
width = 1125;
}
);
note = one;
unicode = 0031;
},
{
glyphname = two;
lastChange = "2021-07-12 13:18:37 +0000";
layers = (
{
layerId = "AC43567E-C337-40C0-B780-8BB3F06D1FA4";
paths = (
{
closed = 1;
nodes = (
"375 750 LINE",
"250 750 LINE",
"250 875 LINE",
"375 875 LINE"
);
},
{
closed = 1;
nodes = (
"500 750 LINE",
"375 750 LINE",
"375 875 LINE",
"500 875 LINE"
);
},
{
closed = 1;
nodes = (
"625 750 LINE",
"500 750 LINE",
"500 875 LINE",
"625 875 LINE"
);
},
{
closed = 1;
nodes = (
"750 750 LINE",
"625 750 LINE",
"625 875 LINE",
"750 875 LINE"
);
},
{
closed = 1;
nodes = (
"875 750 LINE",
"750 750 LINE",
"750 875 LINE",
"875 875 LINE"
);
},
{
closed = 1;
nodes = (
"250 625 LINE",
"125 625 LINE",
"125 750 LINE",
"250 750 LINE"
);
},
{
closed = 1;
nodes = (
"375 625 LINE",
"250 625 LINE",
"250 750 LINE",
"375 750 LINE"
);
},
{
closed = 1;
nodes = (
"875 625 LINE",
"750 625 LINE",
"750 750 LINE",
"875 750 LINE"
);
},
{
closed = 1;
nodes = (
"1000 625 LINE",
"875 625 LINE",
"875 750 LINE",
"1000 750 LINE"
);
},
{
closed = 1;
nodes = (
"875 500 LINE",
"750 500 LINE",
"750 625 LINE",
"875 625 LINE"
);
},
{
closed = 1;
nodes = (
"1000 500 LINE",
"875 500 LINE",
"875 625 LINE",
"1000 625 LINE"
);
},
{
closed = 1;
nodes = (
"625 375 LINE",
"500 375 LINE",
"500 500 LINE",
"625 500 LINE"
);
},
{
closed = 1;
nodes = (
"750 375 LINE",
"625 375 LINE",
"625 500 LINE",
"750 500 LINE"
);
},
{
closed = 1;
nodes = (
"875 375 LINE",
"750 375 LINE",
"750 500 LINE",
"875 500 LINE"
);
},
{
closed = 1;
nodes = (
"500 250 LINE",
"375 250 LINE",
"375 375 LINE",
"500 375 LINE"
);
},
{
closed = 1;
nodes = (
"625 250 LINE",
"500 250 LINE",
"500 375 LINE",
"625 375 LINE"
);
},
{
closed = 1;
nodes = (
"375 125 LINE",
"250 125 LINE",
"250 250 LINE",
"375 250 LINE"
);
},
{
closed = 1;
nodes = (
"500 125 LINE",
"375 125 LINE",
"375 250 LINE",
"500 250 LINE"
);
},
{
closed = 1;
nodes = (
"875 125 LINE",
"750 125 LINE",
"750 250 LINE",
"875 250 LINE"
);
},
{
closed = 1;
nodes = (
"1000 125 LINE",
"875 125 LINE",
"875 250 LINE",
"1000 250 LINE"
);
},
{
closed = 1;
nodes = (
"250 0 LINE",
"125 0 LINE",
"125 125 LINE",
"250 125 LINE"
);
},
{
closed = 1;
nodes = (
"375 0 LINE",
"250 0 LINE",
"250 125 LINE",
"375 125 LINE"
);
},
{
closed = 1;
nodes = (
"500 0 LINE",
"375 0 LINE",
"375 125 LINE",
"500 125 LINE"
);
},
{
closed = 1;
nodes = (
"625 0 LINE",
"500 0 LINE",
"500 125 LINE",
"625 125 LINE"
);
},
{
closed = 1;
nodes = (
"750 0 LINE",
"625 0 LINE",
"625 125 LINE",
"750 125 LINE"
);
},
{
closed = 1;
nodes = (
"875 0 LINE",
"750 0 LINE",
"750 125 LINE",
"875 125 LINE"
);
},
{
closed = 1;
nodes = (
"1000 0 LINE",
"875 0 LINE",
"875 125 LINE",
"1000 125 LINE"
);
}
);
width = 1125;
},
{
layerId = "2C46A1C2-E2B6-44B8-927E-E05F8288DB30";
paths = (
{
closed = 1;
nodes = (
"1121 1644 LINE",
"996 1644 LINE",
"996 1769 LINE",
"1121 1769 LINE"
);
},
{
closed = 1;
nodes = (
"713 -651 LINE",
"588 -651 LINE",
"588 -526 LINE",
"713 -526 LINE"
);
},
{
closed = 1;
nodes = (
"-644 1459 LINE",
"-769 1459 LINE",
"-769 1584 LINE",
"-644 1584 LINE"
);
},
{
closed = 1;
nodes = (
"265 2165 LINE",
"140 2165 LINE",
"140 2290 LINE",
"265 2290 LINE"
);
},
{
closed = 1;
nodes = (
"-605 211 LINE",
"-730 211 LINE",
"-730 336 LINE",
"-605 336 LINE"
);
},
{
closed = 1;
nodes = (
"1331 179 LINE",
"1206 179 LINE",
"1206 304 LINE",
"1331 304 LINE"
);
},
{
closed = 1;
nodes = (
"739 -268 LINE",
"614 -268 LINE",
"614 -143 LINE",
"739 -143 LINE"
);
},
{
closed = 1;
nodes = (
"-512 2068 LINE",
"-637 2068 LINE",
"-637 2193 LINE",
"-512 2193 LINE"
);
},
{
closed = 1;
nodes = (
"824 -694 LINE",
"699 -694 LINE",
"699 -569 LINE",
"824 -569 LINE"
);
},
{
closed = 1;
nodes = (
"2012 1879 LINE",
"1887 1879 LINE",
"1887 2004 LINE",
"2012 2004 LINE"
);
},
{
closed = 1;
nodes = (
"2463 1411 LINE",
"2338 1411 LINE",
"2338 1536 LINE",
"2463 1536 LINE"
);
},
{
closed = 1;
nodes = (
"-379 1218 LINE",
"-504 1218 LINE",
"-504 1343 LINE",
"-379 1343 LINE"
);
},
{
closed = 1;
nodes = (
"-27 -591 LINE",
"-152 -591 LINE",
"-152 -466 LINE",
"-27 -466 LINE"
);
},
{
closed = 1;
nodes = (
"2292 -464 LINE",
"2167 -464 LINE",
"2167 -339 LINE",
"2292 -339 LINE"
);
},
{
closed = 1;
nodes = (
"-357 -207 LINE",
"-482 -207 LINE",
"-482 -82 LINE",
"-357 -82 LINE"
);
},
{
closed = 1;
nodes = (
"1955 640 LINE",
"1830 640 LINE",
"1830 765 LINE",
"1955 765 LINE"
);
},
{
closed = 1;
nodes = (
"-382 -190 LINE",
"-507 -190 LINE",
"-507 -65 LINE",
"-382 -65 LINE"
);
},
{
closed = 1;
nodes = (
"-967 943 LINE",
"-1092 943 LINE",
"-1092 1068 LINE",
"-967 1068 LINE"
);
},
{
closed = 1;
nodes = (
"2257 -1079 LINE",
"2132 -1079 LINE",
"2132 -954 LINE",
"2257 -954 LINE"
);
},
{
closed = 1;
nodes = (
"863 -547 LINE",
"738 -547 LINE",
"738 -422 LINE",
"863 -422 LINE"
);
},
{
closed = 1;
nodes = (
"-548 -677 LINE",
"-673 -677 LINE",
"-673 -552 LINE",
"-548 -552 LINE"
);
},
{
closed = 1;
nodes = (
"1701 1075 LINE",
"1576 1075 LINE",
"1576 1200 LINE",
"1701 1200 LINE"
);
},
{
closed = 1;
nodes = (
"800 -1063 LINE",
"675 -1063 LINE",
"675 -938 LINE",
"800 -938 LINE"
);
},
{
closed = 1;
nodes = (
"1403 -956 LINE",
"1278 -956 LINE",
"1278 -831 LINE",
"1403 -831 LINE"
);
},
{
closed = 1;
nodes = (
"1308 -896 LINE",
"1183 -896 LINE",
"1183 -771 LINE",
"1308 -771 LINE"
);
},
{
closed = 1;
nodes = (
"506 349 LINE",
"381 349 LINE",
"381 474 LINE",
"506 474 LINE"
);
},
{
closed = 1;
nodes = (
"400 -1137 LINE",
"275 -1137 LINE",
"275 -1012 LINE",
"400 -1012 LINE"
);
}
);
width = 1125;
}
);
note = two;
unicode = 0032;
},
{
glyphname = three;
lastChange = "2021-07-12 13:17:18 +0000";
layers = (
{
layerId = "AC43567E-C337-40C0-B780-8BB3F06D1FA4";
paths = (
{
closed = 1;
nodes = (
"375 750 LINE",
"250 750 LINE",
"250 875 LINE",
"375 875 LINE"
);
},
{
closed = 1;
nodes = (
"500 750 LINE",
"375 750 LINE",
"375 875 LINE",
"500 875 LINE"
);
},
{
closed = 1;
nodes = (
"625 750 LINE",
"500 750 LINE",
"500 875 LINE",
"625 875 LINE"
);
},
{
closed = 1;
nodes = (
"750 750 LINE",
"625 750 LINE",
"625 875 LINE",
"750 875 LINE"
);
},
{
closed = 1;
nodes = (
"875 750 LINE",
"750 750 LINE",
"750 875 LINE",
"875 875 LINE"
);
},
{
closed = 1;
nodes = (
"250 625 LINE",
"125 625 LINE",
"125 750 LINE",
"250 750 LINE"
);
},
{
closed = 1;
nodes = (
"375 625 LINE",
"250 625 LINE",
"250 750 LINE",
"375 750 LINE"
);
},
{
closed = 1;
nodes = (
"875 625 LINE",
"750 625 LINE",
"750 750 LINE",
"875 750 LINE"
);
},
{
closed = 1;
nodes = (
"1000 625 LINE",
"875 625 LINE",
"875 750 LINE",
"1000 750 LINE"
);
},
{
closed = 1;
nodes = (
"875 500 LINE",
"750 500 LINE",
"750 625 LINE",
"875 625 LINE"
);
},
{
closed = 1;
nodes = (
"1000 500 LINE",
"875 500 LINE",
"875 625 LINE",
"1000 625 LINE"
);
},
{
closed = 1;
nodes = (
"500 375 LINE",
"375 375 LINE",
"375 500 LINE",
"500 500 LINE"
);
},
{
closed = 1;
nodes = (
"625 375 LINE",
"500 375 LINE",
"500 500 LINE",
"625 500 LINE"
);
},
{
closed = 1;
nodes = (
"750 375 LINE",
"625 375 LINE",
"625 500 LINE",
"750 500 LINE"
);
},
{
closed = 1;
nodes = (
"875 375 LINE",
"750 375 LINE",
"750 500 LINE",
"875 500 LINE"
);
},
{
closed = 1;
nodes = (
"875 250 LINE",
"750 250 LINE",
"750 375 LINE",
"875 375 LINE"
);
},
{
closed = 1;
nodes = (
"1000 250 LINE",
"875 250 LINE",
"875 375 LINE",
"1000 375 LINE"
);
},
{
closed = 1;
nodes = (
"250 125 LINE",
"125 125 LINE",
"125 250 LINE",
"250 250 LINE"
);
},
{
closed = 1;
nodes = (
"375 125 LINE",
"250 125 LINE",
"250 250 LINE",
"375 250 LINE"
);
},
{
closed = 1;
nodes = (
"875 125 LINE",
"750 125 LINE",
"750 250 LINE",
"875 250 LINE"
);
},
{
closed = 1;
nodes = (
"1000 125 LINE",
"875 125 LINE",
"875 250 LINE",
"1000 250 LINE"
);
},
{
closed = 1;
nodes = (
"375 0 LINE",
"250 0 LINE",
"250 125 LINE",
"375 125 LINE"
);
},
{
closed = 1;
nodes = (
"500 0 LINE",
"375 0 LINE",
"375 125 LINE",
"500 125 LINE"
);
},
{
closed = 1;
nodes = (
"625 0 LINE",
"500 0 LINE",
"500 125 LINE",
"625 125 LINE"
);
},
{
closed = 1;
nodes = (
"750 0 LINE",
"625 0 LINE",
"625 125 LINE",
"750 125 LINE"
);
},
{
closed = 1;
nodes = (
"875 0 LINE",
"750 0 LINE",
"750 125 LINE",
"875 125 LINE"
);
}
);
width = 1125;
},
{
layerId = "2C46A1C2-E2B6-44B8-927E-E05F8288DB30";
paths = (
{
closed = 1;
nodes = (
"-195 1089 LINE",
"-320 1089 LINE",
"-320 1214 LINE",
"-195 1214 LINE"
);
},
{
closed = 1;
nodes = (
"1380 -270 LINE",
"1255 -270 LINE",
"1255 -145 LINE",
"1380 -145 LINE"
);
},
{
closed = 1;
nodes = (
"-150 464 LINE",
"-275 464 LINE",
"-275 589 LINE",
"-150 589 LINE"
);
},
{
closed = 1;
nodes = (
"-702 1303 LINE",
"-827 1303 LINE",
"-827 1428 LINE",
"-702 1428 LINE"
);
},
{
closed = 1;
nodes = (
"499 1089 LINE",
"374 1089 LINE",
"374 1214 LINE",
"499 1214 LINE"
);
},
{
closed = 1;
nodes = (
"-13 -629 LINE",
"-138 -629 LINE",
"-138 -504 LINE",
"-13 -504 LINE"
);
},
{
closed = 1;
nodes = (
"1764 -536 LINE",
"1639 -536 LINE",
"1639 -411 LINE",
"1764 -411 LINE"
);
},
{
closed = 1;
nodes = (
"1853 1603 LINE",
"1728 1603 LINE",
"1728 1728 LINE",
"1853 1728 LINE"
);
},
{
closed = 1;
nodes = (
"2260 1363 LINE",
"2135 1363 LINE",
"2135 1488 LINE",
"2260 1488 LINE"
);
},
{
closed = 1;
nodes = (
"1850 -284 LINE",
"1725 -284 LINE",
"1725 -159 LINE",
"1850 -159 LINE"
);
},
{
closed = 1;
nodes = (
"2201 127 LINE",
"2076 127 LINE",
"2076 252 LINE",
"2201 252 LINE"
);
},
{
closed = 1;
nodes = (
"-62 540 LINE",
"-187 540 LINE",
"-187 665 LINE",
"-62 665 LINE"
);
},
{
closed = 1;
nodes = (
"314 952 LINE",
"189 952 LINE",
"189 1077 LINE",
"314 1077 LINE"
);
},
{
closed = 1;
nodes = (
"1576 666 LINE",
"1451 666 LINE",
"1451 791 LINE",
"1576 791 LINE"
);
},
{
closed = 1;
nodes = (
"-355 -320 LINE",
"-480 -320 LINE",
"-480 -195 LINE",
"-355 -195 LINE"
);
},
{
closed = 1;
nodes = (
"-224 -16 LINE",
"-349 -16 LINE",
"-349 109 LINE",
"-224 109 LINE"
);
},
{
closed = 1;
nodes = (
"2083 393 LINE",
"1958 393 LINE",
"1958 518 LINE",
"2083 518 LINE"
);
},
{
closed = 1;
nodes = (
"1623 1465 LINE",
"1498 1465 LINE",
"1498 1590 LINE",
"1623 1590 LINE"
);
},
{
closed = 1;
nodes = (
"177 905 LINE",
"52 905 LINE",
"52 1030 LINE",
"177 1030 LINE"
);
},
{
closed = 1;
nodes = (
"1039 1384 LINE",
"914 1384 LINE",
"914 1509 LINE",
"1039 1509 LINE"
);
},
{
closed = 1;
nodes = (
"479 -1093 LINE",
"354 -1093 LINE",
"354 -968 LINE",
"479 -968 LINE"
);
},
{
closed = 1;
nodes = (
"236 294 LINE",
"111 294 LINE",
"111 419 LINE",
"236 419 LINE"
);
},
{
closed = 1;
nodes = (
"273 1280 LINE",
"148 1280 LINE",
"148 1405 LINE",
"273 1405 LINE"
);
},
{
closed = 1;
nodes = (
"765 -559 LINE",
"640 -559 LINE",
"640 -434 LINE",
"765 -434 LINE"
);
},
{
closed = 1;
nodes = (
"287 -254 LINE",
"162 -254 LINE",
"162 -129 LINE",
"287 -129 LINE"
);
},
{
closed = 1;
nodes = (
"1536 -243 LINE",
"1411 -243 LINE",
"1411 -118 LINE",
"1536 -118 LINE"
);
}
);
width = 1125;
}
);
note = three;
unicode = 0033;
},
{
glyphname = four;
lastChange = "2021-07-12 13:17:18 +0000";
layers = (
{
layerId = "AC43567E-C337-40C0-B780-8BB3F06D1FA4";
paths = (
{
closed = 1;
nodes = (
"625 750 LINE",
"500 750 LINE",
"500 875 LINE",
"625 875 LINE"
);
},
{
closed = 1;
nodes = (
"750 750 LINE",
"625 750 LINE",
"625 875 LINE",
"750 875 LINE"
);
},
{
closed = 1;
nodes = (
"875 750 LINE",
"750 750 LINE",
"750 875 LINE",
"875 875 LINE"
);
},
{
closed = 1;
nodes = (
"500 625 LINE",
"375 625 LINE",
"375 750 LINE",
"500 750 LINE"
);
},
{
closed = 1;
nodes = (
"625 625 LINE",
"500 625 LINE",
"500 750 LINE",
"625 750 LINE"
);
},
{
closed = 1;
nodes = (
"750 625 LINE",
"625 625 LINE",
"625 750 LINE",
"750 750 LINE"
);
},
{
closed = 1;
nodes = (
"875 625 LINE",
"750 625 LINE",
"750 750 LINE",
"875 750 LINE"
);
},
{
closed = 1;
nodes = (
"375 500 LINE",
"250 500 LINE",
"250 625 LINE",
"375 625 LINE"
);
},
{
closed = 1;
nodes = (
"500 500 LINE",
"375 500 LINE",
"375 625 LINE",
"500 625 LINE"
);
},
{
closed = 1;
nodes = (
"750 500 LINE",
"625 500 LINE",
"625 625 LINE",
"750 625 LINE"
);
},
{
closed = 1;
nodes = (
"875 500 LINE",
"750 500 LINE",
"750 625 LINE",
"875 625 LINE"
);
},
{
closed = 1;
nodes = (
"250 375 LINE",
"125 375 LINE",
"125 500 LINE",
"250 500 LINE"
);
},
{
closed = 1;
nodes = (
"375 375 LINE",
"250 375 LINE",
"250 500 LINE",
"375 500 LINE"
);
},
{
closed = 1;
nodes = (
"750 375 LINE",
"625 375 LINE",
"625 500 LINE",
"750 500 LINE"
);
},
{
closed = 1;
nodes = (
"875 375 LINE",
"750 375 LINE",
"750 500 LINE",
"875 500 LINE"
);
},
{
closed = 1;
nodes = (
"250 250 LINE",
"125 250 LINE",
"125 375 LINE",
"250 375 LINE"
);
},
{
closed = 1;
nodes = (
"375 250 LINE",
"250 250 LINE",
"250 375 LINE",
"375 375 LINE"
);
},
{
closed = 1;
nodes = (
"500 250 LINE",
"375 250 LINE",
"375 375 LINE",
"500 375 LINE"
);
},
{
closed = 1;
nodes = (
"625 250 LINE",
"500 250 LINE",
"500 375 LINE",
"625 375 LINE"
);
},
{
closed = 1;
nodes = (
"750 250 LINE",
"625 250 LINE",
"625 375 LINE",
"750 375 LINE"
);
},
{
closed = 1;
nodes = (
"875 250 LINE",
"750 250 LINE",
"750 375 LINE",
"875 375 LINE"
);
},
{
closed = 1;
nodes = (
"1000 250 LINE",
"875 250 LINE",
"875 375 LINE",
"1000 375 LINE"
);
},
{
closed = 1;
nodes = (
"750 125 LINE",
"625 125 LINE",
"625 250 LINE",
"750 250 LINE"
);
},
{
closed = 1;
nodes = (
"875 125 LINE",
"750 125 LINE",
"750 250 LINE",
"875 250 LINE"
);
},
{
closed = 1;
nodes = (
"625 0 LINE",
"500 0 LINE",
"500 125 LINE",
"625 125 LINE"
);
},
{
closed = 1;
nodes = (
"750 0 LINE",
"625 0 LINE",
"625 125 LINE",
"750 125 LINE"
);
},
{
closed = 1;
nodes = (
"875 0 LINE",
"750 0 LINE",
"750 125 LINE",
"875 125 LINE"
);
},
{
closed = 1;
nodes = (
"1000 0 LINE",
"875 0 LINE",
"875 125 LINE",
"1000 125 LINE"
);
}
);
width = 1125;
},
{
layerId = "2C46A1C2-E2B6-44B8-927E-E05F8288DB30";
paths = (
{
closed = 1;
nodes = (
"459 -648 LINE",
"334 -648 LINE",
"334 -523 LINE",
"459 -523 LINE"
);
},
{
closed = 1;
nodes = (
"22 -68 LINE",
"-103 -68 LINE",
"-103 57 LINE",
"22 57 LINE"
);
},
{
closed = 1;
nodes = (
"-345 1471 LINE",
"-470 1471 LINE",
"-470 1596 LINE",
"-345 1596 LINE"
);
},
{
closed = 1;
nodes = (
"-201 361 LINE",
"-326 361 LINE",
"-326 486 LINE",
"-201 486 LINE"
);
},
{
closed = 1;
nodes = (
"-141 1064 LINE",
"-266 1064 LINE",
"-266 1189 LINE",
"-141 1189 LINE"
);
},
{
closed = 1;
nodes = (
"1967 -87 LINE",
"1842 -87 LINE",
"1842 38 LINE",
"1967 38 LINE"
);
},
{
closed = 1;
nodes = (
"1057 -93 LINE",
"932 -93 LINE",
"932 32 LINE",
"1057 32 LINE"
);
},
{
closed = 1;
nodes = (
"-617 -197 LINE",
"-742 -197 LINE",
"-742 -72 LINE",
"-617 -72 LINE"
);
},
{
closed = 1;
nodes = (
"1635 1371 LINE",
"1510 1371 LINE",
"1510 1496 LINE",
"1635 1496 LINE"
);
},
{
closed = 1;
nodes = (
"-31 638 LINE",
"-156 638 LINE",
"-156 763 LINE",
"-31 763 LINE"
);
},
{
closed = 1;
nodes = (
"1461 1550 LINE",
"1336 1550 LINE",
"1336 1675 LINE",
"1461 1675 LINE"
);
},
{
closed = 1;
nodes = (
"-691 928 LINE",
"-816 928 LINE",
"-816 1053 LINE",
"-691 1053 LINE"
);
},
{
closed = 1;
nodes = (
"642 -708 LINE",
"517 -708 LINE",
"517 -583 LINE",
"642 -583 LINE"
);
},
{
closed = 1;
nodes = (
"-501 1250 LINE",
"-626 1250 LINE",
"-626 1375 LINE",
"-501 1375 LINE"
);
},
{
closed = 1;
nodes = (
"1742 -786 LINE",
"1617 -786 LINE",
"1617 -661 LINE",
"1742 -661 LINE"
);
},
{
closed = 1;
nodes = (
"928 1375 LINE",
"803 1375 LINE",
"803 1500 LINE",
"928 1500 LINE"
);
},
{
closed = 1;
nodes = (
"-250 94 LINE",
"-375 94 LINE",
"-375 219 LINE",
"-250 219 LINE"
);
},
{
closed = 1;
nodes = (
"-697 928 LINE",
"-822 928 LINE",
"-822 1053 LINE",
"-697 1053 LINE"
);
},
{
closed = 1;
nodes = (
"-677 -89 LINE",
"-802 -89 LINE",
"-802 36 LINE",
"-677 36 LINE"
);
},
{
closed = 1;
nodes = (
"990 73 LINE",
"865 73 LINE",
"865 198 LINE",
"990 198 LINE"
);
},
{
closed = 1;
nodes = (
"-4 1706 LINE",
"-129 1706 LINE",
"-129 1831 LINE",
"-4 1831 LINE"
);
},
{
closed = 1;
nodes = (
"2101 1114 LINE",
"1976 1114 LINE",
"1976 1239 LINE",
"2101 1239 LINE"
);
},
{
closed = 1;
nodes = (
"1614 -21 LINE",
"1489 -21 LINE",
"1489 104 LINE",
"1614 104 LINE"
);
},
{
closed = 1;
nodes = (
"573 923 LINE",
"448 923 LINE",
"448 1048 LINE",
"573 1048 LINE"
);
},
{
closed = 1;
nodes = (
"303 -401 LINE",
"178 -401 LINE",
"178 -276 LINE",
"303 -276 LINE"
);
},
{
closed = 1;
nodes = (
"-251 -435 LINE",
"-376 -435 LINE",
"-376 -310 LINE",
"-251 -310 LINE"
);
},
{
closed = 1;
nodes = (
"-190 198 LINE",
"-315 198 LINE",
"-315 323 LINE",
"-190 323 LINE"
);
},
{
closed = 1;
nodes = (
"2229 -1396 LINE",
"2104 -1396 LINE",
"2104 -1271 LINE",
"2229 -1271 LINE"
);
}
);
width = 1125;
}
);
note = four;
unicode = 0034;
},
{
glyphname = five;
lastChange = "2021-07-12 13:17:18 +0000";
layers = (
{
layerId = "AC43567E-C337-40C0-B780-8BB3F06D1FA4";
paths = (
{
closed = 1;
nodes = (
"250 750 LINE",
"125 750 LINE",
"125 875 LINE",
"250 875 LINE"
);
},
{
closed = 1;
nodes = (
"375 750 LINE",
"250 750 LINE",
"250 875 LINE",
"375 875 LINE"
);
},
{
closed = 1;
nodes = (
"500 750 LINE",
"375 750 LINE",
"375 875 LINE",
"500 875 LINE"
);
},
{
closed = 1;
nodes = (
"625 750 LINE",
"500 750 LINE",
"500 875 LINE",
"625 875 LINE"
);
},
{
closed = 1;
nodes = (
"750 750 LINE",
"625 750 LINE",
"625 875 LINE",
"750 875 LINE"
);
},
{
closed = 1;
nodes = (
"875 750 LINE",
"750 750 LINE",
"750 875 LINE",
"875 875 LINE"
);
},
{
closed = 1;
nodes = (
"1000 750 LINE",
"875 750 LINE",
"875 875 LINE",
"1000 875 LINE"
);
},
{
closed = 1;
nodes = (
"250 625 LINE",
"125 625 LINE",
"125 750 LINE",
"250 750 LINE"
);
},
{
closed = 1;
nodes = (
"375 625 LINE",
"250 625 LINE",
"250 750 LINE",
"375 750 LINE"
);
},
{
closed = 1;
nodes = (
"250 500 LINE",
"125 500 LINE",
"125 625 LINE",
"250 625 LINE"
);
},
{
closed = 1;
nodes = (
"375 500 LINE",
"250 500 LINE",
"250 625 LINE",
"375 625 LINE"
);
},
{
closed = 1;
nodes = (
"250 375 LINE",
"125 375 LINE",
"125 500 LINE",
"250 500 LINE"
);
},
{
closed = 1;
nodes = (
"375 375 LINE",
"250 375 LINE",
"250 500 LINE",
"375 500 LINE"
);
},
{
closed = 1;
nodes = (
"500 375 LINE",
"375 375 LINE",
"375 500 LINE",
"500 500 LINE"
);
},
{
closed = 1;
nodes = (
"625 375 LINE",
"500 375 LINE",
"500 500 LINE",
"625 500 LINE"
);
},
{
closed = 1;
nodes = (
"750 375 LINE",
"625 375 LINE",
"625 500 LINE",
"750 500 LINE"
);
},
{
closed = 1;
nodes = (
"875 375 LINE",
"750 375 LINE",
"750 500 LINE",
"875 500 LINE"
);
},
{
closed = 1;
nodes = (
"875 250 LINE",
"750 250 LINE",
"750 375 LINE",
"875 375 LINE"
);
},
{
closed = 1;
nodes = (
"1000 250 LINE",
"875 250 LINE",
"875 375 LINE",
"1000 375 LINE"
);
},
{
closed = 1;
nodes = (
"250 125 LINE",
"125 125 LINE",
"125 250 LINE",
"250 250 LINE"
);
},
{
closed = 1;
nodes = (
"375 125 LINE",
"250 125 LINE",
"250 250 LINE",
"375 250 LINE"
);
},
{
closed = 1;
nodes = (
"875 125 LINE",
"750 125 LINE",
"750 250 LINE",
"875 250 LINE"
);
},
{
closed = 1;
nodes = (
"1000 125 LINE",
"875 125 LINE",
"875 250 LINE",
"1000 250 LINE"
);
},
{
closed = 1;
nodes = (
"375 0 LINE",
"250 0 LINE",
"250 125 LINE",
"375 125 LINE"
);
},
{
closed = 1;
nodes = (
"500 0 LINE",
"375 0 LINE",
"375 125 LINE",
"500 125 LINE"
);
},
{
closed = 1;
nodes = (
"625 0 LINE",
"500 0 LINE",
"500 125 LINE",
"625 125 LINE"
);
},
{
closed = 1;
nodes = (
"750 0 LINE",
"625 0 LINE",
"625 125 LINE",
"750 125 LINE"
);
},
{
closed = 1;
nodes = (
"875 0 LINE",
"750 0 LINE",
"750 125 LINE",
"875 125 LINE"
);
}
);
width = 1125;
},
{
layerId = "2C46A1C2-E2B6-44B8-927E-E05F8288DB30";
paths = (
{
closed = 1;
nodes = (
"-37 1555 LINE",
"-162 1555 LINE",
"-162 1680 LINE",
"-37 1680 LINE"
);
},
{
closed = 1;
nodes = (
"1814 1016 LINE",
"1689 1016 LINE",
"1689 1141 LINE",
"1814 1141 LINE"
);
},
{
closed = 1;
nodes = (
"-576 -392 LINE",
"-701 -392 LINE",
"-701 -267 LINE",
"-576 -267 LINE"
);
},
{
closed = 1;
nodes = (
"1224 571 LINE",
"1099 571 LINE",
"1099 696 LINE",
"1224 696 LINE"
);
},
{
closed = 1;
nodes = (
"62 2153 LINE",
"-63 2153 LINE",
"-63 2278 LINE",
"62 2278 LINE"
);
},
{
closed = 1;
nodes = (
"1567 380 LINE",
"1442 380 LINE",
"1442 505 LINE",
"1567 505 LINE"
);
},
{
closed = 1;
nodes = (
"169 956 LINE",
"44 956 LINE",
"44 1081 LINE",
"169 1081 LINE"
);
},
{
closed = 1;
nodes = (
"1475 -757 LINE",
"1350 -757 LINE",
"1350 -632 LINE",
"1475 -632 LINE"
);
},
{
closed = 1;
nodes = (
"43 -282 LINE",
"-82 -282 LINE",
"-82 -157 LINE",
"43 -157 LINE"
);
},
{
closed = 1;
nodes = (
"1471 1948 LINE",
"1346 1948 LINE",
"1346 2073 LINE",
"1471 2073 LINE"
);
},
{
closed = 1;
nodes = (
"-760 1125 LINE",
"-885 1125 LINE",
"-885 1250 LINE",
"-760 1250 LINE"
);
},
{
closed = 1;
nodes = (
"675 -368 LINE",
"550 -368 LINE",
"550 -243 LINE",
"675 -243 LINE"
);
},
{
closed = 1;
nodes = (
"-216 1548 LINE",
"-341 1548 LINE",
"-341 1673 LINE",
"-216 1673 LINE"
);
},
{
closed = 1;
nodes = (
"-422 1572 LINE",
"-547 1572 LINE",
"-547 1697 LINE",
"-422 1697 LINE"
);
},
{
closed = 1;
nodes = (
"1267 -249 LINE",
"1142 -249 LINE",
"1142 -124 LINE",
"1267 -124 LINE"
);
},
{
closed = 1;
nodes = (
"1744 944 LINE",
"1619 944 LINE",
"1619 1069 LINE",
"1744 1069 LINE"
);
},
{
closed = 1;
nodes = (
"1438 1516 LINE",
"1313 1516 LINE",
"1313 1641 LINE",
"1438 1641 LINE"
);
},
{
closed = 1;
nodes = (
"-409 0 LINE",
"-534 0 LINE",
"-534 125 LINE",
"-409 125 LINE"
);
},
{
closed = 1;
nodes = (
"2000 -816 LINE",
"1875 -816 LINE",
"1875 -691 LINE",
"2000 -691 LINE"
);
},
{
closed = 1;
nodes = (
"-82 -741 LINE",
"-207 -741 LINE",
"-207 -616 LINE",
"-82 -616 LINE"
);
},
{
closed = 1;
nodes = (
"-691 -210 LINE",
"-816 -210 LINE",
"-816 -85 LINE",
"-691 -85 LINE"
);
},
{
closed = 1;
nodes = (
"-28 -793 LINE",
"-153 -793 LINE",
"-153 -668 LINE",
"-28 -668 LINE"
);
},
{
closed = 1;
nodes = (
"2058 751 LINE",
"1933 751 LINE",
"1933 876 LINE",
"2058 876 LINE"
);
},
{
closed = 1;
nodes = (
"1241 1447 LINE",
"1116 1447 LINE",
"1116 1572 LINE",
"1241 1572 LINE"
);
},
{
closed = 1;
nodes = (
"-981 488 LINE",
"-1106 488 LINE",
"-1106 613 LINE",
"-981 613 LINE"
);
},
{
closed = 1;
nodes = (
"799 1366 LINE",
"674 1366 LINE",
"674 1491 LINE",
"799 1491 LINE"
);
},
{
closed = 1;
nodes = (
"1324 753 LINE",
"1199 753 LINE",
"1199 878 LINE",
"1324 878 LINE"
);
},
{
closed = 1;
nodes = (
"271 -886 LINE",
"146 -886 LINE",
"146 -761 LINE",
"271 -761 LINE"
);
}
);
width = 1125;
}
);
note = five;
unicode = 0035;
},
{
glyphname = six;
lastChange = "2021-07-12 13:18:37 +0000";
layers = (
{
layerId = "AC43567E-C337-40C0-B780-8BB3F06D1FA4";
paths = (
{
closed = 1;
nodes = (
"500 750 LINE",
"375 750 LINE",
"375 875 LINE",
"500 875 LINE"
);
},
{
closed = 1;
nodes = (
"625 750 LINE",
"500 750 LINE",
"500 875 LINE",
"625 875 LINE"
);
},
{
closed = 1;
nodes = (
"750 750 LINE",
"625 750 LINE",
"625 875 LINE",
"750 875 LINE"
);
},
{
closed = 1;
nodes = (
"375 625 LINE",
"250 625 LINE",
"250 750 LINE",
"375 750 LINE"
);
},
{
closed = 1;
nodes = (
"500 625 LINE",
"375 625 LINE",
"375 750 LINE",
"500 750 LINE"
);
},
{
closed = 1;
nodes = (
"250 500 LINE",
"125 500 LINE",
"125 625 LINE",
"250 625 LINE"
);
},
{
closed = 1;
nodes = (
"375 500 LINE",
"250 500 LINE",
"250 625 LINE",
"375 625 LINE"
);
},
{
closed = 1;
nodes = (
"250 375 LINE",
"125 375 LINE",
"125 500 LINE",
"250 500 LINE"
);
},
{
closed = 1;
nodes = (
"375 375 LINE",
"250 375 LINE",
"250 500 LINE",
"375 500 LINE"
);
},
{
closed = 1;
nodes = (
"500 375 LINE",
"375 375 LINE",
"375 500 LINE",
"500 500 LINE"
);
},
{
closed = 1;
nodes = (
"625 375 LINE",
"500 375 LINE",
"500 500 LINE",
"625 500 LINE"
);
},
{
closed = 1;
nodes = (
"750 375 LINE",
"625 375 LINE",
"625 500 LINE",
"750 500 LINE"
);
},
{
closed = 1;
nodes = (
"875 375 LINE",
"750 375 LINE",
"750 500 LINE",
"875 500 LINE"
);
},
{
closed = 1;
nodes = (
"250 250 LINE",
"125 250 LINE",
"125 375 LINE",
"250 375 LINE"
);
},
{
closed = 1;
nodes = (
"375 250 LINE",
"250 250 LINE",
"250 375 LINE",
"375 375 LINE"
);
},
{
closed = 1;
nodes = (
"875 250 LINE",
"750 250 LINE",
"750 375 LINE",
"875 375 LINE"
);
},
{
closed = 1;
nodes = (
"1000 250 LINE",
"875 250 LINE",
"875 375 LINE",
"1000 375 LINE"
);
},
{
closed = 1;
nodes = (
"250 125 LINE",
"125 125 LINE",
"125 250 LINE",
"250 250 LINE"
);
},
{
closed = 1;
nodes = (
"375 125 LINE",
"250 125 LINE",
"250 250 LINE",
"375 250 LINE"
);
},
{
closed = 1;
nodes = (
"875 125 LINE",
"750 125 LINE",
"750 250 LINE",
"875 250 LINE"
);
},
{
closed = 1;
nodes = (
"1000 125 LINE",
"875 125 LINE",
"875 250 LINE",
"1000 250 LINE"
);
},
{
closed = 1;
nodes = (
"375 0 LINE",
"250 0 LINE",
"250 125 LINE",
"375 125 LINE"
);
},
{
closed = 1;
nodes = (
"500 0 LINE",
"375 0 LINE",
"375 125 LINE",
"500 125 LINE"
);
},
{
closed = 1;
nodes = (
"625 0 LINE",
"500 0 LINE",
"500 125 LINE",
"625 125 LINE"
);
},
{
closed = 1;
nodes = (
"750 0 LINE",
"625 0 LINE",
"625 125 LINE",
"750 125 LINE"
);
},
{
closed = 1;
nodes = (
"875 0 LINE",
"750 0 LINE",
"750 125 LINE",
"875 125 LINE"
);
}
);
width = 1125;
},
{
layerId = "2C46A1C2-E2B6-44B8-927E-E05F8288DB30";
paths = (
{
closed = 1;
nodes = (
"-462 156 LINE",
"-587 156 LINE",
"-587 281 LINE",
"-462 281 LINE"
);
},
{
closed = 1;
nodes = (
"928 1296 LINE",
"803 1296 LINE",
"803 1421 LINE",
"928 1421 LINE"
);
},
{
closed = 1;
nodes = (
"526 2225 LINE",
"401 2225 LINE",
"401 2350 LINE",
"526 2350 LINE"
);
},
{
closed = 1;
nodes = (
"1564 -628 LINE",
"1439 -628 LINE",
"1439 -503 LINE",
"1564 -503 LINE"
);
},
{
closed = 1;
nodes = (
"1596 -64 LINE",
"1471 -64 LINE",
"1471 61 LINE",
"1596 61 LINE"
);
},
{
closed = 1;
nodes = (
"49 1242 LINE",
"-76 1242 LINE",
"-76 1367 LINE",
"49 1367 LINE"
);
},
{
closed = 1;
nodes = (
"1324 -896 LINE",
"1199 -896 LINE",
"1199 -771 LINE",
"1324 -771 LINE"
);
},
{
closed = 1;
nodes = (
"731 -868 LINE",
"606 -868 LINE",
"606 -743 LINE",
"731 -743 LINE"
);
},
{
closed = 1;
nodes = (
"1328 -973 LINE",
"1203 -973 LINE",
"1203 -848 LINE",
"1328 -848 LINE"
);
},
{
closed = 1;
nodes = (
"69 1442 LINE",
"-56 1442 LINE",
"-56 1567 LINE",
"69 1567 LINE"
);
},
{
closed = 1;
nodes = (
"169 1059 LINE",
"44 1059 LINE",
"44 1184 LINE",
"169 1184 LINE"
);
},
{
closed = 1;
nodes = (
"1745 -867 LINE",
"1620 -867 LINE",
"1620 -742 LINE",
"1745 -742 LINE"
);
},
{
closed = 1;
nodes = (
"2294 1471 LINE",
"2169 1471 LINE",
"2169 1596 LINE",
"2294 1596 LINE"
);
},
{
closed = 1;
nodes = (
"1654 1447 LINE",
"1529 1447 LINE",
"1529 1572 LINE",
"1654 1572 LINE"
);
},
{
closed = 1;
nodes = (
"-862 -911 LINE",
"-987 -911 LINE",
"-987 -786 LINE",
"-862 -786 LINE"
);
},
{
closed = 1;
nodes = (
"1671 1640 LINE",
"1546 1640 LINE",
"1546 1765 LINE",
"1671 1765 LINE"
);
},
{
closed = 1;
nodes = (
"272 903 LINE",
"147 903 LINE",
"147 1028 LINE",
"272 1028 LINE"
);
},
{
closed = 1;
nodes = (
"-653 1141 LINE",
"-778 1141 LINE",
"-778 1266 LINE",
"-653 1266 LINE"
);
},
{
closed = 1;
nodes = (
"631 647 LINE",
"506 647 LINE",
"506 772 LINE",
"631 772 LINE"
);
},
{
closed = 1;
nodes = (
"-480 -680 LINE",
"-605 -680 LINE",
"-605 -555 LINE",
"-480 -555 LINE"
);
},
{
closed = 1;
nodes = (
"2417 435 LINE",
"2292 435 LINE",
"2292 560 LINE",
"2417 560 LINE"
);
},
{
closed = 1;
nodes = (
"819 -1297 LINE",
"694 -1297 LINE",
"694 -1172 LINE",
"819 -1172 LINE"
);
},
{
closed = 1;
nodes = (
"1757 594 LINE",
"1632 594 LINE",
"1632 719 LINE",
"1757 719 LINE"
);
},
{
closed = 1;
nodes = (
"-569 877 LINE",
"-694 877 LINE",
"-694 1002 LINE",
"-569 1002 LINE"
);
},
{
closed = 1;
nodes = (
"-162 1147 LINE",
"-287 1147 LINE",
"-287 1272 LINE",
"-162 1272 LINE"
);
},
{
closed = 1;
nodes = (
"-500 467 LINE",
"-625 467 LINE",
"-625 592 LINE",
"-500 592 LINE"
);
}
);
width = 1125;
}
);
note = six;
unicode = 0036;
},
{
glyphname = seven;
lastChange = "2021-07-12 13:17:18 +0000";
layers = (
{
layerId = "AC43567E-C337-40C0-B780-8BB3F06D1FA4";
paths = (
{
closed = 1;
nodes = (
"250 750 LINE",
"125 750 LINE",
"125 875 LINE",
"250 875 LINE"
);
},
{
closed = 1;
nodes = (
"375 750 LINE",
"250 750 LINE",
"250 875 LINE",
"375 875 LINE"
);
},
{
closed = 1;
nodes = (
"500 750 LINE",
"375 750 LINE",
"375 875 LINE",
"500 875 LINE"
);
},
{
closed = 1;
nodes = (
"625 750 LINE",
"500 750 LINE",
"500 875 LINE",
"625 875 LINE"
);
},
{
closed = 1;
nodes = (
"750 750 LINE",
"625 750 LINE",
"625 875 LINE",
"750 875 LINE"
);
},
{
closed = 1;
nodes = (
"875 750 LINE",
"750 750 LINE",
"750 875 LINE",
"875 875 LINE"
);
},
{
closed = 1;
nodes = (
"1000 750 LINE",
"875 750 LINE",
"875 875 LINE",
"1000 875 LINE"
);
},
{
closed = 1;
nodes = (
"250 625 LINE",
"125 625 LINE",
"125 750 LINE",
"250 750 LINE"
);
},
{
closed = 1;
nodes = (
"375 625 LINE",
"250 625 LINE",
"250 750 LINE",
"375 750 LINE"
);
},
{
closed = 1;
nodes = (
"875 625 LINE",
"750 625 LINE",
"750 750 LINE",
"875 750 LINE"
);
},
{
closed = 1;
nodes = (
"1000 625 LINE",
"875 625 LINE",
"875 750 LINE",
"1000 750 LINE"
);
},
{
closed = 1;
nodes = (
"750 500 LINE",
"625 500 LINE",
"625 625 LINE",
"750 625 LINE"
);
},
{
closed = 1;
nodes = (
"875 500 LINE",
"750 500 LINE",
"750 625 LINE",
"875 625 LINE"
);
},
{
closed = 1;
nodes = (
"625 375 LINE",
"500 375 LINE",
"500 500 LINE",
"625 500 LINE"
);
},
{
closed = 1;
nodes = (
"750 375 LINE",
"625 375 LINE",
"625 500 LINE",
"750 500 LINE"
);
},
{
closed = 1;
nodes = (
"500 250 LINE",
"375 250 LINE",
"375 375 LINE",
"500 375 LINE"
);
},
{
closed = 1;
nodes = (
"625 250 LINE",
"500 250 LINE",
"500 375 LINE",
"625 375 LINE"
);
},
{
closed = 1;
nodes = (
"500 125 LINE",
"375 125 LINE",
"375 250 LINE",
"500 250 LINE"
);
},
{
closed = 1;
nodes = (
"625 125 LINE",
"500 125 LINE",
"500 250 LINE",
"625 250 LINE"
);
},
{
closed = 1;
nodes = (
"500 0 LINE",
"375 0 LINE",
"375 125 LINE",
"500 125 LINE"
);
},
{
closed = 1;
nodes = (
"625 0 LINE",
"500 0 LINE",
"500 125 LINE",
"625 125 LINE"
);
}
);
width = 1125;
},
{
layerId = "2C46A1C2-E2B6-44B8-927E-E05F8288DB30";
paths = (
{
closed = 1;
nodes = (
"-34 -644 LINE",
"-159 -644 LINE",
"-159 -519 LINE",
"-34 -519 LINE"
);
},
{
closed = 1;
nodes = (
"218 1290 LINE",
"93 1290 LINE",
"93 1415 LINE",
"218 1415 LINE"
);
},
{
closed = 1;
nodes = (
"1628 -145 LINE",
"1503 -145 LINE",
"1503 -20 LINE",
"1628 -20 LINE"
);
},
{
closed = 1;
nodes = (
"382 458 LINE",
"257 458 LINE",
"257 583 LINE",
"382 583 LINE"
);
},
{
closed = 1;
nodes = (
"0 1185 LINE",
"-125 1185 LINE",
"-125 1310 LINE",
"0 1310 LINE"
);
},
{
closed = 1;
nodes = (
"-325 1077 LINE",
"-450 1077 LINE",
"-450 1202 LINE",
"-325 1202 LINE"
);
},
{
closed = 1;
nodes = (
"516 527 LINE",
"391 527 LINE",
"391 652 LINE",
"516 652 LINE"
);
},
{
closed = 1;
nodes = (
"32 -33 LINE",
"-93 -33 LINE",
"-93 92 LINE",
"32 92 LINE"
);
},
{
closed = 1;
nodes = (
"1826 1477 LINE",
"1701 1477 LINE",
"1701 1602 LINE",
"1826 1602 LINE"
);
},
{
closed = 1;
nodes = (
"1328 977 LINE",
"1203 977 LINE",
"1203 1102 LINE",
"1328 1102 LINE"
);
},
{
closed = 1;
nodes = (
"512 -842 LINE",
"387 -842 LINE",
"387 -717 LINE",
"512 -717 LINE"
);
},
{
closed = 1;
nodes = (
"2070 -58 LINE",
"1945 -58 LINE",
"1945 67 LINE",
"2070 67 LINE"
);
},
{
closed = 1;
nodes = (
"2309 999 LINE",
"2184 999 LINE",
"2184 1124 LINE",
"2309 1124 LINE"
);
},
{
closed = 1;
nodes = (
"-797 577 LINE",
"-922 577 LINE",
"-922 702 LINE",
"-797 702 LINE"
);
},
{
closed = 1;
nodes = (
"1390 751 LINE",
"1265 751 LINE",
"1265 876 LINE",
"1390 876 LINE"
);
},
{
closed = 1;
nodes = (
"1395 -375 LINE",
"1270 -375 LINE",
"1270 -250 LINE",
"1395 -250 LINE"
);
},
{
closed = 1;
nodes = (
"-801 920 LINE",
"-926 920 LINE",
"-926 1045 LINE",
"-801 1045 LINE"
);
},
{
closed = 1;
nodes = (
"-237 1567 LINE",
"-362 1567 LINE",
"-362 1692 LINE",
"-237 1692 LINE"
);
},
{
closed = 1;
nodes = (
"-638 437 LINE",
"-763 437 LINE",
"-763 562 LINE",
"-638 562 LINE"
);
},
{
closed = 1;
nodes = (
"1839 -162 LINE",
"1714 -162 LINE",
"1714 -37 LINE",
"1839 -37 LINE"
);
},
{
closed = 1;
nodes = (
"1670 -399 LINE",
"1545 -399 LINE",
"1545 -274 LINE",
"1670 -274 LINE"
);
}
);
width = 1125;
}
);
note = seven;
unicode = 0037;
},
{
glyphname = eight;
lastChange = "2021-07-12 13:17:18 +0000";
layers = (
{
layerId = "AC43567E-C337-40C0-B780-8BB3F06D1FA4";
paths = (
{
closed = 1;
nodes = (
"375 750 LINE",
"250 750 LINE",
"250 875 LINE",
"375 875 LINE"
);
},
{
closed = 1;
nodes = (
"500 750 LINE",
"375 750 LINE",
"375 875 LINE",
"500 875 LINE"
);
},
{
closed = 1;
nodes = (
"625 750 LINE",
"500 750 LINE",
"500 875 LINE",
"625 875 LINE"
);
},
{
closed = 1;
nodes = (
"750 750 LINE",
"625 750 LINE",
"625 875 LINE",
"750 875 LINE"
);
},
{
closed = 1;
nodes = (
"875 750 LINE",
"750 750 LINE",
"750 875 LINE",
"875 875 LINE"
);
},
{
closed = 1;
nodes = (
"250 625 LINE",
"125 625 LINE",
"125 750 LINE",
"250 750 LINE"
);
},
{
closed = 1;
nodes = (
"375 625 LINE",
"250 625 LINE",
"250 750 LINE",
"375 750 LINE"
);
},
{
closed = 1;
nodes = (
"875 625 LINE",
"750 625 LINE",
"750 750 LINE",
"875 750 LINE"
);
},
{
closed = 1;
nodes = (
"1000 625 LINE",
"875 625 LINE",
"875 750 LINE",
"1000 750 LINE"
);
},
{
closed = 1;
nodes = (
"250 500 LINE",
"125 500 LINE",
"125 625 LINE",
"250 625 LINE"
);
},
{
closed = 1;
nodes = (
"375 500 LINE",
"250 500 LINE",
"250 625 LINE",
"375 625 LINE"
);
},
{
closed = 1;
nodes = (
"875 500 LINE",
"750 500 LINE",
"750 625 LINE",
"875 625 LINE"
);
},
{
closed = 1;
nodes = (
"1000 500 LINE",
"875 500 LINE",
"875 625 LINE",
"1000 625 LINE"
);
},
{
closed = 1;
nodes = (
"375 375 LINE",
"250 375 LINE",
"250 500 LINE",
"375 500 LINE"
);
},
{
closed = 1;
nodes = (
"500 375 LINE",
"375 375 LINE",
"375 500 LINE",
"500 500 LINE"
);
},
{
closed = 1;
nodes = (
"625 375 LINE",
"500 375 LINE",
"500 500 LINE",
"625 500 LINE"
);
},
{
closed = 1;
nodes = (
"750 375 LINE",
"625 375 LINE",
"625 500 LINE",
"750 500 LINE"
);
},
{
closed = 1;
nodes = (
"875 375 LINE",
"750 375 LINE",
"750 500 LINE",
"875 500 LINE"
);
},
{
closed = 1;
nodes = (
"250 250 LINE",
"125 250 LINE",
"125 375 LINE",
"250 375 LINE"
);
},
{
closed = 1;
nodes = (
"375 250 LINE",
"250 250 LINE",
"250 375 LINE",
"375 375 LINE"
);
},
{
closed = 1;
nodes = (
"875 250 LINE",
"750 250 LINE",
"750 375 LINE",
"875 375 LINE"
);
},
{
closed = 1;
nodes = (
"1000 250 LINE",
"875 250 LINE",
"875 375 LINE",
"1000 375 LINE"
);
},
{
closed = 1;
nodes = (
"250 125 LINE",
"125 125 LINE",
"125 250 LINE",
"250 250 LINE"
);
},
{
closed = 1;
nodes = (
"375 125 LINE",
"250 125 LINE",
"250 250 LINE",
"375 250 LINE"
);
},
{
closed = 1;
nodes = (
"875 125 LINE",
"750 125 LINE",
"750 250 LINE",
"875 250 LINE"
);
},
{
closed = 1;
nodes = (
"1000 125 LINE",
"875 125 LINE",
"875 250 LINE",
"1000 250 LINE"
);
},
{
closed = 1;
nodes = (
"375 0 LINE",
"250 0 LINE",
"250 125 LINE",
"375 125 LINE"
);
},
{
closed = 1;
nodes = (
"500 0 LINE",
"375 0 LINE",
"375 125 LINE",
"500 125 LINE"
);
},
{
closed = 1;
nodes = (
"625 0 LINE",
"500 0 LINE",
"500 125 LINE",
"625 125 LINE"
);
},
{
closed = 1;
nodes = (
"750 0 LINE",
"625 0 LINE",
"625 125 LINE",
"750 125 LINE"
);
},
{
closed = 1;
nodes = (
"875 0 LINE",
"750 0 LINE",
"750 125 LINE",
"875 125 LINE"
);
}
);
width = 1125;
},
{
layerId = "2C46A1C2-E2B6-44B8-927E-E05F8288DB30";
paths = (
{
closed = 1;
nodes = (
"1004 2224 LINE",
"879 2224 LINE",
"879 2349 LINE",
"1004 2349 LINE"
);
},
{
closed = 1;
nodes = (
"-809 -514 LINE",
"-934 -514 LINE",
"-934 -389 LINE",
"-809 -389 LINE"
);
},
{
closed = 1;
nodes = (
"1970 1945 LINE",
"1845 1945 LINE",
"1845 2070 LINE",
"1970 2070 LINE"
);
},
{
closed = 1;
nodes = (
"2007 2169 LINE",
"1882 2169 LINE",
"1882 2294 LINE",
"2007 2294 LINE"
);
},
{
closed = 1;
nodes = (
"1037 1988 LINE",
"912 1988 LINE",
"912 2113 LINE",
"1037 2113 LINE"
);
},
{
closed = 1;
nodes = (
"636 418 LINE",
"511 418 LINE",
"511 543 LINE",
"636 543 LINE"
);
},
{
closed = 1;
nodes = (
"946 -699 LINE",
"821 -699 LINE",
"821 -574 LINE",
"946 -574 LINE"
);
},
{
closed = 1;
nodes = (
"1332 799 LINE",
"1207 799 LINE",
"1207 924 LINE",
"1332 924 LINE"
);
},
{
closed = 1;
nodes = (
"-195 457 LINE",
"-320 457 LINE",
"-320 582 LINE",
"-195 582 LINE"
);
},
{
closed = 1;
nodes = (
"-10 -14 LINE",
"-135 -14 LINE",
"-135 111 LINE",
"-10 111 LINE"
);
},
{
closed = 1;
nodes = (
"-577 -96 LINE",
"-702 -96 LINE",
"-702 29 LINE",
"-577 29 LINE"
);
},
{
closed = 1;
nodes = (
"1288 156 LINE",
"1163 156 LINE",
"1163 281 LINE",
"1288 281 LINE"
);
},
{
closed = 1;
nodes = (
"2250 1777 LINE",
"2125 1777 LINE",
"2125 1902 LINE",
"2250 1902 LINE"
);
},
{
closed = 1;
nodes = (
"-419 -659 LINE",
"-544 -659 LINE",
"-544 -534 LINE",
"-419 -534 LINE"
);
},
{
closed = 1;
nodes = (
"1984 1538 LINE",
"1859 1538 LINE",
"1859 1663 LINE",
"1984 1663 LINE"
);
},
{
closed = 1;
nodes = (
"1993 699 LINE",
"1868 699 LINE",
"1868 824 LINE",
"1993 824 LINE"
);
},
{
closed = 1;
nodes = (
"1214 809 LINE",
"1089 809 LINE",
"1089 934 LINE",
"1214 934 LINE"
);
},
{
closed = 1;
nodes = (
"-178 -100 LINE",
"-303 -100 LINE",
"-303 25 LINE",
"-178 25 LINE"
);
},
{
closed = 1;
nodes = (
"-1152 1297 LINE",
"-1277 1297 LINE",
"-1277 1422 LINE",
"-1152 1422 LINE"
);
},
{
closed = 1;
nodes = (
"1590 -1124 LINE",
"1465 -1124 LINE",
"1465 -999 LINE",
"1590 -999 LINE"
);
},
{
closed = 1;
nodes = (
"1091 -581 LINE",
"966 -581 LINE",
"966 -456 LINE",
"1091 -456 LINE"
);
},
{
closed = 1;
nodes = (
"-474 -103 LINE",
"-599 -103 LINE",
"-599 22 LINE",
"-474 22 LINE"
);
},
{
closed = 1;
nodes = (
"-688 462 LINE",
"-813 462 LINE",
"-813 587 LINE",
"-688 587 LINE"
);
},
{
closed = 1;
nodes = (
"1418 933 LINE",
"1293 933 LINE",
"1293 1058 LINE",
"1418 1058 LINE"
);
},
{
closed = 1;
nodes = (
"2322 -1315 LINE",
"2197 -1315 LINE",
"2197 -1190 LINE",
"2322 -1190 LINE"
);
},
{
closed = 1;
nodes = (
"2217 300 LINE",
"2092 300 LINE",
"2092 425 LINE",
"2217 425 LINE"
);
},
{
closed = 1;
nodes = (
"-346 1403 LINE",
"-471 1403 LINE",
"-471 1528 LINE",
"-346 1528 LINE"
);
},
{
closed = 1;
nodes = (
"1889 -1461 LINE",
"1764 -1461 LINE",
"1764 -1336 LINE",
"1889 -1336 LINE"
);
},
{
closed = 1;
nodes = (
"2057 280 LINE",
"1932 280 LINE",
"1932 405 LINE",
"2057 405 LINE"
);
},
{
closed = 1;
nodes = (
"1894 996 LINE",
"1769 996 LINE",
"1769 1121 LINE",
"1894 1121 LINE"
);
},
{
closed = 1;
nodes = (
"1609 -899 LINE",
"1484 -899 LINE",
"1484 -774 LINE",
"1609 -774 LINE"
);
}
);
width = 1125;
}
);
note = eight;
unicode = 0038;
},
{
glyphname = nine;
lastChange = "2021-07-12 13:17:18 +0000";
layers = (
{
layerId = "AC43567E-C337-40C0-B780-8BB3F06D1FA4";
paths = (
{
closed = 1;
nodes = (
"375 750 LINE",
"250 750 LINE",
"250 875 LINE",
"375 875 LINE"
);
},
{
closed = 1;
nodes = (
"500 750 LINE",
"375 750 LINE",
"375 875 LINE",
"500 875 LINE"
);
},
{
closed = 1;
nodes = (
"625 750 LINE",
"500 750 LINE",
"500 875 LINE",
"625 875 LINE"
);
},
{
closed = 1;
nodes = (
"750 750 LINE",
"625 750 LINE",
"625 875 LINE",
"750 875 LINE"
);
},
{
closed = 1;
nodes = (
"875 750 LINE",
"750 750 LINE",
"750 875 LINE",
"875 875 LINE"
);
},
{
closed = 1;
nodes = (
"250 625 LINE",
"125 625 LINE",
"125 750 LINE",
"250 750 LINE"
);
},
{
closed = 1;
nodes = (
"375 625 LINE",
"250 625 LINE",
"250 750 LINE",
"375 750 LINE"
);
},
{
closed = 1;
nodes = (
"875 625 LINE",
"750 625 LINE",
"750 750 LINE",
"875 750 LINE"
);
},
{
closed = 1;
nodes = (
"1000 625 LINE",
"875 625 LINE",
"875 750 LINE",
"1000 750 LINE"
);
},
{
closed = 1;
nodes = (
"250 500 LINE",
"125 500 LINE",
"125 625 LINE",
"250 625 LINE"
);
},
{
closed = 1;
nodes = (
"375 500 LINE",
"250 500 LINE",
"250 625 LINE",
"375 625 LINE"
);
},
{
closed = 1;
nodes = (
"875 500 LINE",
"750 500 LINE",
"750 625 LINE",
"875 625 LINE"
);
},
{
closed = 1;
nodes = (
"1000 500 LINE",
"875 500 LINE",
"875 625 LINE",
"1000 625 LINE"
);
},
{
closed = 1;
nodes = (
"375 375 LINE",
"250 375 LINE",
"250 500 LINE",
"375 500 LINE"
);
},
{
closed = 1;
nodes = (
"500 375 LINE",
"375 375 LINE",
"375 500 LINE",
"500 500 LINE"
);
},
{
closed = 1;
nodes = (
"625 375 LINE",
"500 375 LINE",
"500 500 LINE",
"625 500 LINE"
);
},
{
closed = 1;
nodes = (
"750 375 LINE",
"625 375 LINE",
"625 500 LINE",
"750 500 LINE"
);
},
{
closed = 1;
nodes = (
"875 375 LINE",
"750 375 LINE",
"750 500 LINE",
"875 500 LINE"
);
},
{
closed = 1;
nodes = (
"1000 375 LINE",
"875 375 LINE",
"875 500 LINE",
"1000 500 LINE"
);
},
{
closed = 1;
nodes = (
"875 250 LINE",
"750 250 LINE",
"750 375 LINE",
"875 375 LINE"
);
},
{
closed = 1;
nodes = (
"1000 250 LINE",
"875 250 LINE",
"875 375 LINE",
"1000 375 LINE"
);
},
{
closed = 1;
nodes = (
"750 125 LINE",
"625 125 LINE",
"625 250 LINE",
"750 250 LINE"
);
},
{
closed = 1;
nodes = (
"875 125 LINE",
"750 125 LINE",
"750 250 LINE",
"875 250 LINE"
);
},
{
closed = 1;
nodes = (
"375 0 LINE",
"250 0 LINE",
"250 125 LINE",
"375 125 LINE"
);
},
{
closed = 1;
nodes = (
"500 0 LINE",
"375 0 LINE",
"375 125 LINE",
"500 125 LINE"
);
},
{
closed = 1;
nodes = (
"625 0 LINE",
"500 0 LINE",
"500 125 LINE",
"625 125 LINE"
);
},
{
closed = 1;
nodes = (
"750 0 LINE",
"625 0 LINE",
"625 125 LINE",
"750 125 LINE"
);
}
);
width = 1125;
},
{
layerId = "2C46A1C2-E2B6-44B8-927E-E05F8288DB30";
paths = (
{
closed = 1;
nodes = (
"-187 1637 LINE",
"-312 1637 LINE",
"-312 1762 LINE",
"-187 1762 LINE"
);
},
{
closed = 1;
nodes = (
"-606 960 LINE",
"-731 960 LINE",
"-731 1085 LINE",
"-606 1085 LINE"
);
},
{
closed = 1;
nodes = (
"1264 1236 LINE",
"1139 1236 LINE",
"1139 1361 LINE",
"1264 1361 LINE"
);
},
{
closed = 1;
nodes = (
"83 922 LINE",
"-42 922 LINE",
"-42 1047 LINE",
"83 1047 LINE"
);
},
{
closed = 1;
nodes = (
"1052 969 LINE",
"927 969 LINE",
"927 1094 LINE",
"1052 1094 LINE"
);
},
{
closed = 1;
nodes = (
"-1161 -140 LINE",
"-1286 -140 LINE",
"-1286 -15 LINE",
"-1161 -15 LINE"
);
},
{
closed = 1;
nodes = (
"-512 946 LINE",
"-637 946 LINE",
"-637 1071 LINE",
"-512 1071 LINE"
);
},
{
closed = 1;
nodes = (
"-408 1765 LINE",
"-533 1765 LINE",
"-533 1890 LINE",
"-408 1890 LINE"
);
},
{
closed = 1;
nodes = (
"-214 -768 LINE",
"-339 -768 LINE",
"-339 -643 LINE",
"-214 -643 LINE"
);
},
{
closed = 1;
nodes = (
"-73 33 LINE",
"-198 33 LINE",
"-198 158 LINE",
"-73 158 LINE"
);
},
{
closed = 1;
nodes = (
"-954 1708 LINE",
"-1079 1708 LINE",
"-1079 1833 LINE",
"-954 1833 LINE"
);
},
{
closed = 1;
nodes = (
"2317 945 LINE",
"2192 945 LINE",
"2192 1070 LINE",
"2317 1070 LINE"
);
},
{
closed = 1;
nodes = (
"-458 1238 LINE",
"-583 1238 LINE",
"-583 1363 LINE",
"-458 1363 LINE"
);
},
{
closed = 1;
nodes = (
"564 1848 LINE",
"439 1848 LINE",
"439 1973 LINE",
"564 1973 LINE"
);
},
{
closed = 1;
nodes = (
"1258 1150 LINE",
"1133 1150 LINE",
"1133 1275 LINE",
"1258 1275 LINE"
);
},
{
closed = 1;
nodes = (
"1369 199 LINE",
"1244 199 LINE",
"1244 324 LINE",
"1369 324 LINE"
);
},
{
closed = 1;
nodes = (
"1938 -1067 LINE",
"1813 -1067 LINE",
"1813 -942 LINE",
"1938 -942 LINE"
);
},
{
closed = 1;
nodes = (
"1257 1686 LINE",
"1132 1686 LINE",
"1132 1811 LINE",
"1257 1811 LINE"
);
},
{
closed = 1;
nodes = (
"1239 1587 LINE",
"1114 1587 LINE",
"1114 1712 LINE",
"1239 1712 LINE"
);
},
{
closed = 1;
nodes = (
"1465 -927 LINE",
"1340 -927 LINE",
"1340 -802 LINE",
"1465 -802 LINE"
);
},
{
closed = 1;
nodes = (
"1378 1123 LINE",
"1253 1123 LINE",
"1253 1248 LINE",
"1378 1248 LINE"
);
},
{
closed = 1;
nodes = (
"975 897 LINE",
"850 897 LINE",
"850 1022 LINE",
"975 1022 LINE"
);
},
{
closed = 1;
nodes = (
"221 1215 LINE",
"96 1215 LINE",
"96 1340 LINE",
"221 1340 LINE"
);
},
{
closed = 1;
nodes = (
"638 -1080 LINE",
"513 -1080 LINE",
"513 -955 LINE",
"638 -955 LINE"
);
},
{
closed = 1;
nodes = (
"1319 -226 LINE",
"1194 -226 LINE",
"1194 -101 LINE",
"1319 -101 LINE"
);
},
{
closed = 1;
nodes = (
"159 1366 LINE",
"34 1366 LINE",
"34 1491 LINE",
"159 1491 LINE"
);
},
{
closed = 1;
nodes = (
"1674 168 LINE",
"1549 168 LINE",
"1549 293 LINE",
"1674 293 LINE"
);
}
);
width = 1125;
}
);
note = nine;
unicode = 0039;
},
{
glyphname = exclam;
lastChange = "2021-07-12 13:17:18 +0000";
layers = (
{
layerId = "AC43567E-C337-40C0-B780-8BB3F06D1FA4";
paths = (
{
closed = 1;
nodes = (
"625 750 LINE",
"500 750 LINE",
"500 875 LINE",
"625 875 LINE"
);
},
{
closed = 1;
nodes = (
"750 750 LINE",
"625 750 LINE",
"625 875 LINE",
"750 875 LINE"
);
},
{
closed = 1;
nodes = (
"500 625 LINE",
"375 625 LINE",
"375 750 LINE",
"500 750 LINE"
);
},
{
closed = 1;
nodes = (
"625 625 LINE",
"500 625 LINE",
"500 750 LINE",
"625 750 LINE"
);
},
{
closed = 1;
nodes = (
"750 625 LINE",
"625 625 LINE",
"625 750 LINE",
"750 750 LINE"
);
},
{
closed = 1;
nodes = (
"875 625 LINE",
"750 625 LINE",
"750 750 LINE",
"875 750 LINE"
);
},
{
closed = 1;
nodes = (
"500 500 LINE",
"375 500 LINE",
"375 625 LINE",
"500 625 LINE"
);
},
{
closed = 1;
nodes = (
"625 500 LINE",
"500 500 LINE",
"500 625 LINE",
"625 625 LINE"
);
},
{
closed = 1;
nodes = (
"750 500 LINE",
"625 500 LINE",
"625 625 LINE",
"750 625 LINE"
);
},
{
closed = 1;
nodes = (
"875 500 LINE",
"750 500 LINE",
"750 625 LINE",
"875 625 LINE"
);
},
{
closed = 1;
nodes = (
"625 375 LINE",
"500 375 LINE",
"500 500 LINE",
"625 500 LINE"
);
},
{
closed = 1;
nodes = (
"750 375 LINE",
"625 375 LINE",
"625 500 LINE",
"750 500 LINE"
);
},
{
closed = 1;
nodes = (
"625 250 LINE",
"500 250 LINE",
"500 375 LINE",
"625 375 LINE"
);
},
{
closed = 1;
nodes = (
"750 250 LINE",
"625 250 LINE",
"625 375 LINE",
"750 375 LINE"
);
},
{
closed = 1;
nodes = (
"625 0 LINE",
"500 0 LINE",
"500 125 LINE",
"625 125 LINE"
);
},
{
closed = 1;
nodes = (
"750 0 LINE",
"625 0 LINE",
"625 125 LINE",
"750 125 LINE"
);
}
);
width = 1000;
},
{
layerId = "2C46A1C2-E2B6-44B8-927E-E05F8288DB30";
paths = (
{
closed = 1;
nodes = (
"-57 -308 LINE",
"-182 -308 LINE",
"-182 -183 LINE",
"-57 -183 LINE"
);
},
{
closed = 1;
nodes = (
"1592 1870 LINE",
"1467 1870 LINE",
"1467 1995 LINE",
"1592 1995 LINE"
);
},
{
closed = 1;
nodes = (
"1620 1980 LINE",
"1495 1980 LINE",
"1495 2105 LINE",
"1620 2105 LINE"
);
},
{
closed = 1;
nodes = (
"-63 -781 LINE",
"-188 -781 LINE",
"-188 -656 LINE",
"-63 -656 LINE"
);
},
{
closed = 1;
nodes = (
"890 -191 LINE",
"765 -191 LINE",
"765 -66 LINE",
"890 -66 LINE"
);
},
{
closed = 1;
nodes = (
"719 1410 LINE",
"594 1410 LINE",
"594 1535 LINE",
"719 1535 LINE"
);
},
{
closed = 1;
nodes = (
"122 1903 LINE",
"-3 1903 LINE",
"-3 2028 LINE",
"122 2028 LINE"
);
},
{
closed = 1;
nodes = (
"-11 801 LINE",
"-136 801 LINE",
"-136 926 LINE",
"-11 926 LINE"
);
},
{
closed = 1;
nodes = (
"1605 -297 LINE",
"1480 -297 LINE",
"1480 -172 LINE",
"1605 -172 LINE"
);
},
{
closed = 1;
nodes = (
"-96 -828 LINE",
"-221 -828 LINE",
"-221 -703 LINE",
"-96 -703 LINE"
);
},
{
closed = 1;
nodes = (
"-695 921 LINE",
"-820 921 LINE",
"-820 1046 LINE",
"-695 1046 LINE"
);
},
{
closed = 1;
nodes = (
"-237 846 LINE",
"-362 846 LINE",
"-362 971 LINE",
"-237 971 LINE"
);
},
{
closed = 1;
nodes = (
"-50 -184 LINE",
"-175 -184 LINE",
"-175 -59 LINE",
"-50 -59 LINE"
);
},
{
closed = 1;
nodes = (
"266 -1137 LINE",
"141 -1137 LINE",
"141 -1012 LINE",
"266 -1012 LINE"
);
},
{
closed = 1;
nodes = (
"1691 1098 LINE",
"1566 1098 LINE",
"1566 1223 LINE",
"1691 1223 LINE"
);
},
{
closed = 1;
nodes = (
"412 -1224 LINE",
"287 -1224 LINE",
"287 -1099 LINE",
"412 -1099 LINE"
);
}
);
width = 1000;
}
);
note = exclam;
unicode = 0021;
},
{
glyphname = quotedbl;
lastChange = "2021-07-12 13:17:18 +0000";
layers = (
{
layerId = "AC43567E-C337-40C0-B780-8BB3F06D1FA4";
paths = (
{
closed = 1;
nodes = (
"375 750 LINE",
"250 750 LINE",
"250 875 LINE",
"375 875 LINE"
);
},
{
closed = 1;
nodes = (
"500 750 LINE",
"375 750 LINE",
"375 875 LINE",
"500 875 LINE"
);
},
{
closed = 1;
nodes = (
"875 750 LINE",
"750 750 LINE",
"750 875 LINE",
"875 875 LINE"
);
},
{
closed = 1;
nodes = (
"1000 750 LINE",
"875 750 LINE",
"875 875 LINE",
"1000 875 LINE"
);
},
{
closed = 1;
nodes = (
"375 625 LINE",
"250 625 LINE",
"250 750 LINE",
"375 750 LINE"
);
},
{
closed = 1;
nodes = (
"500 625 LINE",
"375 625 LINE",
"375 750 LINE",
"500 750 LINE"
);
},
{
closed = 1;
nodes = (
"875 625 LINE",
"750 625 LINE",
"750 750 LINE",
"875 750 LINE"
);
},
{
closed = 1;
nodes = (
"1000 625 LINE",
"875 625 LINE",
"875 750 LINE",
"1000 750 LINE"
);
},
{
closed = 1;
nodes = (
"500 500 LINE",
"375 500 LINE",
"375 625 LINE",
"500 625 LINE"
);
},
{
closed = 1;
nodes = (
"875 500 LINE",
"750 500 LINE",
"750 625 LINE",
"875 625 LINE"
);
}
);
width = 1125;
},
{
layerId = "2C46A1C2-E2B6-44B8-927E-E05F8288DB30";
paths = (
{
closed = 1;
nodes = (
"1771 1367 LINE",
"1646 1367 LINE",
"1646 1492 LINE",
"1771 1492 LINE"
);
},
{
closed = 1;
nodes = (
"990 1039 LINE",
"865 1039 LINE",
"865 1164 LINE",
"990 1164 LINE"
);
},
{
closed = 1;
nodes = (
"186 560 LINE",
"61 560 LINE",
"61 685 LINE",
"186 685 LINE"
);
},
{
closed = 1;
nodes = (
"1752 -60 LINE",
"1627 -60 LINE",
"1627 65 LINE",
"1752 65 LINE"
);
},
{
closed = 1;
nodes = (
"1862 -601 LINE",
"1737 -601 LINE",
"1737 -476 LINE",
"1862 -476 LINE"
);
},
{
closed = 1;
nodes = (
"1161 -39 LINE",
"1036 -39 LINE",
"1036 86 LINE",
"1161 86 LINE"
);
},
{
closed = 1;
nodes = (
"89 1199 LINE",
"-36 1199 LINE",
"-36 1324 LINE",
"89 1324 LINE"
);
},
{
closed = 1;
nodes = (
"140 770 LINE",
"15 770 LINE",
"15 895 LINE",
"140 895 LINE"
);
},
{
closed = 1;
nodes = (
"-181 -847 LINE",
"-306 -847 LINE",
"-306 -722 LINE",
"-181 -722 LINE"
);
},
{
closed = 1;
nodes = (
"176 1199 LINE",
"51 1199 LINE",
"51 1324 LINE",
"176 1324 LINE"
);
}
);
width = 1125;
}
);
note = quotedbl;
unicode = 0022;
},
{
glyphname = numbersign;
lastChange = "2021-07-12 13:17:18 +0000";
layers = (
{
layerId = "AC43567E-C337-40C0-B780-8BB3F06D1FA4";
paths = (
{
closed = 1;
nodes = (
"375 750 LINE",
"250 750 LINE",
"250 875 LINE",
"375 875 LINE"
);
},
{
closed = 1;
nodes = (
"500 750 LINE",
"375 750 LINE",
"375 875 LINE",
"500 875 LINE"
);
},
{
closed = 1;
nodes = (
"750 750 LINE",
"625 750 LINE",
"625 875 LINE",
"750 875 LINE"
);
},
{
closed = 1;
nodes = (
"875 750 LINE",
"750 750 LINE",
"750 875 LINE",
"875 875 LINE"
);
},
{
closed = 1;
nodes = (
"375 625 LINE",
"250 625 LINE",
"250 750 LINE",
"375 750 LINE"
);
},
{
closed = 1;
nodes = (
"500 625 LINE",
"375 625 LINE",
"375 750 LINE",
"500 750 LINE"
);
},
{
closed = 1;
nodes = (
"750 625 LINE",
"625 625 LINE",
"625 750 LINE",
"750 750 LINE"
);
},
{
closed = 1;
nodes = (
"875 625 LINE",
"750 625 LINE",
"750 750 LINE",
"875 750 LINE"
);
},
{
closed = 1;
nodes = (
"250 500 LINE",
"125 500 LINE",
"125 625 LINE",
"250 625 LINE"
);
},
{
closed = 1;
nodes = (
"375 500 LINE",
"250 500 LINE",
"250 625 LINE",
"375 625 LINE"
);
},
{
closed = 1;
nodes = (
"500 500 LINE",
"375 500 LINE",
"375 625 LINE",
"500 625 LINE"
);
},
{
closed = 1;
nodes = (
"625 500 LINE",
"500 500 LINE",
"500 625 LINE",
"625 625 LINE"
);
},
{
closed = 1;
nodes = (
"750 500 LINE",
"625 500 LINE",
"625 625 LINE",
"750 625 LINE"
);
},
{
closed = 1;
nodes = (
"875 500 LINE",
"750 500 LINE",
"750 625 LINE",
"875 625 LINE"
);
},
{
closed = 1;
nodes = (
"1000 500 LINE",
"875 500 LINE",
"875 625 LINE",
"1000 625 LINE"
);
},
{
closed = 1;
nodes = (
"375 375 LINE",
"250 375 LINE",
"250 500 LINE",
"375 500 LINE"
);
},
{
closed = 1;
nodes = (
"500 375 LINE",
"375 375 LINE",
"375 500 LINE",
"500 500 LINE"
);
},
{
closed = 1;
nodes = (
"750 375 LINE",
"625 375 LINE",
"625 500 LINE",
"750 500 LINE"
);
},
{
closed = 1;
nodes = (
"875 375 LINE",
"750 375 LINE",
"750 500 LINE",
"875 500 LINE"
);
},
{
closed = 1;
nodes = (
"250 250 LINE",
"125 250 LINE",
"125 375 LINE",
"250 375 LINE"
);
},
{
closed = 1;
nodes = (
"375 250 LINE",
"250 250 LINE",
"250 375 LINE",
"375 375 LINE"
);
},
{
closed = 1;
nodes = (
"500 250 LINE",
"375 250 LINE",
"375 375 LINE",
"500 375 LINE"
);
},
{
closed = 1;
nodes = (
"625 250 LINE",
"500 250 LINE",
"500 375 LINE",
"625 375 LINE"
);
},
{
closed = 1;
nodes = (
"750 250 LINE",
"625 250 LINE",
"625 375 LINE",
"750 375 LINE"
);
},
{
closed = 1;
nodes = (
"875 250 LINE",
"750 250 LINE",
"750 375 LINE",
"875 375 LINE"
);
},
{
closed = 1;
nodes = (
"1000 250 LINE",
"875 250 LINE",
"875 375 LINE",
"1000 375 LINE"
);
},
{
closed = 1;
nodes = (
"375 125 LINE",
"250 125 LINE",
"250 250 LINE",
"375 250 LINE"
);
},
{
closed = 1;
nodes = (
"500 125 LINE",
"375 125 LINE",
"375 250 LINE",
"500 250 LINE"
);
},
{
closed = 1;
nodes = (
"750 125 LINE",
"625 125 LINE",
"625 250 LINE",
"750 250 LINE"
);
},
{
closed = 1;
nodes = (
"875 125 LINE",
"750 125 LINE",
"750 250 LINE",
"875 250 LINE"
);
},
{
closed = 1;
nodes = (
"375 0 LINE",
"250 0 LINE",
"250 125 LINE",
"375 125 LINE"
);
},
{
closed = 1;
nodes = (
"500 0 LINE",
"375 0 LINE",
"375 125 LINE",
"500 125 LINE"
);
},
{
closed = 1;
nodes = (
"750 0 LINE",
"625 0 LINE",
"625 125 LINE",
"750 125 LINE"
);
},
{
closed = 1;
nodes = (
"875 0 LINE",
"750 0 LINE",
"750 125 LINE",
"875 125 LINE"
);
}
);
width = 1125;
},
{
layerId = "2C46A1C2-E2B6-44B8-927E-E05F8288DB30";
paths = (
{
closed = 1;
nodes = (
"753 1086 LINE",
"628 1086 LINE",
"628 1211 LINE",
"753 1211 LINE"
);
},
{
closed = 1;
nodes = (
"1484 1864 LINE",
"1359 1864 LINE",
"1359 1989 LINE",
"1484 1989 LINE"
);
},
{
closed = 1;
nodes = (
"-262 -628 LINE",
"-387 -628 LINE",
"-387 -503 LINE",
"-262 -503 LINE"
);
},
{
closed = 1;
nodes = (
"-547 363 LINE",
"-672 363 LINE",
"-672 488 LINE",
"-547 488 LINE"
);
},
{
closed = 1;
nodes = (
"-376 152 LINE",
"-501 152 LINE",
"-501 277 LINE",
"-376 277 LINE"
);
},
{
closed = 1;
nodes = (
"1393 1648 LINE",
"1268 1648 LINE",
"1268 1773 LINE",
"1393 1773 LINE"
);
},
{
closed = 1;
nodes = (
"1704 1892 LINE",
"1579 1892 LINE",
"1579 2017 LINE",
"1704 2017 LINE"
);
},
{
closed = 1;
nodes = (
"-152 1359 LINE",
"-277 1359 LINE",
"-277 1484 LINE",
"-152 1484 LINE"
);
},
{
closed = 1;
nodes = (
"918 367 LINE",
"793 367 LINE",
"793 492 LINE",
"918 492 LINE"
);
},
{
closed = 1;
nodes = (
"225 -558 LINE",
"100 -558 LINE",
"100 -433 LINE",
"225 -433 LINE"
);
},
{
closed = 1;
nodes = (
"1057 1105 LINE",
"932 1105 LINE",
"932 1230 LINE",
"1057 1230 LINE"
);
},
{
closed = 1;
nodes = (
"-632 1958 LINE",
"-757 1958 LINE",
"-757 2083 LINE",
"-632 2083 LINE"
);
},
{
closed = 1;
nodes = (
"321 1407 LINE",
"196 1407 LINE",
"196 1532 LINE",
"321 1532 LINE"
);
},
{
closed = 1;
nodes = (
"320 680 LINE",
"195 680 LINE",
"195 805 LINE",
"320 805 LINE"
);
},
{
closed = 1;
nodes = (
"1388 -454 LINE",
"1263 -454 LINE",
"1263 -329 LINE",
"1388 -329 LINE"
);
},
{
closed = 1;
nodes = (
"-511 -203 LINE",
"-636 -203 LINE",
"-636 -78 LINE",
"-511 -78 LINE"
);
},
{
closed = 1;
nodes = (
"297 -116 LINE",
"172 -116 LINE",
"172 9 LINE",
"297 9 LINE"
);
},
{
closed = 1;
nodes = (
"36 537 LINE",
"-89 537 LINE",
"-89 662 LINE",
"36 662 LINE"
);
},
{
closed = 1;
nodes = (
"152 220 LINE",
"27 220 LINE",
"27 345 LINE",
"152 345 LINE"
);
},
{
closed = 1;
nodes = (
"1388 935 LINE",
"1263 935 LINE",
"1263 1060 LINE",
"1388 1060 LINE"
);
},
{
closed = 1;
nodes = (
"-224 -210 LINE",
"-349 -210 LINE",
"-349 -85 LINE",
"-224 -85 LINE"
);
},
{
closed = 1;
nodes = (
"838 -1249 LINE",
"713 -1249 LINE",
"713 -1124 LINE",
"838 -1124 LINE"
);
},
{
closed = 1;
nodes = (
"1540 -207 LINE",
"1415 -207 LINE",
"1415 -82 LINE",
"1540 -82 LINE"
);
},
{
closed = 1;
nodes = (
"-361 -823 LINE",
"-486 -823 LINE",
"-486 -698 LINE",
"-361 -698 LINE"
);
},
{
closed = 1;
nodes = (
"1054 55 LINE",
"929 55 LINE",
"929 180 LINE",
"1054 180 LINE"
);
},
{
closed = 1;
nodes = (
"1550 -763 LINE",
"1425 -763 LINE",
"1425 -638 LINE",
"1550 -638 LINE"
);
},
{
closed = 1;
nodes = (
"828 1277 LINE",
"703 1277 LINE",
"703 1402 LINE",
"828 1402 LINE"
);
},
{
closed = 1;
nodes = (
"1258 -1310 LINE",
"1133 -1310 LINE",
"1133 -1185 LINE",
"1258 -1185 LINE"
);
},
{
closed = 1;
nodes = (
"1028 -846 LINE",
"903 -846 LINE",
"903 -721 LINE",
"1028 -721 LINE"
);
},
{
closed = 1;
nodes = (
"-506 589 LINE",
"-631 589 LINE",
"-631 714 LINE",
"-506 714 LINE"
);
},
{
closed = 1;
nodes = (
"-348 -585 LINE",
"-473 -585 LINE",
"-473 -460 LINE",
"-348 -460 LINE"
);
},
{
closed = 1;
nodes = (
"139 -801 LINE",
"14 -801 LINE",
"14 -676 LINE",
"139 -676 LINE"
);
},
{
closed = 1;
nodes = (
"-548 1424 LINE",
"-673 1424 LINE",
"-673 1549 LINE",
"-548 1549 LINE"
);
},
{
closed = 1;
nodes = (
"2352 -403 LINE",
"2227 -403 LINE",
"2227 -278 LINE",
"2352 -278 LINE"
);
}
);
width = 1125;
}
);
note = numbersign;
unicode = 0023;
},
{
glyphname = dollar;
lastChange = "2021-07-12 13:17:18 +0000";
layers = (
{
layerId = "AC43567E-C337-40C0-B780-8BB3F06D1FA4";
paths = (
{
closed = 1;
nodes = (
"625 750 LINE",
"500 750 LINE",
"500 875 LINE",
"625 875 LINE"
);
},
{
closed = 1;
nodes = (
"750 750 LINE",
"625 750 LINE",
"625 875 LINE",
"750 875 LINE"
);
},
{
closed = 1;
nodes = (
"500 625 LINE",
"375 625 LINE",
"375 750 LINE",
"500 750 LINE"
);
},
{
closed = 1;
nodes = (
"625 625 LINE",
"500 625 LINE",
"500 750 LINE",
"625 750 LINE"
);
},
{
closed = 1;
nodes = (
"750 625 LINE",
"625 625 LINE",
"625 750 LINE",
"750 750 LINE"
);
},
{
closed = 1;
nodes = (
"875 625 LINE",
"750 625 LINE",
"750 750 LINE",
"875 750 LINE"
);
},
{
closed = 1;
nodes = (
"1000 625 LINE",
"875 625 LINE",
"875 750 LINE",
"1000 750 LINE"
);
},
{
closed = 1;
nodes = (
"375 500 LINE",
"250 500 LINE",
"250 625 LINE",
"375 625 LINE"
);
},
{
closed = 1;
nodes = (
"500 500 LINE",
"375 500 LINE",
"375 625 LINE",
"500 625 LINE"
);
},
{
closed = 1;
nodes = (
"500 375 LINE",
"375 375 LINE",
"375 500 LINE",
"500 500 LINE"
);
},
{
closed = 1;
nodes = (
"625 375 LINE",
"500 375 LINE",
"500 500 LINE",
"625 500 LINE"
);
},
{
closed = 1;
nodes = (
"750 375 LINE",
"625 375 LINE",
"625 500 LINE",
"750 500 LINE"
);
},
{
closed = 1;
nodes = (
"875 375 LINE",
"750 375 LINE",
"750 500 LINE",
"875 500 LINE"
);
},
{
closed = 1;
nodes = (
"875 250 LINE",
"750 250 LINE",
"750 375 LINE",
"875 375 LINE"
);
},
{
closed = 1;
nodes = (
"1000 250 LINE",
"875 250 LINE",
"875 375 LINE",
"1000 375 LINE"
);
},
{
closed = 1;
nodes = (
"375 125 LINE",
"250 125 LINE",
"250 250 LINE",
"375 250 LINE"
);
},
{
closed = 1;
nodes = (
"500 125 LINE",
"375 125 LINE",
"375 250 LINE",
"500 250 LINE"
);
},
{
closed = 1;
nodes = (
"625 125 LINE",
"500 125 LINE",
"500 250 LINE",
"625 250 LINE"
);
},
{
closed = 1;
nodes = (
"750 125 LINE",
"625 125 LINE",
"625 250 LINE",
"750 250 LINE"
);
},
{
closed = 1;
nodes = (
"875 125 LINE",
"750 125 LINE",
"750 250 LINE",
"875 250 LINE"
);
},
{
closed = 1;
nodes = (
"625 0 LINE",
"500 0 LINE",
"500 125 LINE",
"625 125 LINE"
);
},
{
closed = 1;
nodes = (
"750 0 LINE",
"625 0 LINE",
"625 125 LINE",
"750 125 LINE"
);
}
);
width = 1125;
},
{
layerId = "2C46A1C2-E2B6-44B8-927E-E05F8288DB30";
paths = (
{
closed = 1;
nodes = (
"832 190 LINE",
"707 190 LINE",
"707 315 LINE",
"832 315 LINE"
);
},
{
closed = 1;
nodes = (
"-179 -368 LINE",
"-304 -368 LINE",
"-304 -243 LINE",
"-179 -243 LINE"
);
},
{
closed = 1;
nodes = (
"372 -529 LINE",
"247 -529 LINE",
"247 -404 LINE",
"372 -404 LINE"
);
},
{
closed = 1;
nodes = (
"795 1384 LINE",
"670 1384 LINE",
"670 1509 LINE",
"795 1509 LINE"
);
},
{
closed = 1;
nodes = (
"55 -766 LINE",
"-70 -766 LINE",
"-70 -641 LINE",
"55 -641 LINE"
);
},
{
closed = 1;
nodes = (
"1823 -183 LINE",
"1698 -183 LINE",
"1698 -58 LINE",
"1823 -58 LINE"
);
},
{
closed = 1;
nodes = (
"-7 1305 LINE",
"-132 1305 LINE",
"-132 1430 LINE",
"-7 1430 LINE"
);
},
{
closed = 1;
nodes = (
"-141 1976 LINE",
"-266 1976 LINE",
"-266 2101 LINE",
"-141 2101 LINE"
);
},
{
closed = 1;
nodes = (
"-24 79 LINE",
"-149 79 LINE",
"-149 204 LINE",
"-24 204 LINE"
);
},
{
closed = 1;
nodes = (
"761 866 LINE",
"636 866 LINE",
"636 991 LINE",
"761 991 LINE"
);
},
{
closed = 1;
nodes = (
"-82 676 LINE",
"-207 676 LINE",
"-207 801 LINE",
"-82 801 LINE"
);
},
{
closed = 1;
nodes = (
"414 1724 LINE",
"289 1724 LINE",
"289 1849 LINE",
"414 1849 LINE"
);
},
{
closed = 1;
nodes = (
"2134 81 LINE",
"2009 81 LINE",
"2009 206 LINE",
"2134 206 LINE"
);
},
{
closed = 1;
nodes = (
"1313 1427 LINE",
"1188 1427 LINE",
"1188 1552 LINE",
"1313 1552 LINE"
);
},
{
closed = 1;
nodes = (
"2073 761 LINE",
"1948 761 LINE",
"1948 886 LINE",
"2073 886 LINE"
);
},
{
closed = 1;
nodes = (
"233 1137 LINE",
"108 1137 LINE",
"108 1262 LINE",
"233 1262 LINE"
);
},
{
closed = 1;
nodes = (
"690 -1202 LINE",
"565 -1202 LINE",
"565 -1077 LINE",
"690 -1077 LINE"
);
},
{
closed = 1;
nodes = (
"795 800 LINE",
"670 800 LINE",
"670 925 LINE",
"795 925 LINE"
);
},
{
closed = 1;
nodes = (
"2112 684 LINE",
"1987 684 LINE",
"1987 809 LINE",
"2112 809 LINE"
);
},
{
closed = 1;
nodes = (
"48 -810 LINE",
"-77 -810 LINE",
"-77 -685 LINE",
"48 -685 LINE"
);
},
{
closed = 1;
nodes = (
"1395 388 LINE",
"1270 388 LINE",
"1270 513 LINE",
"1395 513 LINE"
);
},
{
closed = 1;
nodes = (
"583 921 LINE",
"458 921 LINE",
"458 1046 LINE",
"583 1046 LINE"
);
}
);
width = 1125;
}
);
note = dollar;
unicode = 0024;
},
{
glyphname = percent;
lastChange = "2021-07-12 13:17:18 +0000";
layers = (
{
layerId = "AC43567E-C337-40C0-B780-8BB3F06D1FA4";
paths = (
{
closed = 1;
nodes = (
"250 625 LINE",
"125 625 LINE",
"125 750 LINE",
"250 750 LINE"
);
},
{
closed = 1;
nodes = (
"375 625 LINE",
"250 625 LINE",
"250 750 LINE",
"375 750 LINE"
);
},
{
closed = 1;
nodes = (
"875 625 LINE",
"750 625 LINE",
"750 750 LINE",
"875 750 LINE"
);
},
{
closed = 1;
nodes = (
"1000 625 LINE",
"875 625 LINE",
"875 750 LINE",
"1000 750 LINE"
);
},
{
closed = 1;
nodes = (
"250 500 LINE",
"125 500 LINE",
"125 625 LINE",
"250 625 LINE"
);
},
{
closed = 1;
nodes = (
"375 500 LINE",
"250 500 LINE",
"250 625 LINE",
"375 625 LINE"
);
},
{
closed = 1;
nodes = (
"750 500 LINE",
"625 500 LINE",
"625 625 LINE",
"750 625 LINE"
);
},
{
closed = 1;
nodes = (
"875 500 LINE",
"750 500 LINE",
"750 625 LINE",
"875 625 LINE"
);
},
{
closed = 1;
nodes = (
"625 375 LINE",
"500 375 LINE",
"500 500 LINE",
"625 500 LINE"
);
},
{
closed = 1;
nodes = (
"750 375 LINE",
"625 375 LINE",
"625 500 LINE",
"750 500 LINE"
);
},
{
closed = 1;
nodes = (
"500 250 LINE",
"375 250 LINE",
"375 375 LINE",
"500 375 LINE"
);
},
{
closed = 1;
nodes = (
"625 250 LINE",
"500 250 LINE",
"500 375 LINE",
"625 375 LINE"
);
},
{
closed = 1;
nodes = (
"375 125 LINE",
"250 125 LINE",
"250 250 LINE",
"375 250 LINE"
);
},
{
closed = 1;
nodes = (
"500 125 LINE",
"375 125 LINE",
"375 250 LINE",
"500 250 LINE"
);
},
{
closed = 1;
nodes = (
"875 125 LINE",
"750 125 LINE",
"750 250 LINE",
"875 250 LINE"
);
},
{
closed = 1;
nodes = (
"1000 125 LINE",
"875 125 LINE",
"875 250 LINE",
"1000 250 LINE"
);
},
{
closed = 1;
nodes = (
"250 0 LINE",
"125 0 LINE",
"125 125 LINE",
"250 125 LINE"
);
},
{
closed = 1;
nodes = (
"375 0 LINE",
"250 0 LINE",
"250 125 LINE",
"375 125 LINE"
);
},
{
closed = 1;
nodes = (
"875 0 LINE",
"750 0 LINE",
"750 125 LINE",
"875 125 LINE"
);
},
{
closed = 1;
nodes = (
"1000 0 LINE",
"875 0 LINE",
"875 125 LINE",
"1000 125 LINE"
);
}
);
width = 1125;
},
{
layerId = "2C46A1C2-E2B6-44B8-927E-E05F8288DB30";
paths = (
{
closed = 1;
nodes = (
"630 -577 LINE",
"505 -577 LINE",
"505 -452 LINE",
"630 -452 LINE"
);
},
{
closed = 1;
nodes = (
"581 -399 LINE",
"456 -399 LINE",
"456 -274 LINE",
"581 -274 LINE"
);
},
{
closed = 1;
nodes = (
"726 378 LINE",
"601 378 LINE",
"601 503 LINE",
"726 503 LINE"
);
},
{
closed = 1;
nodes = (
"107 -644 LINE",
"-18 -644 LINE",
"-18 -519 LINE",
"107 -519 LINE"
);
},
{
closed = 1;
nodes = (
"741 804 LINE",
"616 804 LINE",
"616 929 LINE",
"741 929 LINE"
);
},
{
closed = 1;
nodes = (
"-682 -348 LINE",
"-807 -348 LINE",
"-807 -223 LINE",
"-682 -223 LINE"
);
},
{
closed = 1;
nodes = (
"1368 -379 LINE",
"1243 -379 LINE",
"1243 -254 LINE",
"1368 -254 LINE"
);
},
{
closed = 1;
nodes = (
"1640 1944 LINE",
"1515 1944 LINE",
"1515 2069 LINE",
"1640 2069 LINE"
);
},
{
closed = 1;
nodes = (
"-194 1056 LINE",
"-319 1056 LINE",
"-319 1181 LINE",
"-194 1181 LINE"
);
},
{
closed = 1;
nodes = (
"419 -88 LINE",
"294 -88 LINE",
"294 37 LINE",
"419 37 LINE"
);
},
{
closed = 1;
nodes = (
"-722 1531 LINE",
"-847 1531 LINE",
"-847 1656 LINE",
"-722 1656 LINE"
);
},
{
closed = 1;
nodes = (
"200 1266 LINE",
"75 1266 LINE",
"75 1391 LINE",
"200 1391 LINE"
);
},
{
closed = 1;
nodes = (
"1134 -446 LINE",
"1009 -446 LINE",
"1009 -321 LINE",
"1134 -321 LINE"
);
},
{
closed = 1;
nodes = (
"183 -1047 LINE",
"58 -1047 LINE",
"58 -922 LINE",
"183 -922 LINE"
);
},
{
closed = 1;
nodes = (
"-372 -48 LINE",
"-497 -48 LINE",
"-497 77 LINE",
"-372 77 LINE"
);
},
{
closed = 1;
nodes = (
"1611 894 LINE",
"1486 894 LINE",
"1486 1019 LINE",
"1611 1019 LINE"
);
},
{
closed = 1;
nodes = (
"382 -978 LINE",
"257 -978 LINE",
"257 -853 LINE",
"382 -853 LINE"
);
},
{
closed = 1;
nodes = (
"-786 132 LINE",
"-911 132 LINE",
"-911 257 LINE",
"-786 257 LINE"
);
},
{
closed = 1;
nodes = (
"1826 -879 LINE",
"1701 -879 LINE",
"1701 -754 LINE",
"1826 -754 LINE"
);
},
{
closed = 1;
nodes = (
"184 231 LINE",
"59 231 LINE",
"59 356 LINE",
"184 356 LINE"
);
}
);
width = 1125;
}
);
note = percent;
unicode = 0025;
},
{
glyphname = ampersand;
lastChange = "2021-07-12 13:17:18 +0000";
layers = (
{
layerId = "AC43567E-C337-40C0-B780-8BB3F06D1FA4";
paths = (
{
closed = 1;
nodes = (
"500 750 LINE",
"375 750 LINE",
"375 875 LINE",
"500 875 LINE"
);
},
{
closed = 1;
nodes = (
"625 750 LINE",
"500 750 LINE",
"500 875 LINE",
"625 875 LINE"
);
},
{
closed = 1;
nodes = (
"750 750 LINE",
"625 750 LINE",
"625 875 LINE",
"750 875 LINE"
);
},
{
closed = 1;
nodes = (
"375 625 LINE",
"250 625 LINE",
"250 750 LINE",
"375 750 LINE"
);
},
{
closed = 1;
nodes = (
"500 625 LINE",
"375 625 LINE",
"375 750 LINE",
"500 750 LINE"
);
},
{
closed = 1;
nodes = (
"750 625 LINE",
"625 625 LINE",
"625 750 LINE",
"750 750 LINE"
);
},
{
closed = 1;
nodes = (
"875 625 LINE",
"750 625 LINE",
"750 750 LINE",
"875 750 LINE"
);
},
{
closed = 1;
nodes = (
"500 500 LINE",
"375 500 LINE",
"375 625 LINE",
"500 625 LINE"
);
},
{
closed = 1;
nodes = (
"625 500 LINE",
"500 500 LINE",
"500 625 LINE",
"625 625 LINE"
);
},
{
closed = 1;
nodes = (
"750 500 LINE",
"625 500 LINE",
"625 625 LINE",
"750 625 LINE"
);
},
{
closed = 1;
nodes = (
"375 375 LINE",
"250 375 LINE",
"250 500 LINE",
"375 500 LINE"
);
},
{
closed = 1;
nodes = (
"500 375 LINE",
"375 375 LINE",
"375 500 LINE",
"500 500 LINE"
);
},
{
closed = 1;
nodes = (
"625 375 LINE",
"500 375 LINE",
"500 500 LINE",
"625 500 LINE"
);
},
{
closed = 1;
nodes = (
"875 375 LINE",
"750 375 LINE",
"750 500 LINE",
"875 500 LINE"
);
},
{
closed = 1;
nodes = (
"1000 375 LINE",
"875 375 LINE",
"875 500 LINE",
"1000 500 LINE"
);
},
{
closed = 1;
nodes = (
"250 250 LINE",
"125 250 LINE",
"125 375 LINE",
"250 375 LINE"
);
},
{
closed = 1;
nodes = (
"375 250 LINE",
"250 250 LINE",
"250 375 LINE",
"375 375 LINE"
);
},
{
closed = 1;
nodes = (
"625 250 LINE",
"500 250 LINE",
"500 375 LINE",
"625 375 LINE"
);
},
{
closed = 1;
nodes = (
"750 250 LINE",
"625 250 LINE",
"625 375 LINE",
"750 375 LINE"
);
},
{
closed = 1;
nodes = (
"875 250 LINE",
"750 250 LINE",
"750 375 LINE",
"875 375 LINE"
);
},
{
closed = 1;
nodes = (
"250 125 LINE",
"125 125 LINE",
"125 250 LINE",
"250 250 LINE"
);
},
{
closed = 1;
nodes = (
"375 125 LINE",
"250 125 LINE",
"250 250 LINE",
"375 250 LINE"
);
},
{
closed = 1;
nodes = (
"750 125 LINE",
"625 125 LINE",
"625 250 LINE",
"750 250 LINE"
);
},
{
closed = 1;
nodes = (
"875 125 LINE",
"750 125 LINE",
"750 250 LINE",
"875 250 LINE"
);
},
{
closed = 1;
nodes = (
"375 0 LINE",
"250 0 LINE",
"250 125 LINE",
"375 125 LINE"
);
},
{
closed = 1;
nodes = (
"500 0 LINE",
"375 0 LINE",
"375 125 LINE",
"500 125 LINE"
);
},
{
closed = 1;
nodes = (
"625 0 LINE",
"500 0 LINE",
"500 125 LINE",
"625 125 LINE"
);
},
{
closed = 1;
nodes = (
"875 0 LINE",
"750 0 LINE",
"750 125 LINE",
"875 125 LINE"
);
},
{
closed = 1;
nodes = (
"1000 0 LINE",
"875 0 LINE",
"875 125 LINE",
"1000 125 LINE"
);
}
);
width = 1125;
},
{
layerId = "2C46A1C2-E2B6-44B8-927E-E05F8288DB30";
paths = (
{
closed = 1;
nodes = (
"-377 -166 LINE",
"-502 -166 LINE",
"-502 -41 LINE",
"-377 -41 LINE"
);
},
{
closed = 1;
nodes = (
"-391 1662 LINE",
"-516 1662 LINE",
"-516 1787 LINE",
"-391 1787 LINE"
);
},
{
closed = 1;
nodes = (
"2093 -249 LINE",
"1968 -249 LINE",
"1968 -124 LINE",
"2093 -124 LINE"
);
},
{
closed = 1;
nodes = (
"171 1152 LINE",
"46 1152 LINE",
"46 1277 LINE",
"171 1277 LINE"
);
},
{
closed = 1;
nodes = (
"1122 17 LINE",
"997 17 LINE",
"997 142 LINE",
"1122 142 LINE"
);
},
{
closed = 1;
nodes = (
"72 469 LINE",
"-53 469 LINE",
"-53 594 LINE",
"72 594 LINE"
);
},
{
closed = 1;
nodes = (
"1364 -274 LINE",
"1239 -274 LINE",
"1239 -149 LINE",
"1364 -149 LINE"
);
},
{
closed = 1;
nodes = (
"34 -472 LINE",
"-91 -472 LINE",
"-91 -347 LINE",
"34 -347 LINE"
);
},
{
closed = 1;
nodes = (
"-49 989 LINE",
"-174 989 LINE",
"-174 1114 LINE",
"-49 1114 LINE"
);
},
{
closed = 1;
nodes = (
"482 836 LINE",
"357 836 LINE",
"357 961 LINE",
"482 961 LINE"
);
},
{
closed = 1;
nodes = (
"1843 -5 LINE",
"1718 -5 LINE",
"1718 120 LINE",
"1843 120 LINE"
);
},
{
closed = 1;
nodes = (
"1061 -929 LINE",
"936 -929 LINE",
"936 -804 LINE",
"1061 -804 LINE"
);
},
{
closed = 1;
nodes = (
"1157 -715 LINE",
"1032 -715 LINE",
"1032 -590 LINE",
"1157 -590 LINE"
);
},
{
closed = 1;
nodes = (
"1682 -387 LINE",
"1557 -387 LINE",
"1557 -262 LINE",
"1682 -262 LINE"
);
},
{
closed = 1;
nodes = (
"1311 1560 LINE",
"1186 1560 LINE",
"1186 1685 LINE",
"1311 1685 LINE"
);
},
{
closed = 1;
nodes = (
"-202 -697 LINE",
"-327 -697 LINE",
"-327 -572 LINE",
"-202 -572 LINE"
);
},
{
closed = 1;
nodes = (
"625 714 LINE",
"500 714 LINE",
"500 839 LINE",
"625 839 LINE"
);
},
{
closed = 1;
nodes = (
"1947 854 LINE",
"1822 854 LINE",
"1822 979 LINE",
"1947 979 LINE"
);
},
{
closed = 1;
nodes = (
"1200 1006 LINE",
"1075 1006 LINE",
"1075 1131 LINE",
"1200 1131 LINE"
);
},
{
closed = 1;
nodes = (
"-476 -571 LINE",
"-601 -571 LINE",
"-601 -446 LINE",
"-476 -446 LINE"
);
},
{
closed = 1;
nodes = (
"1696 -197 LINE",
"1571 -197 LINE",
"1571 -72 LINE",
"1696 -72 LINE"
);
},
{
closed = 1;
nodes = (
"703 1309 LINE",
"578 1309 LINE",
"578 1434 LINE",
"703 1434 LINE"
);
},
{
closed = 1;
nodes = (
"978 611 LINE",
"853 611 LINE",
"853 736 LINE",
"978 736 LINE"
);
},
{
closed = 1;
nodes = (
"-579 1140 LINE",
"-704 1140 LINE",
"-704 1265 LINE",
"-579 1265 LINE"
);
},
{
closed = 1;
nodes = (
"-883 527 LINE",
"-1008 527 LINE",
"-1008 652 LINE",
"-883 652 LINE"
);
},
{
closed = 1;
nodes = (
"1272 272 LINE",
"1147 272 LINE",
"1147 397 LINE",
"1272 397 LINE"
);
},
{
closed = 1;
nodes = (
"-261 1390 LINE",
"-386 1390 LINE",
"-386 1515 LINE",
"-261 1515 LINE"
);
},
{
closed = 1;
nodes = (
"1206 754 LINE",
"1081 754 LINE",
"1081 879 LINE",
"1206 879 LINE"
);
},
{
closed = 1;
nodes = (
"-96 -1114 LINE",
"-221 -1114 LINE",
"-221 -989 LINE",
"-96 -989 LINE"
);
}
);
width = 1125;
}
);
note = ampersand;
unicode = 0026;
},
{
glyphname = quotesingle;
lastChange = "2021-07-12 13:17:18 +0000";
layers = (
{
layerId = "AC43567E-C337-40C0-B780-8BB3F06D1FA4";
paths = (
{
closed = 1;
nodes = (
"625 750 LINE",
"500 750 LINE",
"500 875 LINE",
"625 875 LINE"
);
},
{
closed = 1;
nodes = (
"750 750 LINE",
"625 750 LINE",
"625 875 LINE",
"750 875 LINE"
);
},
{
closed = 1;
nodes = (
"625 625 LINE",
"500 625 LINE",
"500 750 LINE",
"625 750 LINE"
);
},
{
closed = 1;
nodes = (
"750 625 LINE",
"625 625 LINE",
"625 750 LINE",
"750 750 LINE"
);
},
{
closed = 1;
nodes = (
"500 500 LINE",
"375 500 LINE",
"375 625 LINE",
"500 625 LINE"
);
},
{
closed = 1;
nodes = (
"625 500 LINE",
"500 500 LINE",
"500 625 LINE",
"625 625 LINE"
);
}
);
width = 875;
},
{
layerId = "2C46A1C2-E2B6-44B8-927E-E05F8288DB30";
paths = (
{
closed = 1;
nodes = (
"458 1045 LINE",
"333 1045 LINE",
"333 1170 LINE",
"458 1170 LINE"
);
},
{
closed = 1;
nodes = (
"-341 -73 LINE",
"-466 -73 LINE",
"-466 52 LINE",
"-341 52 LINE"
);
},
{
closed = 1;
nodes = (
"1642 882 LINE",
"1517 882 LINE",
"1517 1007 LINE",
"1642 1007 LINE"
);
},
{
closed = 1;
nodes = (
"248 1855 LINE",
"123 1855 LINE",
"123 1980 LINE",
"248 1980 LINE"
);
},
{
closed = 1;
nodes = (
"1053 1471 LINE",
"928 1471 LINE",
"928 1596 LINE",
"1053 1596 LINE"
);
},
{
closed = 1;
nodes = (
"208 1481 LINE",
"83 1481 LINE",
"83 1606 LINE",
"208 1606 LINE"
);
}
);
width = 875;
}
);
note = quotesingle;
unicode = 0027;
},
{
glyphname = parenleft;
lastChange = "2021-07-12 13:17:18 +0000";
layers = (
{
layerId = "AC43567E-C337-40C0-B780-8BB3F06D1FA4";
paths = (
{
closed = 1;
nodes = (
"750 750 LINE",
"625 750 LINE",
"625 875 LINE",
"750 875 LINE"
);
},
{
closed = 1;
nodes = (
"875 750 LINE",
"750 750 LINE",
"750 875 LINE",
"875 875 LINE"
);
},
{
closed = 1;
nodes = (
"625 625 LINE",
"500 625 LINE",
"500 750 LINE",
"625 750 LINE"
);
},
{
closed = 1;
nodes = (
"750 625 LINE",
"625 625 LINE",
"625 750 LINE",
"750 750 LINE"
);
},
{
closed = 1;
nodes = (
"500 500 LINE",
"375 500 LINE",
"375 625 LINE",
"500 625 LINE"
);
},
{
closed = 1;
nodes = (
"625 500 LINE",
"500 500 LINE",
"500 625 LINE",
"625 625 LINE"
);
},
{
closed = 1;
nodes = (
"500 375 LINE",
"375 375 LINE",
"375 500 LINE",
"500 500 LINE"
);
},
{
closed = 1;
nodes = (
"625 375 LINE",
"500 375 LINE",
"500 500 LINE",
"625 500 LINE"
);
},
{
closed = 1;
nodes = (
"500 250 LINE",
"375 250 LINE",
"375 375 LINE",
"500 375 LINE"
);
},
{
closed = 1;
nodes = (
"625 250 LINE",
"500 250 LINE",
"500 375 LINE",
"625 375 LINE"
);
},
{
closed = 1;
nodes = (
"625 125 LINE",
"500 125 LINE",
"500 250 LINE",
"625 250 LINE"
);
},
{
closed = 1;
nodes = (
"750 125 LINE",
"625 125 LINE",
"625 250 LINE",
"750 250 LINE"
);
},
{
closed = 1;
nodes = (
"750 0 LINE",
"625 0 LINE",
"625 125 LINE",
"750 125 LINE"
);
},
{
closed = 1;
nodes = (
"875 0 LINE",
"750 0 LINE",
"750 125 LINE",
"875 125 LINE"
);
}
);
width = 1000;
},
{
layerId = "2C46A1C2-E2B6-44B8-927E-E05F8288DB30";
paths = (
{
closed = 1;
nodes = (
"450 522 LINE",
"325 522 LINE",
"325 647 LINE",
"450 647 LINE"
);
},
{
closed = 1;
nodes = (
"341 1060 LINE",
"216 1060 LINE",
"216 1185 LINE",
"341 1185 LINE"
);
},
{
closed = 1;
nodes = (
"-690 -832 LINE",
"-815 -832 LINE",
"-815 -707 LINE",
"-690 -707 LINE"
);
},
{
closed = 1;
nodes = (
"402 1707 LINE",
"277 1707 LINE",
"277 1832 LINE",
"402 1832 LINE"
);
},
{
closed = 1;
nodes = (
"1538 1281 LINE",
"1413 1281 LINE",
"1413 1406 LINE",
"1538 1406 LINE"
);
},
{
closed = 1;
nodes = (
"-77 338 LINE",
"-202 338 LINE",
"-202 463 LINE",
"-77 463 LINE"
);
},
{
closed = 1;
nodes = (
"1986 1319 LINE",
"1861 1319 LINE",
"1861 1444 LINE",
"1986 1444 LINE"
);
},
{
closed = 1;
nodes = (
"114 -272 LINE",
"-11 -272 LINE",
"-11 -147 LINE",
"114 -147 LINE"
);
},
{
closed = 1;
nodes = (
"-982 -254 LINE",
"-1107 -254 LINE",
"-1107 -129 LINE",
"-982 -129 LINE"
);
},
{
closed = 1;
nodes = (
"1959 -602 LINE",
"1834 -602 LINE",
"1834 -477 LINE",
"1959 -477 LINE"
);
},
{
closed = 1;
nodes = (
"2006 -796 LINE",
"1881 -796 LINE",
"1881 -671 LINE",
"2006 -671 LINE"
);
},
{
closed = 1;
nodes = (
"1745 -916 LINE",
"1620 -916 LINE",
"1620 -791 LINE",
"1745 -791 LINE"
);
},
{
closed = 1;
nodes = (
"1201 736 LINE",
"1076 736 LINE",
"1076 861 LINE",
"1201 861 LINE"
);
},
{
closed = 1;
nodes = (
"2113 -857 LINE",
"1988 -857 LINE",
"1988 -732 LINE",
"2113 -732 LINE"
);
}
);
width = 1000;
}
);
note = parenleft;
unicode = 0028;
},
{
glyphname = parenright;
lastChange = "2021-07-12 13:17:18 +0000";
layers = (
{
layerId = "AC43567E-C337-40C0-B780-8BB3F06D1FA4";
paths = (
{
closed = 1;
nodes = (
"500 750 LINE",
"375 750 LINE",
"375 875 LINE",
"500 875 LINE"
);
},
{
closed = 1;
nodes = (
"625 750 LINE",
"500 750 LINE",
"500 875 LINE",
"625 875 LINE"
);
},
{
closed = 1;
nodes = (
"625 625 LINE",
"500 625 LINE",
"500 750 LINE",
"625 750 LINE"
);
},
{
closed = 1;
nodes = (
"750 625 LINE",
"625 625 LINE",
"625 750 LINE",
"750 750 LINE"
);
},
{
closed = 1;
nodes = (
"750 500 LINE",
"625 500 LINE",
"625 625 LINE",
"750 625 LINE"
);
},
{
closed = 1;
nodes = (
"875 500 LINE",
"750 500 LINE",
"750 625 LINE",
"875 625 LINE"
);
},
{
closed = 1;
nodes = (
"750 375 LINE",
"625 375 LINE",
"625 500 LINE",
"750 500 LINE"
);
},
{
closed = 1;
nodes = (
"875 375 LINE",
"750 375 LINE",
"750 500 LINE",
"875 500 LINE"
);
},
{
closed = 1;
nodes = (
"750 250 LINE",
"625 250 LINE",
"625 375 LINE",
"750 375 LINE"
);
},
{
closed = 1;
nodes = (
"875 250 LINE",
"750 250 LINE",
"750 375 LINE",
"875 375 LINE"
);
},
{
closed = 1;
nodes = (
"625 125 LINE",
"500 125 LINE",
"500 250 LINE",
"625 250 LINE"
);
},
{
closed = 1;
nodes = (
"750 125 LINE",
"625 125 LINE",
"625 250 LINE",
"750 250 LINE"
);
},
{
closed = 1;
nodes = (
"500 0 LINE",
"375 0 LINE",
"375 125 LINE",
"500 125 LINE"
);
},
{
closed = 1;
nodes = (
"625 0 LINE",
"500 0 LINE",
"500 125 LINE",
"625 125 LINE"
);
}
);
width = 1000;
},
{
layerId = "2C46A1C2-E2B6-44B8-927E-E05F8288DB30";
paths = (
{
closed = 1;
nodes = (
"1070 1178 LINE",
"945 1178 LINE",
"945 1303 LINE",
"1070 1303 LINE"
);
},
{
closed = 1;
nodes = (
"1677 37 LINE",
"1552 37 LINE",
"1552 162 LINE",
"1677 162 LINE"
);
},
{
closed = 1;
nodes = (
"1656 -241 LINE",
"1531 -241 LINE",
"1531 -116 LINE",
"1656 -116 LINE"
);
},
{
closed = 1;
nodes = (
"418 -616 LINE",
"293 -616 LINE",
"293 -491 LINE",
"418 -491 LINE"
);
},
{
closed = 1;
nodes = (
"49 322 LINE",
"-76 322 LINE",
"-76 447 LINE",
"49 447 LINE"
);
},
{
closed = 1;
nodes = (
"-540 331 LINE",
"-665 331 LINE",
"-665 456 LINE",
"-540 456 LINE"
);
},
{
closed = 1;
nodes = (
"1521 -65 LINE",
"1396 -65 LINE",
"1396 60 LINE",
"1521 60 LINE"
);
},
{
closed = 1;
nodes = (
"2339 -560 LINE",
"2214 -560 LINE",
"2214 -435 LINE",
"2339 -435 LINE"
);
},
{
closed = 1;
nodes = (
"-200 8 LINE",
"-325 8 LINE",
"-325 133 LINE",
"-200 133 LINE"
);
},
{
closed = 1;
nodes = (
"1499 -848 LINE",
"1374 -848 LINE",
"1374 -723 LINE",
"1499 -723 LINE"
);
},
{
closed = 1;
nodes = (
"1521 876 LINE",
"1396 876 LINE",
"1396 1001 LINE",
"1521 1001 LINE"
);
},
{
closed = 1;
nodes = (
"-132 1146 LINE",
"-257 1146 LINE",
"-257 1271 LINE",
"-132 1271 LINE"
);
},
{
closed = 1;
nodes = (
"1140 1493 LINE",
"1015 1493 LINE",
"1015 1618 LINE",
"1140 1618 LINE"
);
},
{
closed = 1;
nodes = (
"102 -580 LINE",
"-23 -580 LINE",
"-23 -455 LINE",
"102 -455 LINE"
);
}
);
width = 1000;
}
);
note = parenright;
unicode = 0029;
},
{
glyphname = asterisk;
lastChange = "2021-07-12 13:17:18 +0000";
layers = (
{
layerId = "AC43567E-C337-40C0-B780-8BB3F06D1FA4";
paths = (
{
closed = 1;
nodes = (
"375 625 LINE",
"250 625 LINE",
"250 750 LINE",
"375 750 LINE"
);
},
{
closed = 1;
nodes = (
"500 625 LINE",
"375 625 LINE",
"375 750 LINE",
"500 750 LINE"
);
},
{
closed = 1;
nodes = (
"875 625 LINE",
"750 625 LINE",
"750 750 LINE",
"875 750 LINE"
);
},
{
closed = 1;
nodes = (
"1000 625 LINE",
"875 625 LINE",
"875 750 LINE",
"1000 750 LINE"
);
},
{
closed = 1;
nodes = (
"500 500 LINE",
"375 500 LINE",
"375 625 LINE",
"500 625 LINE"
);
},
{
closed = 1;
nodes = (
"625 500 LINE",
"500 500 LINE",
"500 625 LINE",
"625 625 LINE"
);
},
{
closed = 1;
nodes = (
"750 500 LINE",
"625 500 LINE",
"625 625 LINE",
"750 625 LINE"
);
},
{
closed = 1;
nodes = (
"875 500 LINE",
"750 500 LINE",
"750 625 LINE",
"875 625 LINE"
);
},
{
closed = 1;
nodes = (
"250 375 LINE",
"125 375 LINE",
"125 500 LINE",
"250 500 LINE"
);
},
{
closed = 1;
nodes = (
"375 375 LINE",
"250 375 LINE",
"250 500 LINE",
"375 500 LINE"
);
},
{
closed = 1;
nodes = (
"500 375 LINE",
"375 375 LINE",
"375 500 LINE",
"500 500 LINE"
);
},
{
closed = 1;
nodes = (
"625 375 LINE",
"500 375 LINE",
"500 500 LINE",
"625 500 LINE"
);
},
{
closed = 1;
nodes = (
"750 375 LINE",
"625 375 LINE",
"625 500 LINE",
"750 500 LINE"
);
},
{
closed = 1;
nodes = (
"875 375 LINE",
"750 375 LINE",
"750 500 LINE",
"875 500 LINE"
);
},
{
closed = 1;
nodes = (
"1000 375 LINE",
"875 375 LINE",
"875 500 LINE",
"1000 500 LINE"
);
},
{
closed = 1;
nodes = (
"1125 375 LINE",
"1000 375 LINE",
"1000 500 LINE",
"1125 500 LINE"
);
},
{
closed = 1;
nodes = (
"500 250 LINE",
"375 250 LINE",
"375 375 LINE",
"500 375 LINE"
);
},
{
closed = 1;
nodes = (
"625 250 LINE",
"500 250 LINE",
"500 375 LINE",
"625 375 LINE"
);
},
{
closed = 1;
nodes = (
"750 250 LINE",
"625 250 LINE",
"625 375 LINE",
"750 375 LINE"
);
},
{
closed = 1;
nodes = (
"875 250 LINE",
"750 250 LINE",
"750 375 LINE",
"875 375 LINE"
);
},
{
closed = 1;
nodes = (
"375 125 LINE",
"250 125 LINE",
"250 250 LINE",
"375 250 LINE"
);
},
{
closed = 1;
nodes = (
"500 125 LINE",
"375 125 LINE",
"375 250 LINE",
"500 250 LINE"
);
},
{
closed = 1;
nodes = (
"875 125 LINE",
"750 125 LINE",
"750 250 LINE",
"875 250 LINE"
);
},
{
closed = 1;
nodes = (
"1000 125 LINE",
"875 125 LINE",
"875 250 LINE",
"1000 250 LINE"
);
}
);
width = 1250;
},
{
layerId = "2C46A1C2-E2B6-44B8-927E-E05F8288DB30";
paths = (
{
closed = 1;
nodes = (
"-725 344 LINE",
"-850 344 LINE",
"-850 469 LINE",
"-725 469 LINE"
);
},
{
closed = 1;
nodes = (
"1991 -268 LINE",
"1866 -268 LINE",
"1866 -143 LINE",
"1991 -143 LINE"
);
},
{
closed = 1;
nodes = (
"1183 97 LINE",
"1058 97 LINE",
"1058 222 LINE",
"1183 222 LINE"
);
},
{
closed = 1;
nodes = (
"497 2112 LINE",
"372 2112 LINE",
"372 2237 LINE",
"497 2237 LINE"
);
},
{
closed = 1;
nodes = (
"1049 674 LINE",
"924 674 LINE",
"924 799 LINE",
"1049 799 LINE"
);
},
{
closed = 1;
nodes = (
"1102 1254 LINE",
"977 1254 LINE",
"977 1379 LINE",
"1102 1379 LINE"
);
},
{
closed = 1;
nodes = (
"203 -622 LINE",
"78 -622 LINE",
"78 -497 LINE",
"203 -497 LINE"
);
},
{
closed = 1;
nodes = (
"-328 717 LINE",
"-453 717 LINE",
"-453 842 LINE",
"-328 842 LINE"
);
},
{
closed = 1;
nodes = (
"3 1242 LINE",
"-122 1242 LINE",
"-122 1367 LINE",
"3 1367 LINE"
);
},
{
closed = 1;
nodes = (
"749 -1005 LINE",
"624 -1005 LINE",
"624 -880 LINE",
"749 -880 LINE"
);
},
{
closed = 1;
nodes = (
"43 1537 LINE",
"-82 1537 LINE",
"-82 1662 LINE",
"43 1662 LINE"
);
},
{
closed = 1;
nodes = (
"475 -901 LINE",
"350 -901 LINE",
"350 -776 LINE",
"475 -776 LINE"
);
},
{
closed = 1;
nodes = (
"-453 -879 LINE",
"-578 -879 LINE",
"-578 -754 LINE",
"-453 -754 LINE"
);
},
{
closed = 1;
nodes = (
"286 1521 LINE",
"161 1521 LINE",
"161 1646 LINE",
"286 1646 LINE"
);
},
{
closed = 1;
nodes = (
"2319 -234 LINE",
"2194 -234 LINE",
"2194 -109 LINE",
"2319 -109 LINE"
);
},
{
closed = 1;
nodes = (
"342 -572 LINE",
"217 -572 LINE",
"217 -447 LINE",
"342 -447 LINE"
);
},
{
closed = 1;
nodes = (
"-210 -597 LINE",
"-335 -597 LINE",
"-335 -472 LINE",
"-210 -472 LINE"
);
},
{
closed = 1;
nodes = (
"1479 -995 LINE",
"1354 -995 LINE",
"1354 -870 LINE",
"1479 -870 LINE"
);
},
{
closed = 1;
nodes = (
"-383 1404 LINE",
"-508 1404 LINE",
"-508 1529 LINE",
"-383 1529 LINE"
);
},
{
closed = 1;
nodes = (
"1323 -480 LINE",
"1198 -480 LINE",
"1198 -355 LINE",
"1323 -355 LINE"
);
},
{
closed = 1;
nodes = (
"-728 1128 LINE",
"-853 1128 LINE",
"-853 1253 LINE",
"-728 1253 LINE"
);
},
{
closed = 1;
nodes = (
"856 1251 LINE",
"731 1251 LINE",
"731 1376 LINE",
"856 1376 LINE"
);
},
{
closed = 1;
nodes = (
"2188 -83 LINE",
"2063 -83 LINE",
"2063 42 LINE",
"2188 42 LINE"
);
},
{
closed = 1;
nodes = (
"598 995 LINE",
"473 995 LINE",
"473 1120 LINE",
"598 1120 LINE"
);
}
);
width = 1250;
}
);
note = asterisk;
unicode = 002A;
},
{
glyphname = plus;
lastChange = "2021-07-12 13:17:18 +0000";
layers = (
{
layerId = "AC43567E-C337-40C0-B780-8BB3F06D1FA4";
paths = (
{
closed = 1;
nodes = (
"625 625 LINE",
"500 625 LINE",
"500 750 LINE",
"625 750 LINE"
);
},
{
closed = 1;
nodes = (
"750 625 LINE",
"625 625 LINE",
"625 750 LINE",
"750 750 LINE"
);
},
{
closed = 1;
nodes = (
"625 500 LINE",
"500 500 LINE",
"500 625 LINE",
"625 625 LINE"
);
},
{
closed = 1;
nodes = (
"750 500 LINE",
"625 500 LINE",
"625 625 LINE",
"750 625 LINE"
);
},
{
closed = 1;
nodes = (
"375 375 LINE",
"250 375 LINE",
"250 500 LINE",
"375 500 LINE"
);
},
{
closed = 1;
nodes = (
"500 375 LINE",
"375 375 LINE",
"375 500 LINE",
"500 500 LINE"
);
},
{
closed = 1;
nodes = (
"625 375 LINE",
"500 375 LINE",
"500 500 LINE",
"625 500 LINE"
);
},
{
closed = 1;
nodes = (
"750 375 LINE",
"625 375 LINE",
"625 500 LINE",
"750 500 LINE"
);
},
{
closed = 1;
nodes = (
"875 375 LINE",
"750 375 LINE",
"750 500 LINE",
"875 500 LINE"
);
},
{
closed = 1;
nodes = (
"1000 375 LINE",
"875 375 LINE",
"875 500 LINE",
"1000 500 LINE"
);
},
{
closed = 1;
nodes = (
"625 250 LINE",
"500 250 LINE",
"500 375 LINE",
"625 375 LINE"
);
},
{
closed = 1;
nodes = (
"750 250 LINE",
"625 250 LINE",
"625 375 LINE",
"750 375 LINE"
);
},
{
closed = 1;
nodes = (
"625 125 LINE",
"500 125 LINE",
"500 250 LINE",
"625 250 LINE"
);
},
{
closed = 1;
nodes = (
"750 125 LINE",
"625 125 LINE",
"625 250 LINE",
"750 250 LINE"
);
}
);
width = 1125;
},
{
layerId = "2C46A1C2-E2B6-44B8-927E-E05F8288DB30";
paths = (
{
closed = 1;
nodes = (
"1032 330 LINE",
"907 330 LINE",
"907 455 LINE",
"1032 455 LINE"
);
},
{
closed = 1;
nodes = (
"1650 -35 LINE",
"1525 -35 LINE",
"1525 90 LINE",
"1650 90 LINE"
);
},
{
closed = 1;
nodes = (
"1367 1630 LINE",
"1242 1630 LINE",
"1242 1755 LINE",
"1367 1755 LINE"
);
},
{
closed = 1;
nodes = (
"1889 -596 LINE",
"1764 -596 LINE",
"1764 -471 LINE",
"1889 -471 LINE"
);
},
{
closed = 1;
nodes = (
"-655 -990 LINE",
"-780 -990 LINE",
"-780 -865 LINE",
"-655 -865 LINE"
);
},
{
closed = 1;
nodes = (
"1064 -211 LINE",
"939 -211 LINE",
"939 -86 LINE",
"1064 -86 LINE"
);
},
{
closed = 1;
nodes = (
"1003 -903 LINE",
"878 -903 LINE",
"878 -778 LINE",
"1003 -778 LINE"
);
},
{
closed = 1;
nodes = (
"2038 -921 LINE",
"1913 -921 LINE",
"1913 -796 LINE",
"2038 -796 LINE"
);
},
{
closed = 1;
nodes = (
"-317 1089 LINE",
"-442 1089 LINE",
"-442 1214 LINE",
"-317 1214 LINE"
);
},
{
closed = 1;
nodes = (
"1661 1218 LINE",
"1536 1218 LINE",
"1536 1343 LINE",
"1661 1343 LINE"
);
},
{
closed = 1;
nodes = (
"77 1069 LINE",
"-48 1069 LINE",
"-48 1194 LINE",
"77 1194 LINE"
);
},
{
closed = 1;
nodes = (
"-137 -1069 LINE",
"-262 -1069 LINE",
"-262 -944 LINE",
"-137 -944 LINE"
);
},
{
closed = 1;
nodes = (
"1089 1329 LINE",
"964 1329 LINE",
"964 1454 LINE",
"1089 1454 LINE"
);
},
{
closed = 1;
nodes = (
"2035 -521 LINE",
"1910 -521 LINE",
"1910 -396 LINE",
"2035 -396 LINE"
);
}
);
width = 1125;
}
);
note = plus;
unicode = 002B;
},
{
glyphname = comma;
lastChange = "2021-07-12 13:17:18 +0000";
layers = (
{
layerId = "AC43567E-C337-40C0-B780-8BB3F06D1FA4";
paths = (
{
closed = 1;
nodes = (
"625 125 LINE",
"500 125 LINE",
"500 250 LINE",
"625 250 LINE"
);
},
{
closed = 1;
nodes = (
"750 125 LINE",
"625 125 LINE",
"625 250 LINE",
"750 250 LINE"
);
},
{
closed = 1;
nodes = (
"625 0 LINE",
"500 0 LINE",
"500 125 LINE",
"625 125 LINE"
);
},
{
closed = 1;
nodes = (
"750 0 LINE",
"625 0 LINE",
"625 125 LINE",
"750 125 LINE"
);
},
{
closed = 1;
nodes = (
"500 -125 LINE",
"375 -125 LINE",
"375 0 LINE",
"500 0 LINE"
);
},
{
closed = 1;
nodes = (
"625 -125 LINE",
"500 -125 LINE",
"500 0 LINE",
"625 0 LINE"
);
}
);
width = 875;
},
{
layerId = "2C46A1C2-E2B6-44B8-927E-E05F8288DB30";
paths = (
{
closed = 1;
nodes = (
"-277 1014 LINE",
"-402 1014 LINE",
"-402 1139 LINE",
"-277 1139 LINE"
);
},
{
closed = 1;
nodes = (
"1169 -6 LINE",
"1044 -6 LINE",
"1044 119 LINE",
"1169 119 LINE"
);
},
{
closed = 1;
nodes = (
"1662 180 LINE",
"1537 180 LINE",
"1537 305 LINE",
"1662 305 LINE"
);
},
{
closed = 1;
nodes = (
"1973 -255 LINE",
"1848 -255 LINE",
"1848 -130 LINE",
"1973 -130 LINE"
);
},
{
closed = 1;
nodes = (
"-771 444 LINE",
"-896 444 LINE",
"-896 569 LINE",
"-771 569 LINE"
);
},
{
closed = 1;
nodes = (
"-476 -483 LINE",
"-601 -483 LINE",
"-601 -358 LINE",
"-476 -358 LINE"
);
}
);
width = 875;
}
);
note = comma;
unicode = 002C;
},
{
glyphname = hyphen;
lastChange = "2021-07-12 13:17:18 +0000";
layers = (
{
layerId = "AC43567E-C337-40C0-B780-8BB3F06D1FA4";
paths = (
{
closed = 1;
nodes = (
"375 375 LINE",
"250 375 LINE",
"250 500 LINE",
"375 500 LINE"
);
},
{
closed = 1;
nodes = (
"500 375 LINE",
"375 375 LINE",
"375 500 LINE",
"500 500 LINE"
);
},
{
closed = 1;
nodes = (
"625 375 LINE",
"500 375 LINE",
"500 500 LINE",
"625 500 LINE"
);
},
{
closed = 1;
nodes = (
"750 375 LINE",
"625 375 LINE",
"625 500 LINE",
"750 500 LINE"
);
},
{
closed = 1;
nodes = (
"875 375 LINE",
"750 375 LINE",
"750 500 LINE",
"875 500 LINE"
);
},
{
closed = 1;
nodes = (
"1000 375 LINE",
"875 375 LINE",
"875 500 LINE",
"1000 500 LINE"
);
}
);
width = 1125;
},
{
layerId = "2C46A1C2-E2B6-44B8-927E-E05F8288DB30";
paths = (
{
closed = 1;
nodes = (
"1484 -73 LINE",
"1359 -73 LINE",
"1359 52 LINE",
"1484 52 LINE"
);
},
{
closed = 1;
nodes = (
"-944 1170 LINE",
"-1069 1170 LINE",
"-1069 1295 LINE",
"-944 1295 LINE"
);
},
{
closed = 1;
nodes = (
"817 -756 LINE",
"692 -756 LINE",
"692 -631 LINE",
"817 -631 LINE"
);
},
{
closed = 1;
nodes = (
"1957 896 LINE",
"1832 896 LINE",
"1832 1021 LINE",
"1957 1021 LINE"
);
},
{
closed = 1;
nodes = (
"71 1300 LINE",
"-54 1300 LINE",
"-54 1425 LINE",
"71 1425 LINE"
);
},
{
closed = 1;
nodes = (
"-266 826 LINE",
"-391 826 LINE",
"-391 951 LINE",
"-266 951 LINE"
);
}
);
width = 1125;
}
);
note = hyphen;
unicode = 002D;
},
{
glyphname = period;
lastChange = "2021-07-12 13:17:18 +0000";
layers = (
{
layerId = "AC43567E-C337-40C0-B780-8BB3F06D1FA4";
paths = (
{
closed = 1;
nodes = (
"625 125 LINE",
"500 125 LINE",
"500 250 LINE",
"625 250 LINE"
);
},
{
closed = 1;
nodes = (
"750 125 LINE",
"625 125 LINE",
"625 250 LINE",
"750 250 LINE"
);
},
{
closed = 1;
nodes = (
"625 0 LINE",
"500 0 LINE",
"500 125 LINE",
"625 125 LINE"
);
},
{
closed = 1;
nodes = (
"750 0 LINE",
"625 0 LINE",
"625 125 LINE",
"750 125 LINE"
);
}
);
width = 875;
},
{
layerId = "2C46A1C2-E2B6-44B8-927E-E05F8288DB30";
paths = (
{
closed = 1;
nodes = (
"896 1607 LINE",
"771 1607 LINE",
"771 1732 LINE",
"896 1732 LINE"
);
},
{
closed = 1;
nodes = (
"-720 1621 LINE",
"-845 1621 LINE",
"-845 1746 LINE",
"-720 1746 LINE"
);
},
{
closed = 1;
nodes = (
"-192 1330 LINE",
"-317 1330 LINE",
"-317 1455 LINE",
"-192 1455 LINE"
);
},
{
closed = 1;
nodes = (
"440 -273 LINE",
"315 -273 LINE",
"315 -148 LINE",
"440 -148 LINE"
);
}
);
width = 875;
}
);
note = period;
unicode = 002E;
},
{
glyphname = slash;
lastChange = "2021-07-12 13:17:18 +0000";
layers = (
{
layerId = "AC43567E-C337-40C0-B780-8BB3F06D1FA4";
paths = (
{
closed = 1;
nodes = (
"875 750 LINE",
"750 750 LINE",
"750 875 LINE",
"875 875 LINE"
);
},
{
closed = 1;
nodes = (
"1000 750 LINE",
"875 750 LINE",
"875 875 LINE",
"1000 875 LINE"
);
},
{
closed = 1;
nodes = (
"750 625 LINE",
"625 625 LINE",
"625 750 LINE",
"750 750 LINE"
);
},
{
closed = 1;
nodes = (
"875 625 LINE",
"750 625 LINE",
"750 750 LINE",
"875 750 LINE"
);
},
{
closed = 1;
nodes = (
"625 500 LINE",
"500 500 LINE",
"500 625 LINE",
"625 625 LINE"
);
},
{
closed = 1;
nodes = (
"750 500 LINE",
"625 500 LINE",
"625 625 LINE",
"750 625 LINE"
);
},
{
closed = 1;
nodes = (
"500 375 LINE",
"375 375 LINE",
"375 500 LINE",
"500 500 LINE"
);
},
{
closed = 1;
nodes = (
"625 375 LINE",
"500 375 LINE",
"500 500 LINE",
"625 500 LINE"
);
},
{
closed = 1;
nodes = (
"375 250 LINE",
"250 250 LINE",
"250 375 LINE",
"375 375 LINE"
);
},
{
closed = 1;
nodes = (
"500 250 LINE",
"375 250 LINE",
"375 375 LINE",
"500 375 LINE"
);
},
{
closed = 1;
nodes = (
"250 125 LINE",
"125 125 LINE",
"125 250 LINE",
"250 250 LINE"
);
},
{
closed = 1;
nodes = (
"375 125 LINE",
"250 125 LINE",
"250 250 LINE",
"375 250 LINE"
);
},
{
closed = 1;
nodes = (
"250 0 LINE",
"125 0 LINE",
"125 125 LINE",
"250 125 LINE"
);
}
);
width = 1125;
},
{
layerId = "2C46A1C2-E2B6-44B8-927E-E05F8288DB30";
paths = (
{
closed = 1;
nodes = (
"620 257 LINE",
"495 257 LINE",
"495 382 LINE",
"620 382 LINE"
);
},
{
closed = 1;
nodes = (
"-414 2241 LINE",
"-539 2241 LINE",
"-539 2366 LINE",
"-414 2366 LINE"
);
},
{
closed = 1;
nodes = (
"1416 1487 LINE",
"1291 1487 LINE",
"1291 1612 LINE",
"1416 1612 LINE"
);
},
{
closed = 1;
nodes = (
"1054 -236 LINE",
"929 -236 LINE",
"929 -111 LINE",
"1054 -111 LINE"
);
},
{
closed = 1;
nodes = (
"950 1537 LINE",
"825 1537 LINE",
"825 1662 LINE",
"950 1662 LINE"
);
},
{
closed = 1;
nodes = (
"1771 1994 LINE",
"1646 1994 LINE",
"1646 2119 LINE",
"1771 2119 LINE"
);
},
{
closed = 1;
nodes = (
"253 -197 LINE",
"128 -197 LINE",
"128 -72 LINE",
"253 -72 LINE"
);
},
{
closed = 1;
nodes = (
"-523 -871 LINE",
"-648 -871 LINE",
"-648 -746 LINE",
"-523 -746 LINE"
);
},
{
closed = 1;
nodes = (
"-634 -823 LINE",
"-759 -823 LINE",
"-759 -698 LINE",
"-634 -698 LINE"
);
},
{
closed = 1;
nodes = (
"-998 890 LINE",
"-1123 890 LINE",
"-1123 1015 LINE",
"-998 1015 LINE"
);
},
{
closed = 1;
nodes = (
"-239 859 LINE",
"-364 859 LINE",
"-364 984 LINE",
"-239 984 LINE"
);
},
{
closed = 1;
nodes = (
"952 1305 LINE",
"827 1305 LINE",
"827 1430 LINE",
"952 1430 LINE"
);
},
{
closed = 1;
nodes = (
"78 -551 LINE",
"-47 -551 LINE",
"-47 -426 LINE",
"78 -426 LINE"
);
}
);
width = 1125;
}
);
note = slash;
unicode = 002F;
},
{
glyphname = colon;
lastChange = "2021-07-12 13:17:18 +0000";
layers = (
{
layerId = "AC43567E-C337-40C0-B780-8BB3F06D1FA4";
paths = (
{
closed = 1;
nodes = (
"625 625 LINE",
"500 625 LINE",
"500 750 LINE",
"625 750 LINE"
);
},
{
closed = 1;
nodes = (
"750 625 LINE",
"625 625 LINE",
"625 750 LINE",
"750 750 LINE"
);
},
{
closed = 1;
nodes = (
"625 500 LINE",
"500 500 LINE",
"500 625 LINE",
"625 625 LINE"
);
},
{
closed = 1;
nodes = (
"750 500 LINE",
"625 500 LINE",
"625 625 LINE",
"750 625 LINE"
);
},
{
closed = 1;
nodes = (
"625 125 LINE",
"500 125 LINE",
"500 250 LINE",
"625 250 LINE"
);
},
{
closed = 1;
nodes = (
"750 125 LINE",
"625 125 LINE",
"625 250 LINE",
"750 250 LINE"
);
},
{
closed = 1;
nodes = (
"625 0 LINE",
"500 0 LINE",
"500 125 LINE",
"625 125 LINE"
);
},
{
closed = 1;
nodes = (
"750 0 LINE",
"625 0 LINE",
"625 125 LINE",
"750 125 LINE"
);
}
);
width = 875;
},
{
layerId = "2C46A1C2-E2B6-44B8-927E-E05F8288DB30";
paths = (
{
closed = 1;
nodes = (
"-114 824 LINE",
"-239 824 LINE",
"-239 949 LINE",
"-114 949 LINE"
);
},
{
closed = 1;
nodes = (
"-81 1407 LINE",
"-206 1407 LINE",
"-206 1532 LINE",
"-81 1532 LINE"
);
},
{
closed = 1;
nodes = (
"1332 1027 LINE",
"1207 1027 LINE",
"1207 1152 LINE",
"1332 1152 LINE"
);
},
{
closed = 1;
nodes = (
"1120 -553 LINE",
"995 -553 LINE",
"995 -428 LINE",
"1120 -428 LINE"
);
},
{
closed = 1;
nodes = (
"258 1226 LINE",
"133 1226 LINE",
"133 1351 LINE",
"258 1351 LINE"
);
},
{
closed = 1;
nodes = (
"-637 -1131 LINE",
"-762 -1131 LINE",
"-762 -1006 LINE",
"-637 -1006 LINE"
);
},
{
closed = 1;
nodes = (
"1384 194 LINE",
"1259 194 LINE",
"1259 319 LINE",
"1384 319 LINE"
);
},
{
closed = 1;
nodes = (
"169 -1031 LINE",
"44 -1031 LINE",
"44 -906 LINE",
"169 -906 LINE"
);
}
);
width = 875;
}
);
note = colon;
unicode = 003A;
},
{
glyphname = semicolon;
lastChange = "2021-07-12 13:17:18 +0000";
layers = (
{
layerId = "AC43567E-C337-40C0-B780-8BB3F06D1FA4";
paths = (
{
closed = 1;
nodes = (
"625 625 LINE",
"500 625 LINE",
"500 750 LINE",
"625 750 LINE"
);
},
{
closed = 1;
nodes = (
"750 625 LINE",
"625 625 LINE",
"625 750 LINE",
"750 750 LINE"
);
},
{
closed = 1;
nodes = (
"625 500 LINE",
"500 500 LINE",
"500 625 LINE",
"625 625 LINE"
);
},
{
closed = 1;
nodes = (
"750 500 LINE",
"625 500 LINE",
"625 625 LINE",
"750 625 LINE"
);
},
{
closed = 1;
nodes = (
"625 125 LINE",
"500 125 LINE",
"500 250 LINE",
"625 250 LINE"
);
},
{
closed = 1;
nodes = (
"750 125 LINE",
"625 125 LINE",
"625 250 LINE",
"750 250 LINE"
);
},
{
closed = 1;
nodes = (
"625 0 LINE",
"500 0 LINE",
"500 125 LINE",
"625 125 LINE"
);
},
{
closed = 1;
nodes = (
"750 0 LINE",
"625 0 LINE",
"625 125 LINE",
"750 125 LINE"
);
},
{
closed = 1;
nodes = (
"500 -125 LINE",
"375 -125 LINE",
"375 0 LINE",
"500 0 LINE"
);
},
{
closed = 1;
nodes = (
"625 -125 LINE",
"500 -125 LINE",
"500 0 LINE",
"625 0 LINE"
);
}
);
width = 875;
},
{
layerId = "2C46A1C2-E2B6-44B8-927E-E05F8288DB30";
paths = (
{
closed = 1;
nodes = (
"790 1354 LINE",
"665 1354 LINE",
"665 1479 LINE",
"790 1479 LINE"
);
},
{
closed = 1;
nodes = (
"157 1865 LINE",
"32 1865 LINE",
"32 1990 LINE",
"157 1990 LINE"
);
},
{
closed = 1;
nodes = (
"-643 1970 LINE",
"-768 1970 LINE",
"-768 2095 LINE",
"-643 2095 LINE"
);
},
{
closed = 1;
nodes = (
"1875 -306 LINE",
"1750 -306 LINE",
"1750 -181 LINE",
"1875 -181 LINE"
);
},
{
closed = 1;
nodes = (
"2015 1064 LINE",
"1890 1064 LINE",
"1890 1189 LINE",
"2015 1189 LINE"
);
},
{
closed = 1;
nodes = (
"1555 -492 LINE",
"1430 -492 LINE",
"1430 -367 LINE",
"1555 -367 LINE"
);
},
{
closed = 1;
nodes = (
"-717 439 LINE",
"-842 439 LINE",
"-842 564 LINE",
"-717 564 LINE"
);
},
{
closed = 1;
nodes = (
"915 619 LINE",
"790 619 LINE",
"790 744 LINE",
"915 744 LINE"
);
},
{
closed = 1;
nodes = (
"1595 -1105 LINE",
"1470 -1105 LINE",
"1470 -980 LINE",
"1595 -980 LINE"
);
},
{
closed = 1;
nodes = (
"415 -951 LINE",
"290 -951 LINE",
"290 -826 LINE",
"415 -826 LINE"
);
}
);
width = 875;
}
);
note = semicolon;
unicode = 003B;
},
{
glyphname = less;
lastChange = "2021-07-12 13:17:18 +0000";
layers = (
{
layerId = "AC43567E-C337-40C0-B780-8BB3F06D1FA4";
paths = (
{
closed = 1;
nodes = (
"875 750 LINE",
"750 750 LINE",
"750 875 LINE",
"875 875 LINE"
);
},
{
closed = 1;
nodes = (
"1000 750 LINE",
"875 750 LINE",
"875 875 LINE",
"1000 875 LINE"
);
},
{
closed = 1;
nodes = (
"750 625 LINE",
"625 625 LINE",
"625 750 LINE",
"750 750 LINE"
);
},
{
closed = 1;
nodes = (
"875 625 LINE",
"750 625 LINE",
"750 750 LINE",
"875 750 LINE"
);
},
{
closed = 1;
nodes = (
"625 500 LINE",
"500 500 LINE",
"500 625 LINE",
"625 625 LINE"
);
},
{
closed = 1;
nodes = (
"750 500 LINE",
"625 500 LINE",
"625 625 LINE",
"750 625 LINE"
);
},
{
closed = 1;
nodes = (
"500 375 LINE",
"375 375 LINE",
"375 500 LINE",
"500 500 LINE"
);
},
{
closed = 1;
nodes = (
"625 375 LINE",
"500 375 LINE",
"500 500 LINE",
"625 500 LINE"
);
},
{
closed = 1;
nodes = (
"625 250 LINE",
"500 250 LINE",
"500 375 LINE",
"625 375 LINE"
);
},
{
closed = 1;
nodes = (
"750 250 LINE",
"625 250 LINE",
"625 375 LINE",
"750 375 LINE"
);
},
{
closed = 1;
nodes = (
"750 125 LINE",
"625 125 LINE",
"625 250 LINE",
"750 250 LINE"
);
},
{
closed = 1;
nodes = (
"875 125 LINE",
"750 125 LINE",
"750 250 LINE",
"875 250 LINE"
);
},
{
closed = 1;
nodes = (
"875 0 LINE",
"750 0 LINE",
"750 125 LINE",
"875 125 LINE"
);
},
{
closed = 1;
nodes = (
"1000 0 LINE",
"875 0 LINE",
"875 125 LINE",
"1000 125 LINE"
);
}
);
width = 1125;
},
{
layerId = "2C46A1C2-E2B6-44B8-927E-E05F8288DB30";
paths = (
{
closed = 1;
nodes = (
"1330 296 LINE",
"1205 296 LINE",
"1205 421 LINE",
"1330 421 LINE"
);
},
{
closed = 1;
nodes = (
"2224 -721 LINE",
"2099 -721 LINE",
"2099 -596 LINE",
"2224 -596 LINE"
);
},
{
closed = 1;
nodes = (
"1163 -160 LINE",
"1038 -160 LINE",
"1038 -35 LINE",
"1163 -35 LINE"
);
},
{
closed = 1;
nodes = (
"745 -415 LINE",
"620 -415 LINE",
"620 -290 LINE",
"745 -290 LINE"
);
},
{
closed = 1;
nodes = (
"1558 251 LINE",
"1433 251 LINE",
"1433 376 LINE",
"1558 376 LINE"
);
},
{
closed = 1;
nodes = (
"1 1656 LINE",
"-124 1656 LINE",
"-124 1781 LINE",
"1 1781 LINE"
);
},
{
closed = 1;
nodes = (
"853 823 LINE",
"728 823 LINE",
"728 948 LINE",
"853 948 LINE"
);
},
{
closed = 1;
nodes = (
"1516 -918 LINE",
"1391 -918 LINE",
"1391 -793 LINE",
"1516 -793 LINE"
);
},
{
closed = 1;
nodes = (
"1955 -192 LINE",
"1830 -192 LINE",
"1830 -67 LINE",
"1955 -67 LINE"
);
},
{
closed = 1;
nodes = (
"178 1341 LINE",
"53 1341 LINE",
"53 1466 LINE",
"178 1466 LINE"
);
},
{
closed = 1;
nodes = (
"1812 696 LINE",
"1687 696 LINE",
"1687 821 LINE",
"1812 821 LINE"
);
},
{
closed = 1;
nodes = (
"-289 1428 LINE",
"-414 1428 LINE",
"-414 1553 LINE",
"-289 1553 LINE"
);
},
{
closed = 1;
nodes = (
"2188 -1183 LINE",
"2063 -1183 LINE",
"2063 -1058 LINE",
"2188 -1058 LINE"
);
},
{
closed = 1;
nodes = (
"2110 -986 LINE",
"1985 -986 LINE",
"1985 -861 LINE",
"2110 -861 LINE"
);
}
);
width = 1125;
}
);
note = less;
unicode = 003C;
},
{
glyphname = equal;
lastChange = "2021-07-12 13:17:18 +0000";
layers = (
{
layerId = "AC43567E-C337-40C0-B780-8BB3F06D1FA4";
paths = (
{
closed = 1;
nodes = (
"375 500 LINE",
"250 500 LINE",
"250 625 LINE",
"375 625 LINE"
);
},
{
closed = 1;
nodes = (
"500 500 LINE",
"375 500 LINE",
"375 625 LINE",
"500 625 LINE"
);
},
{
closed = 1;
nodes = (
"625 500 LINE",
"500 500 LINE",
"500 625 LINE",
"625 625 LINE"
);
},
{
closed = 1;
nodes = (
"750 500 LINE",
"625 500 LINE",
"625 625 LINE",
"750 625 LINE"
);
},
{
closed = 1;
nodes = (
"875 500 LINE",
"750 500 LINE",
"750 625 LINE",
"875 625 LINE"
);
},
{
closed = 1;
nodes = (
"1000 500 LINE",
"875 500 LINE",
"875 625 LINE",
"1000 625 LINE"
);
},
{
closed = 1;
nodes = (
"375 125 LINE",
"250 125 LINE",
"250 250 LINE",
"375 250 LINE"
);
},
{
closed = 1;
nodes = (
"500 125 LINE",
"375 125 LINE",
"375 250 LINE",
"500 250 LINE"
);
},
{
closed = 1;
nodes = (
"625 125 LINE",
"500 125 LINE",
"500 250 LINE",
"625 250 LINE"
);
},
{
closed = 1;
nodes = (
"750 125 LINE",
"625 125 LINE",
"625 250 LINE",
"750 250 LINE"
);
},
{
closed = 1;
nodes = (
"875 125 LINE",
"750 125 LINE",
"750 250 LINE",
"875 250 LINE"
);
},
{
closed = 1;
nodes = (
"1000 125 LINE",
"875 125 LINE",
"875 250 LINE",
"1000 250 LINE"
);
}
);
width = 1125;
},
{
layerId = "2C46A1C2-E2B6-44B8-927E-E05F8288DB30";
paths = (
{
closed = 1;
nodes = (
"1774 -618 LINE",
"1649 -618 LINE",
"1649 -493 LINE",
"1774 -493 LINE"
);
},
{
closed = 1;
nodes = (
"837 -92 LINE",
"712 -92 LINE",
"712 33 LINE",
"837 33 LINE"
);
},
{
closed = 1;
nodes = (
"-362 1857 LINE",
"-487 1857 LINE",
"-487 1982 LINE",
"-362 1982 LINE"
);
},
{
closed = 1;
nodes = (
"-121 1195 LINE",
"-246 1195 LINE",
"-246 1320 LINE",
"-121 1320 LINE"
);
},
{
closed = 1;
nodes = (
"1264 1371 LINE",
"1139 1371 LINE",
"1139 1496 LINE",
"1264 1496 LINE"
);
},
{
closed = 1;
nodes = (
"2247 1710 LINE",
"2122 1710 LINE",
"2122 1835 LINE",
"2247 1835 LINE"
);
},
{
closed = 1;
nodes = (
"1159 946 LINE",
"1034 946 LINE",
"1034 1071 LINE",
"1159 1071 LINE"
);
},
{
closed = 1;
nodes = (
"1503 860 LINE",
"1378 860 LINE",
"1378 985 LINE",
"1503 985 LINE"
);
},
{
closed = 1;
nodes = (
"115 660 LINE",
"-10 660 LINE",
"-10 785 LINE",
"115 785 LINE"
);
},
{
closed = 1;
nodes = (
"-688 -188 LINE",
"-813 -188 LINE",
"-813 -63 LINE",
"-688 -63 LINE"
);
},
{
closed = 1;
nodes = (
"315 -1239 LINE",
"190 -1239 LINE",
"190 -1114 LINE",
"315 -1114 LINE"
);
},
{
closed = 1;
nodes = (
"1523 747 LINE",
"1398 747 LINE",
"1398 872 LINE",
"1523 872 LINE"
);
}
);
width = 1125;
}
);
note = equal;
unicode = 003D;
},
{
glyphname = greater;
lastChange = "2021-07-12 13:17:18 +0000";
layers = (
{
layerId = "AC43567E-C337-40C0-B780-8BB3F06D1FA4";
paths = (
{
closed = 1;
nodes = (
"500 750 LINE",
"375 750 LINE",
"375 875 LINE",
"500 875 LINE"
);
},
{
closed = 1;
nodes = (
"625 750 LINE",
"500 750 LINE",
"500 875 LINE",
"625 875 LINE"
);
},
{
closed = 1;
nodes = (
"625 625 LINE",
"500 625 LINE",
"500 750 LINE",
"625 750 LINE"
);
},
{
closed = 1;
nodes = (
"750 625 LINE",
"625 625 LINE",
"625 750 LINE",
"750 750 LINE"
);
},
{
closed = 1;
nodes = (
"750 500 LINE",
"625 500 LINE",
"625 625 LINE",
"750 625 LINE"
);
},
{
closed = 1;
nodes = (
"875 500 LINE",
"750 500 LINE",
"750 625 LINE",
"875 625 LINE"
);
},
{
closed = 1;
nodes = (
"875 375 LINE",
"750 375 LINE",
"750 500 LINE",
"875 500 LINE"
);
},
{
closed = 1;
nodes = (
"1000 375 LINE",
"875 375 LINE",
"875 500 LINE",
"1000 500 LINE"
);
},
{
closed = 1;
nodes = (
"750 250 LINE",
"625 250 LINE",
"625 375 LINE",
"750 375 LINE"
);
},
{
closed = 1;
nodes = (
"875 250 LINE",
"750 250 LINE",
"750 375 LINE",
"875 375 LINE"
);
},
{
closed = 1;
nodes = (
"625 125 LINE",
"500 125 LINE",
"500 250 LINE",
"625 250 LINE"
);
},
{
closed = 1;
nodes = (
"750 125 LINE",
"625 125 LINE",
"625 250 LINE",
"750 250 LINE"
);
},
{
closed = 1;
nodes = (
"500 0 LINE",
"375 0 LINE",
"375 125 LINE",
"500 125 LINE"
);
},
{
closed = 1;
nodes = (
"625 0 LINE",
"500 0 LINE",
"500 125 LINE",
"625 125 LINE"
);
}
);
width = 1125;
},
{
layerId = "2C46A1C2-E2B6-44B8-927E-E05F8288DB30";
paths = (
{
closed = 1;
nodes = (
"230 -405 LINE",
"105 -405 LINE",
"105 -280 LINE",
"230 -280 LINE"
);
},
{
closed = 1;
nodes = (
"-449 277 LINE",
"-574 277 LINE",
"-574 402 LINE",
"-449 402 LINE"
);
},
{
closed = 1;
nodes = (
"993 -96 LINE",
"868 -96 LINE",
"868 29 LINE",
"993 29 LINE"
);
},
{
closed = 1;
nodes = (
"280 1437 LINE",
"155 1437 LINE",
"155 1562 LINE",
"280 1562 LINE"
);
},
{
closed = 1;
nodes = (
"337 788 LINE",
"212 788 LINE",
"212 913 LINE",
"337 913 LINE"
);
},
{
closed = 1;
nodes = (
"1138 -366 LINE",
"1013 -366 LINE",
"1013 -241 LINE",
"1138 -241 LINE"
);
},
{
closed = 1;
nodes = (
"2255 1625 LINE",
"2130 1625 LINE",
"2130 1750 LINE",
"2255 1750 LINE"
);
},
{
closed = 1;
nodes = (
"1741 1345 LINE",
"1616 1345 LINE",
"1616 1470 LINE",
"1741 1470 LINE"
);
},
{
closed = 1;
nodes = (
"-21 -1072 LINE",
"-146 -1072 LINE",
"-146 -947 LINE",
"-21 -947 LINE"
);
},
{
closed = 1;
nodes = (
"296 1375 LINE",
"171 1375 LINE",
"171 1500 LINE",
"296 1500 LINE"
);
},
{
closed = 1;
nodes = (
"1161 1612 LINE",
"1036 1612 LINE",
"1036 1737 LINE",
"1161 1737 LINE"
);
},
{
closed = 1;
nodes = (
"2068 -968 LINE",
"1943 -968 LINE",
"1943 -843 LINE",
"2068 -843 LINE"
);
},
{
closed = 1;
nodes = (
"668 -1327 LINE",
"543 -1327 LINE",
"543 -1202 LINE",
"668 -1202 LINE"
);
},
{
closed = 1;
nodes = (
"1069 -964 LINE",
"944 -964 LINE",
"944 -839 LINE",
"1069 -839 LINE"
);
}
);
width = 1125;
}
);
note = greater;
unicode = 003E;
},
{
glyphname = question;
lastChange = "2021-07-12 13:17:18 +0000";
layers = (
{
layerId = "AC43567E-C337-40C0-B780-8BB3F06D1FA4";
paths = (
{
closed = 1;
nodes = (
"375 750 LINE",
"250 750 LINE",
"250 875 LINE",
"375 875 LINE"
);
},
{
closed = 1;
nodes = (
"500 750 LINE",
"375 750 LINE",
"375 875 LINE",
"500 875 LINE"
);
},
{
closed = 1;
nodes = (
"625 750 LINE",
"500 750 LINE",
"500 875 LINE",
"625 875 LINE"
);
},
{
closed = 1;
nodes = (
"750 750 LINE",
"625 750 LINE",
"625 875 LINE",
"750 875 LINE"
);
},
{
closed = 1;
nodes = (
"875 750 LINE",
"750 750 LINE",
"750 875 LINE",
"875 875 LINE"
);
},
{
closed = 1;
nodes = (
"250 625 LINE",
"125 625 LINE",
"125 750 LINE",
"250 750 LINE"
);
},
{
closed = 1;
nodes = (
"375 625 LINE",
"250 625 LINE",
"250 750 LINE",
"375 750 LINE"
);
},
{
closed = 1;
nodes = (
"875 625 LINE",
"750 625 LINE",
"750 750 LINE",
"875 750 LINE"
);
},
{
closed = 1;
nodes = (
"1000 625 LINE",
"875 625 LINE",
"875 750 LINE",
"1000 750 LINE"
);
},
{
closed = 1;
nodes = (
"750 500 LINE",
"625 500 LINE",
"625 625 LINE",
"750 625 LINE"
);
},
{
closed = 1;
nodes = (
"875 500 LINE",
"750 500 LINE",
"750 625 LINE",
"875 625 LINE"
);
},
{
closed = 1;
nodes = (
"625 375 LINE",
"500 375 LINE",
"500 500 LINE",
"625 500 LINE"
);
},
{
closed = 1;
nodes = (
"750 375 LINE",
"625 375 LINE",
"625 500 LINE",
"750 500 LINE"
);
},
{
closed = 1;
nodes = (
"625 250 LINE",
"500 250 LINE",
"500 375 LINE",
"625 375 LINE"
);
},
{
closed = 1;
nodes = (
"750 250 LINE",
"625 250 LINE",
"625 375 LINE",
"750 375 LINE"
);
},
{
closed = 1;
nodes = (
"625 0 LINE",
"500 0 LINE",
"500 125 LINE",
"625 125 LINE"
);
},
{
closed = 1;
nodes = (
"750 0 LINE",
"625 0 LINE",
"625 125 LINE",
"750 125 LINE"
);
}
);
width = 1125;
},
{
layerId = "2C46A1C2-E2B6-44B8-927E-E05F8288DB30";
paths = (
{
closed = 1;
nodes = (
"1220 -177 LINE",
"1095 -177 LINE",
"1095 -52 LINE",
"1220 -52 LINE"
);
},
{
closed = 1;
nodes = (
"-546 1331 LINE",
"-671 1331 LINE",
"-671 1456 LINE",
"-546 1456 LINE"
);
},
{
closed = 1;
nodes = (
"-240 -441 LINE",
"-365 -441 LINE",
"-365 -316 LINE",
"-240 -316 LINE"
);
},
{
closed = 1;
nodes = (
"1923 -711 LINE",
"1798 -711 LINE",
"1798 -586 LINE",
"1923 -586 LINE"
);
},
{
closed = 1;
nodes = (
"2255 -537 LINE",
"2130 -537 LINE",
"2130 -412 LINE",
"2255 -412 LINE"
);
},
{
closed = 1;
nodes = (
"509 -680 LINE",
"384 -680 LINE",
"384 -555 LINE",
"509 -555 LINE"
);
},
{
closed = 1;
nodes = (
"1854 -601 LINE",
"1729 -601 LINE",
"1729 -476 LINE",
"1854 -476 LINE"
);
},
{
closed = 1;
nodes = (
"-109 1068 LINE",
"-234 1068 LINE",
"-234 1193 LINE",
"-109 1193 LINE"
);
},
{
closed = 1;
nodes = (
"2018 -26 LINE",
"1893 -26 LINE",
"1893 99 LINE",
"2018 99 LINE"
);
},
{
closed = 1;
nodes = (
"1782 1358 LINE",
"1657 1358 LINE",
"1657 1483 LINE",
"1782 1483 LINE"
);
},
{
closed = 1;
nodes = (
"551 1857 LINE",
"426 1857 LINE",
"426 1982 LINE",
"551 1982 LINE"
);
},
{
closed = 1;
nodes = (
"-677 1258 LINE",
"-802 1258 LINE",
"-802 1383 LINE",
"-677 1383 LINE"
);
},
{
closed = 1;
nodes = (
"1547 724 LINE",
"1422 724 LINE",
"1422 849 LINE",
"1547 849 LINE"
);
},
{
closed = 1;
nodes = (
"155 913 LINE",
"30 913 LINE",
"30 1038 LINE",
"155 1038 LINE"
);
},
{
closed = 1;
nodes = (
"2026 1727 LINE",
"1901 1727 LINE",
"1901 1852 LINE",
"2026 1852 LINE"
);
},
{
closed = 1;
nodes = (
"-668 -982 LINE",
"-793 -982 LINE",
"-793 -857 LINE",
"-668 -857 LINE"
);
},
{
closed = 1;
nodes = (
"-654 1490 LINE",
"-779 1490 LINE",
"-779 1615 LINE",
"-654 1615 LINE"
);
}
);
width = 1125;
}
);
note = question;
unicode = 003F;
},
{
glyphname = at;
lastChange = "2021-07-12 13:17:18 +0000";
layers = (
{
layerId = "AC43567E-C337-40C0-B780-8BB3F06D1FA4";
paths = (
{
closed = 1;
nodes = (
"375 750 LINE",
"250 750 LINE",
"250 875 LINE",
"375 875 LINE"
);
},
{
closed = 1;
nodes = (
"500 750 LINE",
"375 750 LINE",
"375 875 LINE",
"500 875 LINE"
);
},
{
closed = 1;
nodes = (
"625 750 LINE",
"500 750 LINE",
"500 875 LINE",
"625 875 LINE"
);
},
{
closed = 1;
nodes = (
"750 750 LINE",
"625 750 LINE",
"625 875 LINE",
"750 875 LINE"
);
},
{
closed = 1;
nodes = (
"875 750 LINE",
"750 750 LINE",
"750 875 LINE",
"875 875 LINE"
);
},
{
closed = 1;
nodes = (
"250 625 LINE",
"125 625 LINE",
"125 750 LINE",
"250 750 LINE"
);
},
{
closed = 1;
nodes = (
"375 625 LINE",
"250 625 LINE",
"250 750 LINE",
"375 750 LINE"
);
},
{
closed = 1;
nodes = (
"875 625 LINE",
"750 625 LINE",
"750 750 LINE",
"875 750 LINE"
);
},
{
closed = 1;
nodes = (
"1000 625 LINE",
"875 625 LINE",
"875 750 LINE",
"1000 750 LINE"
);
},
{
closed = 1;
nodes = (
"250 500 LINE",
"125 500 LINE",
"125 625 LINE",
"250 625 LINE"
);
},
{
closed = 1;
nodes = (
"375 500 LINE",
"250 500 LINE",
"250 625 LINE",
"375 625 LINE"
);
},
{
closed = 1;
nodes = (
"625 500 LINE",
"500 500 LINE",
"500 625 LINE",
"625 625 LINE"
);
},
{
closed = 1;
nodes = (
"750 500 LINE",
"625 500 LINE",
"625 625 LINE",
"750 625 LINE"
);
},
{
closed = 1;
nodes = (
"875 500 LINE",
"750 500 LINE",
"750 625 LINE",
"875 625 LINE"
);
},
{
closed = 1;
nodes = (
"1000 500 LINE",
"875 500 LINE",
"875 625 LINE",
"1000 625 LINE"
);
},
{
closed = 1;
nodes = (
"250 375 LINE",
"125 375 LINE",
"125 500 LINE",
"250 500 LINE"
);
},
{
closed = 1;
nodes = (
"375 375 LINE",
"250 375 LINE",
"250 500 LINE",
"375 500 LINE"
);
},
{
closed = 1;
nodes = (
"625 375 LINE",
"500 375 LINE",
"500 500 LINE",
"625 500 LINE"
);
},
{
closed = 1;
nodes = (
"750 375 LINE",
"625 375 LINE",
"625 500 LINE",
"750 500 LINE"
);
},
{
closed = 1;
nodes = (
"875 375 LINE",
"750 375 LINE",
"750 500 LINE",
"875 500 LINE"
);
},
{
closed = 1;
nodes = (
"1000 375 LINE",
"875 375 LINE",
"875 500 LINE",
"1000 500 LINE"
);
},
{
closed = 1;
nodes = (
"250 250 LINE",
"125 250 LINE",
"125 375 LINE",
"250 375 LINE"
);
},
{
closed = 1;
nodes = (
"375 250 LINE",
"250 250 LINE",
"250 375 LINE",
"375 375 LINE"
);
},
{
closed = 1;
nodes = (
"625 250 LINE",
"500 250 LINE",
"500 375 LINE",
"625 375 LINE"
);
},
{
closed = 1;
nodes = (
"750 250 LINE",
"625 250 LINE",
"625 375 LINE",
"750 375 LINE"
);
},
{
closed = 1;
nodes = (
"875 250 LINE",
"750 250 LINE",
"750 375 LINE",
"875 375 LINE"
);
},
{
closed = 1;
nodes = (
"1000 250 LINE",
"875 250 LINE",
"875 375 LINE",
"1000 375 LINE"
);
},
{
closed = 1;
nodes = (
"250 125 LINE",
"125 125 LINE",
"125 250 LINE",
"250 250 LINE"
);
},
{
closed = 1;
nodes = (
"375 125 LINE",
"250 125 LINE",
"250 250 LINE",
"375 250 LINE"
);
},
{
closed = 1;
nodes = (
"375 0 LINE",
"250 0 LINE",
"250 125 LINE",
"375 125 LINE"
);
},
{
closed = 1;
nodes = (
"500 0 LINE",
"375 0 LINE",
"375 125 LINE",
"500 125 LINE"
);
},
{
closed = 1;
nodes = (
"625 0 LINE",
"500 0 LINE",
"500 125 LINE",
"625 125 LINE"
);
},
{
closed = 1;
nodes = (
"750 0 LINE",
"625 0 LINE",
"625 125 LINE",
"750 125 LINE"
);
}
);
width = 1125;
},
{
layerId = "2C46A1C2-E2B6-44B8-927E-E05F8288DB30";
paths = (
{
closed = 1;
nodes = (
"963 -578 LINE",
"838 -578 LINE",
"838 -453 LINE",
"963 -453 LINE"
);
},
{
closed = 1;
nodes = (
"1693 -563 LINE",
"1568 -563 LINE",
"1568 -438 LINE",
"1693 -438 LINE"
);
},
{
closed = 1;
nodes = (
"997 383 LINE",
"872 383 LINE",
"872 508 LINE",
"997 508 LINE"
);
},
{
closed = 1;
nodes = (
"1943 304 LINE",
"1818 304 LINE",
"1818 429 LINE",
"1943 429 LINE"
);
},
{
closed = 1;
nodes = (
"1062 1441 LINE",
"937 1441 LINE",
"937 1566 LINE",
"1062 1566 LINE"
);
},
{
closed = 1;
nodes = (
"-692 -37 LINE",
"-817 -37 LINE",
"-817 88 LINE",
"-692 88 LINE"
);
},
{
closed = 1;
nodes = (
"-433 127 LINE",
"-558 127 LINE",
"-558 252 LINE",
"-433 252 LINE"
);
},
{
closed = 1;
nodes = (
"481 60 LINE",
"356 60 LINE",
"356 185 LINE",
"481 185 LINE"
);
},
{
closed = 1;
nodes = (
"-324 1984 LINE",
"-449 1984 LINE",
"-449 2109 LINE",
"-324 2109 LINE"
);
},
{
closed = 1;
nodes = (
"562 1329 LINE",
"437 1329 LINE",
"437 1454 LINE",
"562 1454 LINE"
);
},
{
closed = 1;
nodes = (
"1277 719 LINE",
"1152 719 LINE",
"1152 844 LINE",
"1277 844 LINE"
);
},
{
closed = 1;
nodes = (
"-172 1964 LINE",
"-297 1964 LINE",
"-297 2089 LINE",
"-172 2089 LINE"
);
},
{
closed = 1;
nodes = (
"1645 -722 LINE",
"1520 -722 LINE",
"1520 -597 LINE",
"1645 -597 LINE"
);
},
{
closed = 1;
nodes = (
"2223 186 LINE",
"2098 186 LINE",
"2098 311 LINE",
"2223 311 LINE"
);
},
{
closed = 1;
nodes = (
"2313 -640 LINE",
"2188 -640 LINE",
"2188 -515 LINE",
"2313 -515 LINE"
);
},
{
closed = 1;
nodes = (
"411 1343 LINE",
"286 1343 LINE",
"286 1468 LINE",
"411 1468 LINE"
);
},
{
closed = 1;
nodes = (
"1787 164 LINE",
"1662 164 LINE",
"1662 289 LINE",
"1787 289 LINE"
);
},
{
closed = 1;
nodes = (
"-196 1168 LINE",
"-321 1168 LINE",
"-321 1293 LINE",
"-196 1293 LINE"
);
},
{
closed = 1;
nodes = (
"1034 1252 LINE",
"909 1252 LINE",
"909 1377 LINE",
"1034 1377 LINE"
);
},
{
closed = 1;
nodes = (
"1379 -110 LINE",
"1254 -110 LINE",
"1254 15 LINE",
"1379 15 LINE"
);
},
{
closed = 1;
nodes = (
"2295 929 LINE",
"2170 929 LINE",
"2170 1054 LINE",
"2295 1054 LINE"
);
},
{
closed = 1;
nodes = (
"412 37 LINE",
"287 37 LINE",
"287 162 LINE",
"412 162 LINE"
);
},
{
closed = 1;
nodes = (
"863 1268 LINE",
"738 1268 LINE",
"738 1393 LINE",
"863 1393 LINE"
);
},
{
closed = 1;
nodes = (
"960 384 LINE",
"835 384 LINE",
"835 509 LINE",
"960 509 LINE"
);
},
{
closed = 1;
nodes = (
"1193 380 LINE",
"1068 380 LINE",
"1068 505 LINE",
"1193 505 LINE"
);
},
{
closed = 1;
nodes = (
"1840 1583 LINE",
"1715 1583 LINE",
"1715 1708 LINE",
"1840 1708 LINE"
);
},
{
closed = 1;
nodes = (
"-147 -169 LINE",
"-272 -169 LINE",
"-272 -44 LINE",
"-147 -44 LINE"
);
},
{
closed = 1;
nodes = (
"1740 371 LINE",
"1615 371 LINE",
"1615 496 LINE",
"1740 496 LINE"
);
},
{
closed = 1;
nodes = (
"-139 -30 LINE",
"-264 -30 LINE",
"-264 95 LINE",
"-139 95 LINE"
);
},
{
closed = 1;
nodes = (
"1398 1460 LINE",
"1273 1460 LINE",
"1273 1585 LINE",
"1398 1585 LINE"
);
},
{
closed = 1;
nodes = (
"1595 -280 LINE",
"1470 -280 LINE",
"1470 -155 LINE",
"1595 -155 LINE"
);
},
{
closed = 1;
nodes = (
"-237 450 LINE",
"-362 450 LINE",
"-362 575 LINE",
"-237 575 LINE"
);
},
{
closed = 1;
nodes = (
"1242 1495 LINE",
"1117 1495 LINE",
"1117 1620 LINE",
"1242 1620 LINE"
);
}
);
width = 1125;
}
);
note = at;
unicode = 0040;
},
{
glyphname = A;
lastChange = "2021-07-12 13:18:37 +0000";
layers = (
{
layerId = "AC43567E-C337-40C0-B780-8BB3F06D1FA4";
paths = (
{
closed = 1;
nodes = (
"500 750 LINE",
"375 750 LINE",
"375 875 LINE",
"500 875 LINE"
);
},
{
closed = 1;
nodes = (
"625 750 LINE",
"500 750 LINE",
"500 875 LINE",
"625 875 LINE"
);
},
{
closed = 1;
nodes = (
"750 750 LINE",
"625 750 LINE",
"625 875 LINE",
"750 875 LINE"
);
},
{
closed = 1;
nodes = (
"375 625 LINE",
"250 625 LINE",
"250 750 LINE",
"375 750 LINE"
);
},
{
closed = 1;
nodes = (
"500 625 LINE",
"375 625 LINE",
"375 750 LINE",
"500 750 LINE"
);
},
{
closed = 1;
nodes = (
"750 625 LINE",
"625 625 LINE",
"625 750 LINE",
"750 750 LINE"
);
},
{
closed = 1;
nodes = (
"875 625 LINE",
"750 625 LINE",
"750 750 LINE",
"875 750 LINE"
);
},
{
closed = 1;
nodes = (
"250 500 LINE",
"125 500 LINE",
"125 625 LINE",
"250 625 LINE"
);
},
{
closed = 1;
nodes = (
"375 500 LINE",
"250 500 LINE",
"250 625 LINE",
"375 625 LINE"
);
},
{
closed = 1;
nodes = (
"875 500 LINE",
"750 500 LINE",
"750 625 LINE",
"875 625 LINE"
);
},
{
closed = 1;
nodes = (
"1000 500 LINE",
"875 500 LINE",
"875 625 LINE",
"1000 625 LINE"
);
},
{
closed = 1;
nodes = (
"250 375 LINE",
"125 375 LINE",
"125 500 LINE",
"250 500 LINE"
);
},
{
closed = 1;
nodes = (
"375 375 LINE",
"250 375 LINE",
"250 500 LINE",
"375 500 LINE"
);
},
{
closed = 1;
nodes = (
"500 375 LINE",
"375 375 LINE",
"375 500 LINE",
"500 500 LINE"
);
},
{
closed = 1;
nodes = (
"625 375 LINE",
"500 375 LINE",
"500 500 LINE",
"625 500 LINE"
);
},
{
closed = 1;
nodes = (
"750 375 LINE",
"625 375 LINE",
"625 500 LINE",
"750 500 LINE"
);
},
{
closed = 1;
nodes = (
"875 375 LINE",
"750 375 LINE",
"750 500 LINE",
"875 500 LINE"
);
},
{
closed = 1;
nodes = (
"1000 375 LINE",
"875 375 LINE",
"875 500 LINE",
"1000 500 LINE"
);
},
{
closed = 1;
nodes = (
"250 250 LINE",
"125 250 LINE",
"125 375 LINE",
"250 375 LINE"
);
},
{
closed = 1;
nodes = (
"375 250 LINE",
"250 250 LINE",
"250 375 LINE",
"375 375 LINE"
);
},
{
closed = 1;
nodes = (
"875 250 LINE",
"750 250 LINE",
"750 375 LINE",
"875 375 LINE"
);
},
{
closed = 1;
nodes = (
"1000 250 LINE",
"875 250 LINE",
"875 375 LINE",
"1000 375 LINE"
);
},
{
closed = 1;
nodes = (
"250 125 LINE",
"125 125 LINE",
"125 250 LINE",
"250 250 LINE"
);
},
{
closed = 1;
nodes = (
"375 125 LINE",
"250 125 LINE",
"250 250 LINE",
"375 250 LINE"
);
},
{
closed = 1;
nodes = (
"875 125 LINE",
"750 125 LINE",
"750 250 LINE",
"875 250 LINE"
);
},
{
closed = 1;
nodes = (
"1000 125 LINE",
"875 125 LINE",
"875 250 LINE",
"1000 250 LINE"
);
},
{
closed = 1;
nodes = (
"250 0 LINE",
"125 0 LINE",
"125 125 LINE",
"250 125 LINE"
);
},
{
closed = 1;
nodes = (
"375 0 LINE",
"250 0 LINE",
"250 125 LINE",
"375 125 LINE"
);
},
{
closed = 1;
nodes = (
"875 0 LINE",
"750 0 LINE",
"750 125 LINE",
"875 125 LINE"
);
},
{
closed = 1;
nodes = (
"1000 0 LINE",
"875 0 LINE",
"875 125 LINE",
"1000 125 LINE"
);
}
);
width = 1125;
},
{
layerId = "2C46A1C2-E2B6-44B8-927E-E05F8288DB30";
paths = (
{
closed = 1;
nodes = (
"-373 1982 LINE",
"-498 1982 LINE",
"-498 2107 LINE",
"-373 2107 LINE"
);
},
{
closed = 1;
nodes = (
"-374 1908 LINE",
"-499 1908 LINE",
"-499 2033 LINE",
"-374 2033 LINE"
);
},
{
closed = 1;
nodes = (
"17 1060 LINE",
"-108 1060 LINE",
"-108 1185 LINE",
"17 1185 LINE"
);
},
{
closed = 1;
nodes = (
"574 256 LINE",
"449 256 LINE",
"449 381 LINE",
"574 381 LINE"
);
},
{
closed = 1;
nodes = (
"-247 1949 LINE",
"-372 1949 LINE",
"-372 2074 LINE",
"-247 2074 LINE"
);
},
{
closed = 1;
nodes = (
"-186 -608 LINE",
"-311 -608 LINE",
"-311 -483 LINE",
"-186 -483 LINE"
);
},
{
closed = 1;
nodes = (
"-493 912 LINE",
"-618 912 LINE",
"-618 1037 LINE",
"-493 1037 LINE"
);
},
{
closed = 1;
nodes = (
"385 297 LINE",
"260 297 LINE",
"260 422 LINE",
"385 422 LINE"
);
},
{
closed = 1;
nodes = (
"679 1776 LINE",
"554 1776 LINE",
"554 1901 LINE",
"679 1901 LINE"
);
},
{
closed = 1;
nodes = (
"148 0 LINE",
"23 0 LINE",
"23 125 LINE",
"148 125 LINE"
);
},
{
closed = 1;
nodes = (
"2359 -58 LINE",
"2234 -58 LINE",
"2234 67 LINE",
"2359 67 LINE"
);
},
{
closed = 1;
nodes = (
"941 -982 LINE",
"816 -982 LINE",
"816 -857 LINE",
"941 -857 LINE"
);
},
{
closed = 1;
nodes = (
"1385 -627 LINE",
"1260 -627 LINE",
"1260 -502 LINE",
"1385 -502 LINE"
);
},
{
closed = 1;
nodes = (
"-80 1422 LINE",
"-205 1422 LINE",
"-205 1547 LINE",
"-80 1547 LINE"
);
},
{
closed = 1;
nodes = (
"-340 632 LINE",
"-465 632 LINE",
"-465 757 LINE",
"-340 757 LINE"
);
},
{
closed = 1;
nodes = (
"1356 -187 LINE",
"1231 -187 LINE",
"1231 -62 LINE",
"1356 -62 LINE"
);
},
{
closed = 1;
nodes = (
"198 1708 LINE",
"73 1708 LINE",
"73 1833 LINE",
"198 1833 LINE"
);
},
{
closed = 1;
nodes = (
"1497 -377 LINE",
"1372 -377 LINE",
"1372 -252 LINE",
"1497 -252 LINE"
);
},
{
closed = 1;
nodes = (
"1087 676 LINE",
"962 676 LINE",
"962 801 LINE",
"1087 801 LINE"
);
},
{
closed = 1;
nodes = (
"-1061 -15 LINE",
"-1186 -15 LINE",
"-1186 110 LINE",
"-1061 110 LINE"
);
},
{
closed = 1;
nodes = (
"394 592 LINE",
"269 592 LINE",
"269 717 LINE",
"394 717 LINE"
);
},
{
closed = 1;
nodes = (
"-280 947 LINE",
"-405 947 LINE",
"-405 1072 LINE",
"-280 1072 LINE"
);
},
{
closed = 1;
nodes = (
"-948 959 LINE",
"-1073 959 LINE",
"-1073 1084 LINE",
"-948 1084 LINE"
);
},
{
closed = 1;
nodes = (
"209 829 LINE",
"84 829 LINE",
"84 954 LINE",
"209 954 LINE"
);
},
{
closed = 1;
nodes = (
"341 -981 LINE",
"216 -981 LINE",
"216 -856 LINE",
"341 -856 LINE"
);
},
{
closed = 1;
nodes = (
"1424 900 LINE",
"1299 900 LINE",
"1299 1025 LINE",
"1424 1025 LINE"
);
},
{
closed = 1;
nodes = (
"-1002 1025 LINE",
"-1127 1025 LINE",
"-1127 1150 LINE",
"-1002 1150 LINE"
);
},
{
closed = 1;
nodes = (
"147 986 LINE",
"22 986 LINE",
"22 1111 LINE",
"147 1111 LINE"
);
},
{
closed = 1;
nodes = (
"176 -1421 LINE",
"51 -1421 LINE",
"51 -1296 LINE",
"176 -1296 LINE"
);
},
{
closed = 1;
nodes = (
"348 -909 LINE",
"223 -909 LINE",
"223 -784 LINE",
"348 -784 LINE"
);
}
);
width = 1125;
}
);
note = A;
unicode = 0041;
},
{
glyphname = B;
lastChange = "2021-07-12 13:17:18 +0000";
layers = (
{
layerId = "AC43567E-C337-40C0-B780-8BB3F06D1FA4";
paths = (
{
closed = 1;
nodes = (
"250 750 LINE",
"125 750 LINE",
"125 875 LINE",
"250 875 LINE"
);
},
{
closed = 1;
nodes = (
"375 750 LINE",
"250 750 LINE",
"250 875 LINE",
"375 875 LINE"
);
},
{
closed = 1;
nodes = (
"500 750 LINE",
"375 750 LINE",
"375 875 LINE",
"500 875 LINE"
);
},
{
closed = 1;
nodes = (
"625 750 LINE",
"500 750 LINE",
"500 875 LINE",
"625 875 LINE"
);
},
{
closed = 1;
nodes = (
"750 750 LINE",
"625 750 LINE",
"625 875 LINE",
"750 875 LINE"
);
},
{
closed = 1;
nodes = (
"875 750 LINE",
"750 750 LINE",
"750 875 LINE",
"875 875 LINE"
);
},
{
closed = 1;
nodes = (
"375 625 LINE",
"250 625 LINE",
"250 750 LINE",
"375 750 LINE"
);
},
{
closed = 1;
nodes = (
"500 625 LINE",
"375 625 LINE",
"375 750 LINE",
"500 750 LINE"
);
},
{
closed = 1;
nodes = (
"875 625 LINE",
"750 625 LINE",
"750 750 LINE",
"875 750 LINE"
);
},
{
closed = 1;
nodes = (
"1000 625 LINE",
"875 625 LINE",
"875 750 LINE",
"1000 750 LINE"
);
},
{
closed = 1;
nodes = (
"375 500 LINE",
"250 500 LINE",
"250 625 LINE",
"375 625 LINE"
);
},
{
closed = 1;
nodes = (
"500 500 LINE",
"375 500 LINE",
"375 625 LINE",
"500 625 LINE"
);
},
{
closed = 1;
nodes = (
"875 500 LINE",
"750 500 LINE",
"750 625 LINE",
"875 625 LINE"
);
},
{
closed = 1;
nodes = (
"1000 500 LINE",
"875 500 LINE",
"875 625 LINE",
"1000 625 LINE"
);
},
{
closed = 1;
nodes = (
"375 375 LINE",
"250 375 LINE",
"250 500 LINE",
"375 500 LINE"
);
},
{
closed = 1;
nodes = (
"500 375 LINE",
"375 375 LINE",
"375 500 LINE",
"500 500 LINE"
);
},
{
closed = 1;
nodes = (
"625 375 LINE",
"500 375 LINE",
"500 500 LINE",
"625 500 LINE"
);
},
{
closed = 1;
nodes = (
"750 375 LINE",
"625 375 LINE",
"625 500 LINE",
"750 500 LINE"
);
},
{
closed = 1;
nodes = (
"875 375 LINE",
"750 375 LINE",
"750 500 LINE",
"875 500 LINE"
);
},
{
closed = 1;
nodes = (
"375 250 LINE",
"250 250 LINE",
"250 375 LINE",
"375 375 LINE"
);
},
{
closed = 1;
nodes = (
"500 250 LINE",
"375 250 LINE",
"375 375 LINE",
"500 375 LINE"
);
},
{
closed = 1;
nodes = (
"875 250 LINE",
"750 250 LINE",
"750 375 LINE",
"875 375 LINE"
);
},
{
closed = 1;
nodes = (
"1000 250 LINE",
"875 250 LINE",
"875 375 LINE",
"1000 375 LINE"
);
},
{
closed = 1;
nodes = (
"375 125 LINE",
"250 125 LINE",
"250 250 LINE",
"375 250 LINE"
);
},
{
closed = 1;
nodes = (
"500 125 LINE",
"375 125 LINE",
"375 250 LINE",
"500 250 LINE"
);
},
{
closed = 1;
nodes = (
"875 125 LINE",
"750 125 LINE",
"750 250 LINE",
"875 250 LINE"
);
},
{
closed = 1;
nodes = (
"1000 125 LINE",
"875 125 LINE",
"875 250 LINE",
"1000 250 LINE"
);
},
{
closed = 1;
nodes = (
"250 0 LINE",
"125 0 LINE",
"125 125 LINE",
"250 125 LINE"
);
},
{
closed = 1;
nodes = (
"375 0 LINE",
"250 0 LINE",
"250 125 LINE",
"375 125 LINE"
);
},
{
closed = 1;
nodes = (
"500 0 LINE",
"375 0 LINE",
"375 125 LINE",
"500 125 LINE"
);
},
{
closed = 1;
nodes = (
"625 0 LINE",
"500 0 LINE",
"500 125 LINE",
"625 125 LINE"
);
},
{
closed = 1;
nodes = (
"750 0 LINE",
"625 0 LINE",
"625 125 LINE",
"750 125 LINE"
);
},
{
closed = 1;
nodes = (
"875 0 LINE",
"750 0 LINE",
"750 125 LINE",
"875 125 LINE"
);
}
);
width = 1125;
},
{
layerId = "2C46A1C2-E2B6-44B8-927E-E05F8288DB30";
paths = (
{
closed = 1;
nodes = (
"744 -474 LINE",
"619 -474 LINE",
"619 -349 LINE",
"744 -349 LINE"
);
},
{
closed = 1;
nodes = (
"1390 1544 LINE",
"1265 1544 LINE",
"1265 1669 LINE",
"1390 1669 LINE"
);
},
{
closed = 1;
nodes = (
"1252 150 LINE",
"1127 150 LINE",
"1127 275 LINE",
"1252 275 LINE"
);
},
{
closed = 1;
nodes = (
"2121 -303 LINE",
"1996 -303 LINE",
"1996 -178 LINE",
"2121 -178 LINE"
);
},
{
closed = 1;
nodes = (
"-479 1102 LINE",
"-604 1102 LINE",
"-604 1227 LINE",
"-479 1227 LINE"
);
},
{
closed = 1;
nodes = (
"584 1576 LINE",
"459 1576 LINE",
"459 1701 LINE",
"584 1701 LINE"
);
},
{
closed = 1;
nodes = (
"-201 1839 LINE",
"-326 1839 LINE",
"-326 1964 LINE",
"-201 1964 LINE"
);
},
{
closed = 1;
nodes = (
"-730 -40 LINE",
"-855 -40 LINE",
"-855 85 LINE",
"-730 85 LINE"
);
},
{
closed = 1;
nodes = (
"253 1072 LINE",
"128 1072 LINE",
"128 1197 LINE",
"253 1197 LINE"
);
},
{
closed = 1;
nodes = (
"665 -818 LINE",
"540 -818 LINE",
"540 -693 LINE",
"665 -693 LINE"
);
},
{
closed = 1;
nodes = (
"1189 1325 LINE",
"1064 1325 LINE",
"1064 1450 LINE",
"1189 1450 LINE"
);
},
{
closed = 1;
nodes = (
"1321 -848 LINE",
"1196 -848 LINE",
"1196 -723 LINE",
"1321 -723 LINE"
);
},
{
closed = 1;
nodes = (
"318 1052 LINE",
"193 1052 LINE",
"193 1177 LINE",
"318 1177 LINE"
);
},
{
closed = 1;
nodes = (
"619 -136 LINE",
"494 -136 LINE",
"494 -11 LINE",
"619 -11 LINE"
);
},
{
closed = 1;
nodes = (
"887 552 LINE",
"762 552 LINE",
"762 677 LINE",
"887 677 LINE"
);
},
{
closed = 1;
nodes = (
"-107 -55 LINE",
"-232 -55 LINE",
"-232 70 LINE",
"-107 70 LINE"
);
},
{
closed = 1;
nodes = (
"1328 1375 LINE",
"1203 1375 LINE",
"1203 1500 LINE",
"1328 1500 LINE"
);
},
{
closed = 1;
nodes = (
"93 -1011 LINE",
"-32 -1011 LINE",
"-32 -886 LINE",
"93 -886 LINE"
);
},
{
closed = 1;
nodes = (
"-193 1332 LINE",
"-318 1332 LINE",
"-318 1457 LINE",
"-193 1457 LINE"
);
},
{
closed = 1;
nodes = (
"-393 1314 LINE",
"-518 1314 LINE",
"-518 1439 LINE",
"-393 1439 LINE"
);
},
{
closed = 1;
nodes = (
"-259 1305 LINE",
"-384 1305 LINE",
"-384 1430 LINE",
"-259 1430 LINE"
);
},
{
closed = 1;
nodes = (
"2368 1322 LINE",
"2243 1322 LINE",
"2243 1447 LINE",
"2368 1447 LINE"
);
},
{
closed = 1;
nodes = (
"1368 818 LINE",
"1243 818 LINE",
"1243 943 LINE",
"1368 943 LINE"
);
},
{
closed = 1;
nodes = (
"121 1370 LINE",
"-4 1370 LINE",
"-4 1495 LINE",
"121 1495 LINE"
);
},
{
closed = 1;
nodes = (
"-897 -374 LINE",
"-1022 -374 LINE",
"-1022 -249 LINE",
"-897 -249 LINE"
);
},
{
closed = 1;
nodes = (
"1217 -1000 LINE",
"1092 -1000 LINE",
"1092 -875 LINE",
"1217 -875 LINE"
);
},
{
closed = 1;
nodes = (
"159 666 LINE",
"34 666 LINE",
"34 791 LINE",
"159 791 LINE"
);
},
{
closed = 1;
nodes = (
"-1131 391 LINE",
"-1256 391 LINE",
"-1256 516 LINE",
"-1131 516 LINE"
);
},
{
closed = 1;
nodes = (
"36 723 LINE",
"-89 723 LINE",
"-89 848 LINE",
"36 848 LINE"
);
},
{
closed = 1;
nodes = (
"-155 -689 LINE",
"-280 -689 LINE",
"-280 -564 LINE",
"-155 -564 LINE"
);
},
{
closed = 1;
nodes = (
"493 592 LINE",
"368 592 LINE",
"368 717 LINE",
"493 717 LINE"
);
},
{
closed = 1;
nodes = (
"-466 -216 LINE",
"-591 -216 LINE",
"-591 -91 LINE",
"-466 -91 LINE"
);
},
{
closed = 1;
nodes = (
"550 529 LINE",
"425 529 LINE",
"425 654 LINE",
"550 654 LINE"
);
}
);
width = 1125;
}
);
note = B;
unicode = 0042;
},
{
glyphname = C;
lastChange = "2021-07-12 13:17:18 +0000";
layers = (
{
layerId = "AC43567E-C337-40C0-B780-8BB3F06D1FA4";
paths = (
{
closed = 1;
nodes = (
"500 750 LINE",
"375 750 LINE",
"375 875 LINE",
"500 875 LINE"
);
},
{
closed = 1;
nodes = (
"625 750 LINE",
"500 750 LINE",
"500 875 LINE",
"625 875 LINE"
);
},
{
closed = 1;
nodes = (
"750 750 LINE",
"625 750 LINE",
"625 875 LINE",
"750 875 LINE"
);
},
{
closed = 1;
nodes = (
"875 750 LINE",
"750 750 LINE",
"750 875 LINE",
"875 875 LINE"
);
},
{
closed = 1;
nodes = (
"375 625 LINE",
"250 625 LINE",
"250 750 LINE",
"375 750 LINE"
);
},
{
closed = 1;
nodes = (
"500 625 LINE",
"375 625 LINE",
"375 750 LINE",
"500 750 LINE"
);
},
{
closed = 1;
nodes = (
"875 625 LINE",
"750 625 LINE",
"750 750 LINE",
"875 750 LINE"
);
},
{
closed = 1;
nodes = (
"1000 625 LINE",
"875 625 LINE",
"875 750 LINE",
"1000 750 LINE"
);
},
{
closed = 1;
nodes = (
"250 500 LINE",
"125 500 LINE",
"125 625 LINE",
"250 625 LINE"
);
},
{
closed = 1;
nodes = (
"375 500 LINE",
"250 500 LINE",
"250 625 LINE",
"375 625 LINE"
);
},
{
closed = 1;
nodes = (
"250 375 LINE",
"125 375 LINE",
"125 500 LINE",
"250 500 LINE"
);
},
{
closed = 1;
nodes = (
"375 375 LINE",
"250 375 LINE",
"250 500 LINE",
"375 500 LINE"
);
},
{
closed = 1;
nodes = (
"250 250 LINE",
"125 250 LINE",
"125 375 LINE",
"250 375 LINE"
);
},
{
closed = 1;
nodes = (
"375 250 LINE",
"250 250 LINE",
"250 375 LINE",
"375 375 LINE"
);
},
{
closed = 1;
nodes = (
"375 125 LINE",
"250 125 LINE",
"250 250 LINE",
"375 250 LINE"
);
},
{
closed = 1;
nodes = (
"500 125 LINE",
"375 125 LINE",
"375 250 LINE",
"500 250 LINE"
);
},
{
closed = 1;
nodes = (
"875 125 LINE",
"750 125 LINE",
"750 250 LINE",
"875 250 LINE"
);
},
{
closed = 1;
nodes = (
"1000 125 LINE",
"875 125 LINE",
"875 250 LINE",
"1000 250 LINE"
);
},
{
closed = 1;
nodes = (
"500 0 LINE",
"375 0 LINE",
"375 125 LINE",
"500 125 LINE"
);
},
{
closed = 1;
nodes = (
"625 0 LINE",
"500 0 LINE",
"500 125 LINE",
"625 125 LINE"
);
},
{
closed = 1;
nodes = (
"750 0 LINE",
"625 0 LINE",
"625 125 LINE",
"750 125 LINE"
);
},
{
closed = 1;
nodes = (
"875 0 LINE",
"750 0 LINE",
"750 125 LINE",
"875 125 LINE"
);
}
);
width = 1125;
},
{
layerId = "2C46A1C2-E2B6-44B8-927E-E05F8288DB30";
paths = (
{
closed = 1;
nodes = (
"976 326 LINE",
"851 326 LINE",
"851 451 LINE",
"976 451 LINE"
);
},
{
closed = 1;
nodes = (
"-813 1926 LINE",
"-938 1926 LINE",
"-938 2051 LINE",
"-813 2051 LINE"
);
},
{
closed = 1;
nodes = (
"915 1706 LINE",
"790 1706 LINE",
"790 1831 LINE",
"915 1831 LINE"
);
},
{
closed = 1;
nodes = (
"2116 -20 LINE",
"1991 -20 LINE",
"1991 105 LINE",
"2116 105 LINE"
);
},
{
closed = 1;
nodes = (
"-850 1715 LINE",
"-975 1715 LINE",
"-975 1840 LINE",
"-850 1840 LINE"
);
},
{
closed = 1;
nodes = (
"1974 1135 LINE",
"1849 1135 LINE",
"1849 1260 LINE",
"1974 1260 LINE"
);
},
{
closed = 1;
nodes = (
"1314 1768 LINE",
"1189 1768 LINE",
"1189 1893 LINE",
"1314 1893 LINE"
);
},
{
closed = 1;
nodes = (
"1323 1736 LINE",
"1198 1736 LINE",
"1198 1861 LINE",
"1323 1861 LINE"
);
},
{
closed = 1;
nodes = (
"1622 -252 LINE",
"1497 -252 LINE",
"1497 -127 LINE",
"1622 -127 LINE"
);
},
{
closed = 1;
nodes = (
"-680 782 LINE",
"-805 782 LINE",
"-805 907 LINE",
"-680 907 LINE"
);
},
{
closed = 1;
nodes = (
"-179 1150 LINE",
"-304 1150 LINE",
"-304 1275 LINE",
"-179 1275 LINE"
);
},
{
closed = 1;
nodes = (
"1661 -949 LINE",
"1536 -949 LINE",
"1536 -824 LINE",
"1661 -824 LINE"
);
},
{
closed = 1;
nodes = (
"1199 1281 LINE",
"1074 1281 LINE",
"1074 1406 LINE",
"1199 1406 LINE"
);
},
{
closed = 1;
nodes = (
"509 631 LINE",
"384 631 LINE",
"384 756 LINE",
"509 756 LINE"
);
},
{
closed = 1;
nodes = (
"-395 1090 LINE",
"-520 1090 LINE",
"-520 1215 LINE",
"-395 1215 LINE"
);
},
{
closed = 1;
nodes = (
"1692 879 LINE",
"1567 879 LINE",
"1567 1004 LINE",
"1692 1004 LINE"
);
},
{
closed = 1;
nodes = (
"58 -330 LINE",
"-67 -330 LINE",
"-67 -205 LINE",
"58 -205 LINE"
);
},
{
closed = 1;
nodes = (
"468 1378 LINE",
"343 1378 LINE",
"343 1503 LINE",
"468 1503 LINE"
);
},
{
closed = 1;
nodes = (
"810 584 LINE",
"685 584 LINE",
"685 709 LINE",
"810 709 LINE"
);
},
{
closed = 1;
nodes = (
"161 601 LINE",
"36 601 LINE",
"36 726 LINE",
"161 726 LINE"
);
},
{
closed = 1;
nodes = (
"-396 -1495 LINE",
"-521 -1495 LINE",
"-521 -1370 LINE",
"-396 -1370 LINE"
);
},
{
closed = 1;
nodes = (
"1415 207 LINE",
"1290 207 LINE",
"1290 332 LINE",
"1415 332 LINE"
);
}
);
width = 1125;
}
);
note = C;
unicode = 0043;
},
{
glyphname = D;
lastChange = "2021-07-12 13:17:18 +0000";
layers = (
{
layerId = "AC43567E-C337-40C0-B780-8BB3F06D1FA4";
paths = (
{
closed = 1;
nodes = (
"250 750 LINE",
"125 750 LINE",
"125 875 LINE",
"250 875 LINE"
);
},
{
closed = 1;
nodes = (
"375 750 LINE",
"250 750 LINE",
"250 875 LINE",
"375 875 LINE"
);
},
{
closed = 1;
nodes = (
"500 750 LINE",
"375 750 LINE",
"375 875 LINE",
"500 875 LINE"
);
},
{
closed = 1;
nodes = (
"625 750 LINE",
"500 750 LINE",
"500 875 LINE",
"625 875 LINE"
);
},
{
closed = 1;
nodes = (
"750 750 LINE",
"625 750 LINE",
"625 875 LINE",
"750 875 LINE"
);
},
{
closed = 1;
nodes = (
"375 625 LINE",
"250 625 LINE",
"250 750 LINE",
"375 750 LINE"
);
},
{
closed = 1;
nodes = (
"500 625 LINE",
"375 625 LINE",
"375 750 LINE",
"500 750 LINE"
);
},
{
closed = 1;
nodes = (
"750 625 LINE",
"625 625 LINE",
"625 750 LINE",
"750 750 LINE"
);
},
{
closed = 1;
nodes = (
"875 625 LINE",
"750 625 LINE",
"750 750 LINE",
"875 750 LINE"
);
},
{
closed = 1;
nodes = (
"375 500 LINE",
"250 500 LINE",
"250 625 LINE",
"375 625 LINE"
);
},
{
closed = 1;
nodes = (
"500 500 LINE",
"375 500 LINE",
"375 625 LINE",
"500 625 LINE"
);
},
{
closed = 1;
nodes = (
"875 500 LINE",
"750 500 LINE",
"750 625 LINE",
"875 625 LINE"
);
},
{
closed = 1;
nodes = (
"1000 500 LINE",
"875 500 LINE",
"875 625 LINE",
"1000 625 LINE"
);
},
{
closed = 1;
nodes = (
"375 375 LINE",
"250 375 LINE",
"250 500 LINE",
"375 500 LINE"
);
},
{
closed = 1;
nodes = (
"500 375 LINE",
"375 375 LINE",
"375 500 LINE",
"500 500 LINE"
);
},
{
closed = 1;
nodes = (
"875 375 LINE",
"750 375 LINE",
"750 500 LINE",
"875 500 LINE"
);
},
{
closed = 1;
nodes = (
"1000 375 LINE",
"875 375 LINE",
"875 500 LINE",
"1000 500 LINE"
);
},
{
closed = 1;
nodes = (
"375 250 LINE",
"250 250 LINE",
"250 375 LINE",
"375 375 LINE"
);
},
{
closed = 1;
nodes = (
"500 250 LINE",
"375 250 LINE",
"375 375 LINE",
"500 375 LINE"
);
},
{
closed = 1;
nodes = (
"875 250 LINE",
"750 250 LINE",
"750 375 LINE",
"875 375 LINE"
);
},
{
closed = 1;
nodes = (
"1000 250 LINE",
"875 250 LINE",
"875 375 LINE",
"1000 375 LINE"
);
},
{
closed = 1;
nodes = (
"375 125 LINE",
"250 125 LINE",
"250 250 LINE",
"375 250 LINE"
);
},
{
closed = 1;
nodes = (
"500 125 LINE",
"375 125 LINE",
"375 250 LINE",
"500 250 LINE"
);
},
{
closed = 1;
nodes = (
"750 125 LINE",
"625 125 LINE",
"625 250 LINE",
"750 250 LINE"
);
},
{
closed = 1;
nodes = (
"875 125 LINE",
"750 125 LINE",
"750 250 LINE",
"875 250 LINE"
);
},
{
closed = 1;
nodes = (
"250 0 LINE",
"125 0 LINE",
"125 125 LINE",
"250 125 LINE"
);
},
{
closed = 1;
nodes = (
"375 0 LINE",
"250 0 LINE",
"250 125 LINE",
"375 125 LINE"
);
},
{
closed = 1;
nodes = (
"500 0 LINE",
"375 0 LINE",
"375 125 LINE",
"500 125 LINE"
);
},
{
closed = 1;
nodes = (
"625 0 LINE",
"500 0 LINE",
"500 125 LINE",
"625 125 LINE"
);
},
{
closed = 1;
nodes = (
"750 0 LINE",
"625 0 LINE",
"625 125 LINE",
"750 125 LINE"
);
}
);
width = 1125;
},
{
layerId = "2C46A1C2-E2B6-44B8-927E-E05F8288DB30";
paths = (
{
closed = 1;
nodes = (
"-44 317 LINE",
"-169 317 LINE",
"-169 442 LINE",
"-44 442 LINE"
);
},
{
closed = 1;
nodes = (
"1715 574 LINE",
"1590 574 LINE",
"1590 699 LINE",
"1715 699 LINE"
);
},
{
closed = 1;
nodes = (
"-540 -365 LINE",
"-665 -365 LINE",
"-665 -240 LINE",
"-540 -240 LINE"
);
},
{
closed = 1;
nodes = (
"2096 -687 LINE",
"1971 -687 LINE",
"1971 -562 LINE",
"2096 -562 LINE"
);
},
{
closed = 1;
nodes = (
"2017 46 LINE",
"1892 46 LINE",
"1892 171 LINE",
"2017 171 LINE"
);
},
{
closed = 1;
nodes = (
"-642 -65 LINE",
"-767 -65 LINE",
"-767 60 LINE",
"-642 60 LINE"
);
},
{
closed = 1;
nodes = (
"1512 342 LINE",
"1387 342 LINE",
"1387 467 LINE",
"1512 467 LINE"
);
},
{
closed = 1;
nodes = (
"1746 1753 LINE",
"1621 1753 LINE",
"1621 1878 LINE",
"1746 1878 LINE"
);
},
{
closed = 1;
nodes = (
"1279 856 LINE",
"1154 856 LINE",
"1154 981 LINE",
"1279 981 LINE"
);
},
{
closed = 1;
nodes = (
"1550 -498 LINE",
"1425 -498 LINE",
"1425 -373 LINE",
"1550 -373 LINE"
);
},
{
closed = 1;
nodes = (
"1892 59 LINE",
"1767 59 LINE",
"1767 184 LINE",
"1892 184 LINE"
);
},
{
closed = 1;
nodes = (
"-337 -658 LINE",
"-462 -658 LINE",
"-462 -533 LINE",
"-337 -533 LINE"
);
},
{
closed = 1;
nodes = (
"2356 819 LINE",
"2231 819 LINE",
"2231 944 LINE",
"2356 944 LINE"
);
},
{
closed = 1;
nodes = (
"601 1766 LINE",
"476 1766 LINE",
"476 1891 LINE",
"601 1891 LINE"
);
},
{
closed = 1;
nodes = (
"1652 1063 LINE",
"1527 1063 LINE",
"1527 1188 LINE",
"1652 1188 LINE"
);
},
{
closed = 1;
nodes = (
"1149 -1060 LINE",
"1024 -1060 LINE",
"1024 -935 LINE",
"1149 -935 LINE"
);
},
{
closed = 1;
nodes = (
"466 1771 LINE",
"341 1771 LINE",
"341 1896 LINE",
"466 1896 LINE"
);
},
{
closed = 1;
nodes = (
"56 600 LINE",
"-69 600 LINE",
"-69 725 LINE",
"56 725 LINE"
);
},
{
closed = 1;
nodes = (
"-330 914 LINE",
"-455 914 LINE",
"-455 1039 LINE",
"-330 1039 LINE"
);
},
{
closed = 1;
nodes = (
"2227 388 LINE",
"2102 388 LINE",
"2102 513 LINE",
"2227 513 LINE"
);
},
{
closed = 1;
nodes = (
"1951 -421 LINE",
"1826 -421 LINE",
"1826 -296 LINE",
"1951 -296 LINE"
);
},
{
closed = 1;
nodes = (
"824 -1119 LINE",
"699 -1119 LINE",
"699 -994 LINE",
"824 -994 LINE"
);
},
{
closed = 1;
nodes = (
"1140 -998 LINE",
"1015 -998 LINE",
"1015 -873 LINE",
"1140 -873 LINE"
);
},
{
closed = 1;
nodes = (
"1025 416 LINE",
"900 416 LINE",
"900 541 LINE",
"1025 541 LINE"
);
},
{
closed = 1;
nodes = (
"738 -123 LINE",
"613 -123 LINE",
"613 2 LINE",
"738 2 LINE"
);
},
{
closed = 1;
nodes = (
"-801 1340 LINE",
"-926 1340 LINE",
"-926 1465 LINE",
"-801 1465 LINE"
);
},
{
closed = 1;
nodes = (
"-636 -1216 LINE",
"-761 -1216 LINE",
"-761 -1091 LINE",
"-636 -1091 LINE"
);
},
{
closed = 1;
nodes = (
"-406 -976 LINE",
"-531 -976 LINE",
"-531 -851 LINE",
"-406 -851 LINE"
);
},
{
closed = 1;
nodes = (
"-29 -947 LINE",
"-154 -947 LINE",
"-154 -822 LINE",
"-29 -822 LINE"
);
},
{
closed = 1;
nodes = (
"-195 911 LINE",
"-320 911 LINE",
"-320 1036 LINE",
"-195 1036 LINE"
);
}
);
width = 1125;
}
);
note = D;
unicode = 0044;
},
{
glyphname = E;
lastChange = "2021-07-12 13:17:18 +0000";
layers = (
{
layerId = "AC43567E-C337-40C0-B780-8BB3F06D1FA4";
paths = (
{
closed = 1;
nodes = (
"250 750 LINE",
"125 750 LINE",
"125 875 LINE",
"250 875 LINE"
);
},
{
closed = 1;
nodes = (
"375 750 LINE",
"250 750 LINE",
"250 875 LINE",
"375 875 LINE"
);
},
{
closed = 1;
nodes = (
"500 750 LINE",
"375 750 LINE",
"375 875 LINE",
"500 875 LINE"
);
},
{
closed = 1;
nodes = (
"625 750 LINE",
"500 750 LINE",
"500 875 LINE",
"625 875 LINE"
);
},
{
closed = 1;
nodes = (
"750 750 LINE",
"625 750 LINE",
"625 875 LINE",
"750 875 LINE"
);
},
{
closed = 1;
nodes = (
"875 750 LINE",
"750 750 LINE",
"750 875 LINE",
"875 875 LINE"
);
},
{
closed = 1;
nodes = (
"1000 750 LINE",
"875 750 LINE",
"875 875 LINE",
"1000 875 LINE"
);
},
{
closed = 1;
nodes = (
"375 625 LINE",
"250 625 LINE",
"250 750 LINE",
"375 750 LINE"
);
},
{
closed = 1;
nodes = (
"500 625 LINE",
"375 625 LINE",
"375 750 LINE",
"500 750 LINE"
);
},
{
closed = 1;
nodes = (
"1000 625 LINE",
"875 625 LINE",
"875 750 LINE",
"1000 750 LINE"
);
},
{
closed = 1;
nodes = (
"375 500 LINE",
"250 500 LINE",
"250 625 LINE",
"375 625 LINE"
);
},
{
closed = 1;
nodes = (
"500 500 LINE",
"375 500 LINE",
"375 625 LINE",
"500 625 LINE"
);
},
{
closed = 1;
nodes = (
"750 500 LINE",
"625 500 LINE",
"625 625 LINE",
"750 625 LINE"
);
},
{
closed = 1;
nodes = (
"375 375 LINE",
"250 375 LINE",
"250 500 LINE",
"375 500 LINE"
);
},
{
closed = 1;
nodes = (
"500 375 LINE",
"375 375 LINE",
"375 500 LINE",
"500 500 LINE"
);
},
{
closed = 1;
nodes = (
"625 375 LINE",
"500 375 LINE",
"500 500 LINE",
"625 500 LINE"
);
},
{
closed = 1;
nodes = (
"750 375 LINE",
"625 375 LINE",
"625 500 LINE",
"750 500 LINE"
);
},
{
closed = 1;
nodes = (
"375 250 LINE",
"250 250 LINE",
"250 375 LINE",
"375 375 LINE"
);
},
{
closed = 1;
nodes = (
"500 250 LINE",
"375 250 LINE",
"375 375 LINE",
"500 375 LINE"
);
},
{
closed = 1;
nodes = (
"750 250 LINE",
"625 250 LINE",
"625 375 LINE",
"750 375 LINE"
);
},
{
closed = 1;
nodes = (
"375 125 LINE",
"250 125 LINE",
"250 250 LINE",
"375 250 LINE"
);
},
{
closed = 1;
nodes = (
"500 125 LINE",
"375 125 LINE",
"375 250 LINE",
"500 250 LINE"
);
},
{
closed = 1;
nodes = (
"1000 125 LINE",
"875 125 LINE",
"875 250 LINE",
"1000 250 LINE"
);
},
{
closed = 1;
nodes = (
"250 0 LINE",
"125 0 LINE",
"125 125 LINE",
"250 125 LINE"
);
},
{
closed = 1;
nodes = (
"375 0 LINE",
"250 0 LINE",
"250 125 LINE",
"375 125 LINE"
);
},
{
closed = 1;
nodes = (
"500 0 LINE",
"375 0 LINE",
"375 125 LINE",
"500 125 LINE"
);
},
{
closed = 1;
nodes = (
"625 0 LINE",
"500 0 LINE",
"500 125 LINE",
"625 125 LINE"
);
},
{
closed = 1;
nodes = (
"750 0 LINE",
"625 0 LINE",
"625 125 LINE",
"750 125 LINE"
);
},
{
closed = 1;
nodes = (
"875 0 LINE",
"750 0 LINE",
"750 125 LINE",
"875 125 LINE"
);
},
{
closed = 1;
nodes = (
"1000 0 LINE",
"875 0 LINE",
"875 125 LINE",
"1000 125 LINE"
);
}
);
width = 1125;
},
{
layerId = "2C46A1C2-E2B6-44B8-927E-E05F8288DB30";
paths = (
{
closed = 1;
nodes = (
"-347 1281 LINE",
"-472 1281 LINE",
"-472 1406 LINE",
"-347 1406 LINE"
);
},
{
closed = 1;
nodes = (
"611 258 LINE",
"486 258 LINE",
"486 383 LINE",
"611 383 LINE"
);
},
{
closed = 1;
nodes = (
"1151 510 LINE",
"1026 510 LINE",
"1026 635 LINE",
"1151 635 LINE"
);
},
{
closed = 1;
nodes = (
"1486 1272 LINE",
"1361 1272 LINE",
"1361 1397 LINE",
"1486 1397 LINE"
);
},
{
closed = 1;
nodes = (
"2218 -261 LINE",
"2093 -261 LINE",
"2093 -136 LINE",
"2218 -136 LINE"
);
},
{
closed = 1;
nodes = (
"-517 1711 LINE",
"-642 1711 LINE",
"-642 1836 LINE",
"-517 1836 LINE"
);
},
{
closed = 1;
nodes = (
"2182 463 LINE",
"2057 463 LINE",
"2057 588 LINE",
"2182 588 LINE"
);
},
{
closed = 1;
nodes = (
"875 911 LINE",
"750 911 LINE",
"750 1036 LINE",
"875 1036 LINE"
);
},
{
closed = 1;
nodes = (
"-437 922 LINE",
"-562 922 LINE",
"-562 1047 LINE",
"-437 1047 LINE"
);
},
{
closed = 1;
nodes = (
"192 1657 LINE",
"67 1657 LINE",
"67 1782 LINE",
"192 1782 LINE"
);
},
{
closed = 1;
nodes = (
"-680 -807 LINE",
"-805 -807 LINE",
"-805 -682 LINE",
"-680 -682 LINE"
);
},
{
closed = 1;
nodes = (
"1571 1691 LINE",
"1446 1691 LINE",
"1446 1816 LINE",
"1571 1816 LINE"
);
},
{
closed = 1;
nodes = (
"1806 -899 LINE",
"1681 -899 LINE",
"1681 -774 LINE",
"1806 -774 LINE"
);
},
{
closed = 1;
nodes = (
"1818 636 LINE",
"1693 636 LINE",
"1693 761 LINE",
"1818 761 LINE"
);
},
{
closed = 1;
nodes = (
"1777 -724 LINE",
"1652 -724 LINE",
"1652 -599 LINE",
"1777 -599 LINE"
);
},
{
closed = 1;
nodes = (
"-554 1122 LINE",
"-679 1122 LINE",
"-679 1247 LINE",
"-554 1247 LINE"
);
},
{
closed = 1;
nodes = (
"1042 1050 LINE",
"917 1050 LINE",
"917 1175 LINE",
"1042 1175 LINE"
);
},
{
closed = 1;
nodes = (
"698 -100 LINE",
"573 -100 LINE",
"573 25 LINE",
"698 25 LINE"
);
},
{
closed = 1;
nodes = (
"1282 -965 LINE",
"1157 -965 LINE",
"1157 -840 LINE",
"1282 -840 LINE"
);
},
{
closed = 1;
nodes = (
"1339 -1038 LINE",
"1214 -1038 LINE",
"1214 -913 LINE",
"1339 -913 LINE"
);
},
{
closed = 1;
nodes = (
"1737 596 LINE",
"1612 596 LINE",
"1612 721 LINE",
"1737 721 LINE"
);
},
{
closed = 1;
nodes = (
"1970 -278 LINE",
"1845 -278 LINE",
"1845 -153 LINE",
"1970 -153 LINE"
);
},
{
closed = 1;
nodes = (
"2237 987 LINE",
"2112 987 LINE",
"2112 1112 LINE",
"2237 1112 LINE"
);
},
{
closed = 1;
nodes = (
"694 997 LINE",
"569 997 LINE",
"569 1122 LINE",
"694 1122 LINE"
);
},
{
closed = 1;
nodes = (
"1376 749 LINE",
"1251 749 LINE",
"1251 874 LINE",
"1376 874 LINE"
);
},
{
closed = 1;
nodes = (
"1459 1467 LINE",
"1334 1467 LINE",
"1334 1592 LINE",
"1459 1592 LINE"
);
},
{
closed = 1;
nodes = (
"1830 482 LINE",
"1705 482 LINE",
"1705 607 LINE",
"1830 607 LINE"
);
},
{
closed = 1;
nodes = (
"1587 741 LINE",
"1462 741 LINE",
"1462 866 LINE",
"1587 866 LINE"
);
},
{
closed = 1;
nodes = (
"177 933 LINE",
"52 933 LINE",
"52 1058 LINE",
"177 1058 LINE"
);
},
{
closed = 1;
nodes = (
"1339 935 LINE",
"1214 935 LINE",
"1214 1060 LINE",
"1339 1060 LINE"
);
}
);
width = 1125;
}
);
note = E;
unicode = 0045;
},
{
glyphname = F;
lastChange = "2021-07-12 13:17:18 +0000";
layers = (
{
layerId = "AC43567E-C337-40C0-B780-8BB3F06D1FA4";
paths = (
{
closed = 1;
nodes = (
"250 750 LINE",
"125 750 LINE",
"125 875 LINE",
"250 875 LINE"
);
},
{
closed = 1;
nodes = (
"375 750 LINE",
"250 750 LINE",
"250 875 LINE",
"375 875 LINE"
);
},
{
closed = 1;
nodes = (
"500 750 LINE",
"375 750 LINE",
"375 875 LINE",
"500 875 LINE"
);
},
{
closed = 1;
nodes = (
"625 750 LINE",
"500 750 LINE",
"500 875 LINE",
"625 875 LINE"
);
},
{
closed = 1;
nodes = (
"750 750 LINE",
"625 750 LINE",
"625 875 LINE",
"750 875 LINE"
);
},
{
closed = 1;
nodes = (
"875 750 LINE",
"750 750 LINE",
"750 875 LINE",
"875 875 LINE"
);
},
{
closed = 1;
nodes = (
"1000 750 LINE",
"875 750 LINE",
"875 875 LINE",
"1000 875 LINE"
);
},
{
closed = 1;
nodes = (
"375 625 LINE",
"250 625 LINE",
"250 750 LINE",
"375 750 LINE"
);
},
{
closed = 1;
nodes = (
"500 625 LINE",
"375 625 LINE",
"375 750 LINE",
"500 750 LINE"
);
},
{
closed = 1;
nodes = (
"1000 625 LINE",
"875 625 LINE",
"875 750 LINE",
"1000 750 LINE"
);
},
{
closed = 1;
nodes = (
"375 500 LINE",
"250 500 LINE",
"250 625 LINE",
"375 625 LINE"
);
},
{
closed = 1;
nodes = (
"500 500 LINE",
"375 500 LINE",
"375 625 LINE",
"500 625 LINE"
);
},
{
closed = 1;
nodes = (
"750 500 LINE",
"625 500 LINE",
"625 625 LINE",
"750 625 LINE"
);
},
{
closed = 1;
nodes = (
"375 375 LINE",
"250 375 LINE",
"250 500 LINE",
"375 500 LINE"
);
},
{
closed = 1;
nodes = (
"500 375 LINE",
"375 375 LINE",
"375 500 LINE",
"500 500 LINE"
);
},
{
closed = 1;
nodes = (
"625 375 LINE",
"500 375 LINE",
"500 500 LINE",
"625 500 LINE"
);
},
{
closed = 1;
nodes = (
"750 375 LINE",
"625 375 LINE",
"625 500 LINE",
"750 500 LINE"
);
},
{
closed = 1;
nodes = (
"375 250 LINE",
"250 250 LINE",
"250 375 LINE",
"375 375 LINE"
);
},
{
closed = 1;
nodes = (
"500 250 LINE",
"375 250 LINE",
"375 375 LINE",
"500 375 LINE"
);
},
{
closed = 1;
nodes = (
"750 250 LINE",
"625 250 LINE",
"625 375 LINE",
"750 375 LINE"
);
},
{
closed = 1;
nodes = (
"375 125 LINE",
"250 125 LINE",
"250 250 LINE",
"375 250 LINE"
);
},
{
closed = 1;
nodes = (
"500 125 LINE",
"375 125 LINE",
"375 250 LINE",
"500 250 LINE"
);
},
{
closed = 1;
nodes = (
"250 0 LINE",
"125 0 LINE",
"125 125 LINE",
"250 125 LINE"
);
},
{
closed = 1;
nodes = (
"375 0 LINE",
"250 0 LINE",
"250 125 LINE",
"375 125 LINE"
);
},
{
closed = 1;
nodes = (
"500 0 LINE",
"375 0 LINE",
"375 125 LINE",
"500 125 LINE"
);
},
{
closed = 1;
nodes = (
"625 0 LINE",
"500 0 LINE",
"500 125 LINE",
"625 125 LINE"
);
}
);
width = 1125;
},
{
layerId = "2C46A1C2-E2B6-44B8-927E-E05F8288DB30";
paths = (
{
closed = 1;
nodes = (
"1379 1002 LINE",
"1254 1002 LINE",
"1254 1127 LINE",
"1379 1127 LINE"
);
},
{
closed = 1;
nodes = (
"-765 1831 LINE",
"-890 1831 LINE",
"-890 1956 LINE",
"-765 1956 LINE"
);
},
{
closed = 1;
nodes = (
"1109 -410 LINE",
"984 -410 LINE",
"984 -285 LINE",
"1109 -285 LINE"
);
},
{
closed = 1;
nodes = (
"1698 1049 LINE",
"1573 1049 LINE",
"1573 1174 LINE",
"1698 1174 LINE"
);
},
{
closed = 1;
nodes = (
"488 1395 LINE",
"363 1395 LINE",
"363 1520 LINE",
"488 1520 LINE"
);
},
{
closed = 1;
nodes = (
"1447 2204 LINE",
"1322 2204 LINE",
"1322 2329 LINE",
"1447 2329 LINE"
);
},
{
closed = 1;
nodes = (
"-113 386 LINE",
"-238 386 LINE",
"-238 511 LINE",
"-113 511 LINE"
);
},
{
closed = 1;
nodes = (
"-179 -631 LINE",
"-304 -631 LINE",
"-304 -506 LINE",
"-179 -506 LINE"
);
},
{
closed = 1;
nodes = (
"947 1077 LINE",
"822 1077 LINE",
"822 1202 LINE",
"947 1202 LINE"
);
},
{
closed = 1;
nodes = (
"1211 2090 LINE",
"1086 2090 LINE",
"1086 2215 LINE",
"1211 2215 LINE"
);
},
{
closed = 1;
nodes = (
"132 -730 LINE",
"7 -730 LINE",
"7 -605 LINE",
"132 -605 LINE"
);
},
{
closed = 1;
nodes = (
"993 957 LINE",
"868 957 LINE",
"868 1082 LINE",
"993 1082 LINE"
);
},
{
closed = 1;
nodes = (
"2124 1352 LINE",
"1999 1352 LINE",
"1999 1477 LINE",
"2124 1477 LINE"
);
},
{
closed = 1;
nodes = (
"-706 -6 LINE",
"-831 -6 LINE",
"-831 119 LINE",
"-706 119 LINE"
);
},
{
closed = 1;
nodes = (
"-800 -811 LINE",
"-925 -811 LINE",
"-925 -686 LINE",
"-800 -686 LINE"
);
},
{
closed = 1;
nodes = (
"1038 -37 LINE",
"913 -37 LINE",
"913 88 LINE",
"1038 88 LINE"
);
},
{
closed = 1;
nodes = (
"349 771 LINE",
"224 771 LINE",
"224 896 LINE",
"349 896 LINE"
);
},
{
closed = 1;
nodes = (
"957 611 LINE",
"832 611 LINE",
"832 736 LINE",
"957 736 LINE"
);
},
{
closed = 1;
nodes = (
"1098 -797 LINE",
"973 -797 LINE",
"973 -672 LINE",
"1098 -672 LINE"
);
},
{
closed = 1;
nodes = (
"-219 585 LINE",
"-344 585 LINE",
"-344 710 LINE",
"-219 710 LINE"
);
},
{
closed = 1;
nodes = (
"-375 905 LINE",
"-500 905 LINE",
"-500 1030 LINE",
"-375 1030 LINE"
);
},
{
closed = 1;
nodes = (
"1858 1105 LINE",
"1733 1105 LINE",
"1733 1230 LINE",
"1858 1230 LINE"
);
},
{
closed = 1;
nodes = (
"403 883 LINE",
"278 883 LINE",
"278 1008 LINE",
"403 1008 LINE"
);
},
{
closed = 1;
nodes = (
"1697 587 LINE",
"1572 587 LINE",
"1572 712 LINE",
"1697 712 LINE"
);
},
{
closed = 1;
nodes = (
"285 -807 LINE",
"160 -807 LINE",
"160 -682 LINE",
"285 -682 LINE"
);
},
{
closed = 1;
nodes = (
"1562 -1259 LINE",
"1437 -1259 LINE",
"1437 -1134 LINE",
"1562 -1134 LINE"
);
}
);
width = 1125;
}
);
note = F;
unicode = 0046;
},
{
glyphname = G;
lastChange = "2021-07-12 13:17:18 +0000";
layers = (
{
layerId = "AC43567E-C337-40C0-B780-8BB3F06D1FA4";
paths = (
{
closed = 1;
nodes = (
"500 750 LINE",
"375 750 LINE",
"375 875 LINE",
"500 875 LINE"
);
},
{
closed = 1;
nodes = (
"625 750 LINE",
"500 750 LINE",
"500 875 LINE",
"625 875 LINE"
);
},
{
closed = 1;
nodes = (
"750 750 LINE",
"625 750 LINE",
"625 875 LINE",
"750 875 LINE"
);
},
{
closed = 1;
nodes = (
"875 750 LINE",
"750 750 LINE",
"750 875 LINE",
"875 875 LINE"
);
},
{
closed = 1;
nodes = (
"375 625 LINE",
"250 625 LINE",
"250 750 LINE",
"375 750 LINE"
);
},
{
closed = 1;
nodes = (
"500 625 LINE",
"375 625 LINE",
"375 750 LINE",
"500 750 LINE"
);
},
{
closed = 1;
nodes = (
"875 625 LINE",
"750 625 LINE",
"750 750 LINE",
"875 750 LINE"
);
},
{
closed = 1;
nodes = (
"1000 625 LINE",
"875 625 LINE",
"875 750 LINE",
"1000 750 LINE"
);
},
{
closed = 1;
nodes = (
"250 500 LINE",
"125 500 LINE",
"125 625 LINE",
"250 625 LINE"
);
},
{
closed = 1;
nodes = (
"375 500 LINE",
"250 500 LINE",
"250 625 LINE",
"375 625 LINE"
);
},
{
closed = 1;
nodes = (
"250 375 LINE",
"125 375 LINE",
"125 500 LINE",
"250 500 LINE"
);
},
{
closed = 1;
nodes = (
"375 375 LINE",
"250 375 LINE",
"250 500 LINE",
"375 500 LINE"
);
},
{
closed = 1;
nodes = (
"250 250 LINE",
"125 250 LINE",
"125 375 LINE",
"250 375 LINE"
);
},
{
closed = 1;
nodes = (
"375 250 LINE",
"250 250 LINE",
"250 375 LINE",
"375 375 LINE"
);
},
{
closed = 1;
nodes = (
"750 250 LINE",
"625 250 LINE",
"625 375 LINE",
"750 375 LINE"
);
},
{
closed = 1;
nodes = (
"875 250 LINE",
"750 250 LINE",
"750 375 LINE",
"875 375 LINE"
);
},
{
closed = 1;
nodes = (
"1000 250 LINE",
"875 250 LINE",
"875 375 LINE",
"1000 375 LINE"
);
},
{
closed = 1;
nodes = (
"375 125 LINE",
"250 125 LINE",
"250 250 LINE",
"375 250 LINE"
);
},
{
closed = 1;
nodes = (
"500 125 LINE",
"375 125 LINE",
"375 250 LINE",
"500 250 LINE"
);
},
{
closed = 1;
nodes = (
"875 125 LINE",
"750 125 LINE",
"750 250 LINE",
"875 250 LINE"
);
},
{
closed = 1;
nodes = (
"1000 125 LINE",
"875 125 LINE",
"875 250 LINE",
"1000 250 LINE"
);
},
{
closed = 1;
nodes = (
"500 0 LINE",
"375 0 LINE",
"375 125 LINE",
"500 125 LINE"
);
},
{
closed = 1;
nodes = (
"625 0 LINE",
"500 0 LINE",
"500 125 LINE",
"625 125 LINE"
);
},
{
closed = 1;
nodes = (
"750 0 LINE",
"625 0 LINE",
"625 125 LINE",
"750 125 LINE"
);
},
{
closed = 1;
nodes = (
"1000 0 LINE",
"875 0 LINE",
"875 125 LINE",
"1000 125 LINE"
);
}
);
width = 1125;
},
{
layerId = "2C46A1C2-E2B6-44B8-927E-E05F8288DB30";
paths = (
{
closed = 1;
nodes = (
"1103 -747 LINE",
"978 -747 LINE",
"978 -622 LINE",
"1103 -622 LINE"
);
},
{
closed = 1;
nodes = (
"1296 299 LINE",
"1171 299 LINE",
"1171 424 LINE",
"1296 424 LINE"
);
},
{
closed = 1;
nodes = (
"305 -32 LINE",
"180 -32 LINE",
"180 93 LINE",
"305 93 LINE"
);
},
{
closed = 1;
nodes = (
"1006 1222 LINE",
"881 1222 LINE",
"881 1347 LINE",
"1006 1347 LINE"
);
},
{
closed = 1;
nodes = (
"871 340 LINE",
"746 340 LINE",
"746 465 LINE",
"871 465 LINE"
);
},
{
closed = 1;
nodes = (
"729 -77 LINE",
"604 -77 LINE",
"604 48 LINE",
"729 48 LINE"
);
},
{
closed = 1;
nodes = (
"276 -692 LINE",
"151 -692 LINE",
"151 -567 LINE",
"276 -567 LINE"
);
},
{
closed = 1;
nodes = (
"2263 961 LINE",
"2138 961 LINE",
"2138 1086 LINE",
"2263 1086 LINE"
);
},
{
closed = 1;
nodes = (
"880 1371 LINE",
"755 1371 LINE",
"755 1496 LINE",
"880 1496 LINE"
);
},
{
closed = 1;
nodes = (
"-800 1347 LINE",
"-925 1347 LINE",
"-925 1472 LINE",
"-800 1472 LINE"
);
},
{
closed = 1;
nodes = (
"1293 78 LINE",
"1168 78 LINE",
"1168 203 LINE",
"1293 203 LINE"
);
},
{
closed = 1;
nodes = (
"-1047 -697 LINE",
"-1172 -697 LINE",
"-1172 -572 LINE",
"-1047 -572 LINE"
);
},
{
closed = 1;
nodes = (
"1432 841 LINE",
"1307 841 LINE",
"1307 966 LINE",
"1432 966 LINE"
);
},
{
closed = 1;
nodes = (
"-537 760 LINE",
"-662 760 LINE",
"-662 885 LINE",
"-537 885 LINE"
);
},
{
closed = 1;
nodes = (
"1127 -911 LINE",
"1002 -911 LINE",
"1002 -786 LINE",
"1127 -786 LINE"
);
},
{
closed = 1;
nodes = (
"2093 1191 LINE",
"1968 1191 LINE",
"1968 1316 LINE",
"2093 1316 LINE"
);
},
{
closed = 1;
nodes = (
"650 -137 LINE",
"525 -137 LINE",
"525 -12 LINE",
"650 -12 LINE"
);
},
{
closed = 1;
nodes = (
"797 -199 LINE",
"672 -199 LINE",
"672 -74 LINE",
"797 -74 LINE"
);
},
{
closed = 1;
nodes = (
"295 -1142 LINE",
"170 -1142 LINE",
"170 -1017 LINE",
"295 -1017 LINE"
);
},
{
closed = 1;
nodes = (
"169 911 LINE",
"44 911 LINE",
"44 1036 LINE",
"169 1036 LINE"
);
},
{
closed = 1;
nodes = (
"-476 -297 LINE",
"-601 -297 LINE",
"-601 -172 LINE",
"-476 -172 LINE"
);
},
{
closed = 1;
nodes = (
"995 -1329 LINE",
"870 -1329 LINE",
"870 -1204 LINE",
"995 -1204 LINE"
);
},
{
closed = 1;
nodes = (
"378 422 LINE",
"253 422 LINE",
"253 547 LINE",
"378 547 LINE"
);
},
{
closed = 1;
nodes = (
"1871 -508 LINE",
"1746 -508 LINE",
"1746 -383 LINE",
"1871 -383 LINE"
);
},
{
closed = 1;
nodes = (
"1980 381 LINE",
"1855 381 LINE",
"1855 506 LINE",
"1980 506 LINE"
);
}
);
width = 1125;
}
);
note = G;
unicode = 0047;
},
{
glyphname = H;
lastChange = "2021-07-12 13:17:18 +0000";
layers = (
{
layerId = "AC43567E-C337-40C0-B780-8BB3F06D1FA4";
paths = (
{
closed = 1;
nodes = (
"250 750 LINE",
"125 750 LINE",
"125 875 LINE",
"250 875 LINE"
);
},
{
closed = 1;
nodes = (
"375 750 LINE",
"250 750 LINE",
"250 875 LINE",
"375 875 LINE"
);
},
{
closed = 1;
nodes = (
"875 750 LINE",
"750 750 LINE",
"750 875 LINE",
"875 875 LINE"
);
},
{
closed = 1;
nodes = (
"1000 750 LINE",
"875 750 LINE",
"875 875 LINE",
"1000 875 LINE"
);
},
{
closed = 1;
nodes = (
"250 625 LINE",
"125 625 LINE",
"125 750 LINE",
"250 750 LINE"
);
},
{
closed = 1;
nodes = (
"375 625 LINE",
"250 625 LINE",
"250 750 LINE",
"375 750 LINE"
);
},
{
closed = 1;
nodes = (
"875 625 LINE",
"750 625 LINE",
"750 750 LINE",
"875 750 LINE"
);
},
{
closed = 1;
nodes = (
"1000 625 LINE",
"875 625 LINE",
"875 750 LINE",
"1000 750 LINE"
);
},
{
closed = 1;
nodes = (
"250 500 LINE",
"125 500 LINE",
"125 625 LINE",
"250 625 LINE"
);
},
{
closed = 1;
nodes = (
"375 500 LINE",
"250 500 LINE",
"250 625 LINE",
"375 625 LINE"
);
},
{
closed = 1;
nodes = (
"875 500 LINE",
"750 500 LINE",
"750 625 LINE",
"875 625 LINE"
);
},
{
closed = 1;
nodes = (
"1000 500 LINE",
"875 500 LINE",
"875 625 LINE",
"1000 625 LINE"
);
},
{
closed = 1;
nodes = (
"250 375 LINE",
"125 375 LINE",
"125 500 LINE",
"250 500 LINE"
);
},
{
closed = 1;
nodes = (
"375 375 LINE",
"250 375 LINE",
"250 500 LINE",
"375 500 LINE"
);
},
{
closed = 1;
nodes = (
"500 375 LINE",
"375 375 LINE",
"375 500 LINE",
"500 500 LINE"
);
},
{
closed = 1;
nodes = (
"625 375 LINE",
"500 375 LINE",
"500 500 LINE",
"625 500 LINE"
);
},
{
closed = 1;
nodes = (
"750 375 LINE",
"625 375 LINE",
"625 500 LINE",
"750 500 LINE"
);
},
{
closed = 1;
nodes = (
"875 375 LINE",
"750 375 LINE",
"750 500 LINE",
"875 500 LINE"
);
},
{
closed = 1;
nodes = (
"1000 375 LINE",
"875 375 LINE",
"875 500 LINE",
"1000 500 LINE"
);
},
{
closed = 1;
nodes = (
"250 250 LINE",
"125 250 LINE",
"125 375 LINE",
"250 375 LINE"
);
},
{
closed = 1;
nodes = (
"375 250 LINE",
"250 250 LINE",
"250 375 LINE",
"375 375 LINE"
);
},
{
closed = 1;
nodes = (
"875 250 LINE",
"750 250 LINE",
"750 375 LINE",
"875 375 LINE"
);
},
{
closed = 1;
nodes = (
"1000 250 LINE",
"875 250 LINE",
"875 375 LINE",
"1000 375 LINE"
);
},
{
closed = 1;
nodes = (
"250 125 LINE",
"125 125 LINE",
"125 250 LINE",
"250 250 LINE"
);
},
{
closed = 1;
nodes = (
"375 125 LINE",
"250 125 LINE",
"250 250 LINE",
"375 250 LINE"
);
},
{
closed = 1;
nodes = (
"875 125 LINE",
"750 125 LINE",
"750 250 LINE",
"875 250 LINE"
);
},
{
closed = 1;
nodes = (
"1000 125 LINE",
"875 125 LINE",
"875 250 LINE",
"1000 250 LINE"
);
},
{
closed = 1;
nodes = (
"250 0 LINE",
"125 0 LINE",
"125 125 LINE",
"250 125 LINE"
);
},
{
closed = 1;
nodes = (
"375 0 LINE",
"250 0 LINE",
"250 125 LINE",
"375 125 LINE"
);
},
{
closed = 1;
nodes = (
"875 0 LINE",
"750 0 LINE",
"750 125 LINE",
"875 125 LINE"
);
},
{
closed = 1;
nodes = (
"1000 0 LINE",
"875 0 LINE",
"875 125 LINE",
"1000 125 LINE"
);
}
);
width = 1125;
},
{
layerId = "2C46A1C2-E2B6-44B8-927E-E05F8288DB30";
paths = (
{
closed = 1;
nodes = (
"806 1894 LINE",
"681 1894 LINE",
"681 2019 LINE",
"806 2019 LINE"
);
},
{
closed = 1;
nodes = (
"914 -422 LINE",
"789 -422 LINE",
"789 -297 LINE",
"914 -297 LINE"
);
},
{
closed = 1;
nodes = (
"2028 1645 LINE",
"1903 1645 LINE",
"1903 1770 LINE",
"2028 1770 LINE"
);
},
{
closed = 1;
nodes = (
"2414 1070 LINE",
"2289 1070 LINE",
"2289 1195 LINE",
"2414 1195 LINE"
);
},
{
closed = 1;
nodes = (
"1534 307 LINE",
"1409 307 LINE",
"1409 432 LINE",
"1534 432 LINE"
);
},
{
closed = 1;
nodes = (
"750 1589 LINE",
"625 1589 LINE",
"625 1714 LINE",
"750 1714 LINE"
);
},
{
closed = 1;
nodes = (
"1049 -148 LINE",
"924 -148 LINE",
"924 -23 LINE",
"1049 -23 LINE"
);
},
{
closed = 1;
nodes = (
"2423 1911 LINE",
"2298 1911 LINE",
"2298 2036 LINE",
"2423 2036 LINE"
);
},
{
closed = 1;
nodes = (
"-1106 1805 LINE",
"-1231 1805 LINE",
"-1231 1930 LINE",
"-1106 1930 LINE"
);
},
{
closed = 1;
nodes = (
"1013 1104 LINE",
"888 1104 LINE",
"888 1229 LINE",
"1013 1229 LINE"
);
},
{
closed = 1;
nodes = (
"145 -338 LINE",
"20 -338 LINE",
"20 -213 LINE",
"145 -213 LINE"
);
},
{
closed = 1;
nodes = (
"1603 -617 LINE",
"1478 -617 LINE",
"1478 -492 LINE",
"1603 -492 LINE"
);
},
{
closed = 1;
nodes = (
"-187 1427 LINE",
"-312 1427 LINE",
"-312 1552 LINE",
"-187 1552 LINE"
);
},
{
closed = 1;
nodes = (
"988 671 LINE",
"863 671 LINE",
"863 796 LINE",
"988 796 LINE"
);
},
{
closed = 1;
nodes = (
"-356 -238 LINE",
"-481 -238 LINE",
"-481 -113 LINE",
"-356 -113 LINE"
);
},
{
closed = 1;
nodes = (
"-769 -311 LINE",
"-894 -311 LINE",
"-894 -186 LINE",
"-769 -186 LINE"
);
},
{
closed = 1;
nodes = (
"1564 1580 LINE",
"1439 1580 LINE",
"1439 1705 LINE",
"1564 1705 LINE"
);
},
{
closed = 1;
nodes = (
"426 -535 LINE",
"301 -535 LINE",
"301 -410 LINE",
"426 -410 LINE"
);
},
{
closed = 1;
nodes = (
"170 -406 LINE",
"45 -406 LINE",
"45 -281 LINE",
"170 -281 LINE"
);
},
{
closed = 1;
nodes = (
"668 -1058 LINE",
"543 -1058 LINE",
"543 -933 LINE",
"668 -933 LINE"
);
},
{
closed = 1;
nodes = (
"1549 1099 LINE",
"1424 1099 LINE",
"1424 1224 LINE",
"1549 1224 LINE"
);
},
{
closed = 1;
nodes = (
"1393 -32 LINE",
"1268 -32 LINE",
"1268 93 LINE",
"1393 93 LINE"
);
},
{
closed = 1;
nodes = (
"1544 -1211 LINE",
"1419 -1211 LINE",
"1419 -1086 LINE",
"1544 -1086 LINE"
);
},
{
closed = 1;
nodes = (
"-994 403 LINE",
"-1119 403 LINE",
"-1119 528 LINE",
"-994 528 LINE"
);
},
{
closed = 1;
nodes = (
"-277 878 LINE",
"-402 878 LINE",
"-402 1003 LINE",
"-277 1003 LINE"
);
},
{
closed = 1;
nodes = (
"1909 1224 LINE",
"1784 1224 LINE",
"1784 1349 LINE",
"1909 1349 LINE"
);
},
{
closed = 1;
nodes = (
"-400 301 LINE",
"-525 301 LINE",
"-525 426 LINE",
"-400 426 LINE"
);
},
{
closed = 1;
nodes = (
"699 -1371 LINE",
"574 -1371 LINE",
"574 -1246 LINE",
"699 -1246 LINE"
);
},
{
closed = 1;
nodes = (
"1452 -1266 LINE",
"1327 -1266 LINE",
"1327 -1141 LINE",
"1452 -1141 LINE"
);
},
{
closed = 1;
nodes = (
"1590 -306 LINE",
"1465 -306 LINE",
"1465 -181 LINE",
"1590 -181 LINE"
);
},
{
closed = 1;
nodes = (
"2101 1101 LINE",
"1976 1101 LINE",
"1976 1226 LINE",
"2101 1226 LINE"
);
}
);
width = 1125;
}
);
note = H;
unicode = 0048;
},
{
glyphname = I;
lastChange = "2021-07-12 13:17:18 +0000";
layers = (
{
layerId = "AC43567E-C337-40C0-B780-8BB3F06D1FA4";
paths = (
{
closed = 1;
nodes = (
"500 750 LINE",
"375 750 LINE",
"375 875 LINE",
"500 875 LINE"
);
},
{
closed = 1;
nodes = (
"625 750 LINE",
"500 750 LINE",
"500 875 LINE",
"625 875 LINE"
);
},
{
closed = 1;
nodes = (
"750 750 LINE",
"625 750 LINE",
"625 875 LINE",
"750 875 LINE"
);
},
{
closed = 1;
nodes = (
"875 750 LINE",
"750 750 LINE",
"750 875 LINE",
"875 875 LINE"
);
},
{
closed = 1;
nodes = (
"625 625 LINE",
"500 625 LINE",
"500 750 LINE",
"625 750 LINE"
);
},
{
closed = 1;
nodes = (
"750 625 LINE",
"625 625 LINE",
"625 750 LINE",
"750 750 LINE"
);
},
{
closed = 1;
nodes = (
"625 500 LINE",
"500 500 LINE",
"500 625 LINE",
"625 625 LINE"
);
},
{
closed = 1;
nodes = (
"750 500 LINE",
"625 500 LINE",
"625 625 LINE",
"750 625 LINE"
);
},
{
closed = 1;
nodes = (
"625 375 LINE",
"500 375 LINE",
"500 500 LINE",
"625 500 LINE"
);
},
{
closed = 1;
nodes = (
"750 375 LINE",
"625 375 LINE",
"625 500 LINE",
"750 500 LINE"
);
},
{
closed = 1;
nodes = (
"625 250 LINE",
"500 250 LINE",
"500 375 LINE",
"625 375 LINE"
);
},
{
closed = 1;
nodes = (
"750 250 LINE",
"625 250 LINE",
"625 375 LINE",
"750 375 LINE"
);
},
{
closed = 1;
nodes = (
"625 125 LINE",
"500 125 LINE",
"500 250 LINE",
"625 250 LINE"
);
},
{
closed = 1;
nodes = (
"750 125 LINE",
"625 125 LINE",
"625 250 LINE",
"750 250 LINE"
);
},
{
closed = 1;
nodes = (
"500 0 LINE",
"375 0 LINE",
"375 125 LINE",
"500 125 LINE"
);
},
{
closed = 1;
nodes = (
"625 0 LINE",
"500 0 LINE",
"500 125 LINE",
"625 125 LINE"
);
},
{
closed = 1;
nodes = (
"750 0 LINE",
"625 0 LINE",
"625 125 LINE",
"750 125 LINE"
);
},
{
closed = 1;
nodes = (
"875 0 LINE",
"750 0 LINE",
"750 125 LINE",
"875 125 LINE"
);
}
);
width = 1000;
},
{
layerId = "2C46A1C2-E2B6-44B8-927E-E05F8288DB30";
paths = (
{
closed = 1;
nodes = (
"-35 -50 LINE",
"-160 -50 LINE",
"-160 75 LINE",
"-35 75 LINE"
);
},
{
closed = 1;
nodes = (
"1679 402 LINE",
"1554 402 LINE",
"1554 527 LINE",
"1679 527 LINE"
);
},
{
closed = 1;
nodes = (
"-452 -338 LINE",
"-577 -338 LINE",
"-577 -213 LINE",
"-452 -213 LINE"
);
},
{
closed = 1;
nodes = (
"101 1540 LINE",
"-24 1540 LINE",
"-24 1665 LINE",
"101 1665 LINE"
);
},
{
closed = 1;
nodes = (
"-49 1622 LINE",
"-174 1622 LINE",
"-174 1747 LINE",
"-49 1747 LINE"
);
},
{
closed = 1;
nodes = (
"-148 752 LINE",
"-273 752 LINE",
"-273 877 LINE",
"-148 877 LINE"
);
},
{
closed = 1;
nodes = (
"1796 -125 LINE",
"1671 -125 LINE",
"1671 0 LINE",
"1796 0 LINE"
);
},
{
closed = 1;
nodes = (
"444 -400 LINE",
"319 -400 LINE",
"319 -275 LINE",
"444 -275 LINE"
);
},
{
closed = 1;
nodes = (
"1433 165 LINE",
"1308 165 LINE",
"1308 290 LINE",
"1433 290 LINE"
);
},
{
closed = 1;
nodes = (
"1105 914 LINE",
"980 914 LINE",
"980 1039 LINE",
"1105 1039 LINE"
);
},
{
closed = 1;
nodes = (
"1339 -1006 LINE",
"1214 -1006 LINE",
"1214 -881 LINE",
"1339 -881 LINE"
);
},
{
closed = 1;
nodes = (
"123 1291 LINE",
"-2 1291 LINE",
"-2 1416 LINE",
"123 1416 LINE"
);
},
{
closed = 1;
nodes = (
"1790 1589 LINE",
"1665 1589 LINE",
"1665 1714 LINE",
"1790 1714 LINE"
);
},
{
closed = 1;
nodes = (
"121 -233 LINE",
"-4 -233 LINE",
"-4 -108 LINE",
"121 -108 LINE"
);
},
{
closed = 1;
nodes = (
"664 -972 LINE",
"539 -972 LINE",
"539 -847 LINE",
"664 -847 LINE"
);
},
{
closed = 1;
nodes = (
"376 237 LINE",
"251 237 LINE",
"251 362 LINE",
"376 362 LINE"
);
},
{
closed = 1;
nodes = (
"-292 1181 LINE",
"-417 1181 LINE",
"-417 1306 LINE",
"-292 1306 LINE"
);
},
{
closed = 1;
nodes = (
"-231 -715 LINE",
"-356 -715 LINE",
"-356 -590 LINE",
"-231 -590 LINE"
);
}
);
width = 1000;
}
);
note = I;
unicode = 0049;
},
{
glyphname = J;
lastChange = "2021-07-12 13:17:18 +0000";
layers = (
{
layerId = "AC43567E-C337-40C0-B780-8BB3F06D1FA4";
paths = (
{
closed = 1;
nodes = (
"625 750 LINE",
"500 750 LINE",
"500 875 LINE",
"625 875 LINE"
);
},
{
closed = 1;
nodes = (
"750 750 LINE",
"625 750 LINE",
"625 875 LINE",
"750 875 LINE"
);
},
{
closed = 1;
nodes = (
"875 750 LINE",
"750 750 LINE",
"750 875 LINE",
"875 875 LINE"
);
},
{
closed = 1;
nodes = (
"1000 750 LINE",
"875 750 LINE",
"875 875 LINE",
"1000 875 LINE"
);
},
{
closed = 1;
nodes = (
"750 625 LINE",
"625 625 LINE",
"625 750 LINE",
"750 750 LINE"
);
},
{
closed = 1;
nodes = (
"875 625 LINE",
"750 625 LINE",
"750 750 LINE",
"875 750 LINE"
);
},
{
closed = 1;
nodes = (
"750 500 LINE",
"625 500 LINE",
"625 625 LINE",
"750 625 LINE"
);
},
{
closed = 1;
nodes = (
"875 500 LINE",
"750 500 LINE",
"750 625 LINE",
"875 625 LINE"
);
},
{
closed = 1;
nodes = (
"750 375 LINE",
"625 375 LINE",
"625 500 LINE",
"750 500 LINE"
);
},
{
closed = 1;
nodes = (
"875 375 LINE",
"750 375 LINE",
"750 500 LINE",
"875 500 LINE"
);
},
{
closed = 1;
nodes = (
"250 250 LINE",
"125 250 LINE",
"125 375 LINE",
"250 375 LINE"
);
},
{
closed = 1;
nodes = (
"375 250 LINE",
"250 250 LINE",
"250 375 LINE",
"375 375 LINE"
);
},
{
closed = 1;
nodes = (
"750 250 LINE",
"625 250 LINE",
"625 375 LINE",
"750 375 LINE"
);
},
{
closed = 1;
nodes = (
"875 250 LINE",
"750 250 LINE",
"750 375 LINE",
"875 375 LINE"
);
},
{
closed = 1;
nodes = (
"250 125 LINE",
"125 125 LINE",
"125 250 LINE",
"250 250 LINE"
);
},
{
closed = 1;
nodes = (
"375 125 LINE",
"250 125 LINE",
"250 250 LINE",
"375 250 LINE"
);
},
{
closed = 1;
nodes = (
"750 125 LINE",
"625 125 LINE",
"625 250 LINE",
"750 250 LINE"
);
},
{
closed = 1;
nodes = (
"875 125 LINE",
"750 125 LINE",
"750 250 LINE",
"875 250 LINE"
);
},
{
closed = 1;
nodes = (
"375 0 LINE",
"250 0 LINE",
"250 125 LINE",
"375 125 LINE"
);
},
{
closed = 1;
nodes = (
"500 0 LINE",
"375 0 LINE",
"375 125 LINE",
"500 125 LINE"
);
},
{
closed = 1;
nodes = (
"625 0 LINE",
"500 0 LINE",
"500 125 LINE",
"625 125 LINE"
);
},
{
closed = 1;
nodes = (
"750 0 LINE",
"625 0 LINE",
"625 125 LINE",
"750 125 LINE"
);
}
);
width = 1125;
},
{
layerId = "2C46A1C2-E2B6-44B8-927E-E05F8288DB30";
paths = (
{
closed = 1;
nodes = (
"1605 1837 LINE",
"1480 1837 LINE",
"1480 1962 LINE",
"1605 1962 LINE"
);
},
{
closed = 1;
nodes = (
"519 198 LINE",
"394 198 LINE",
"394 323 LINE",
"519 323 LINE"
);
},
{
closed = 1;
nodes = (
"2284 -491 LINE",
"2159 -491 LINE",
"2159 -366 LINE",
"2284 -366 LINE"
);
},
{
closed = 1;
nodes = (
"1659 410 LINE",
"1534 410 LINE",
"1534 535 LINE",
"1659 535 LINE"
);
},
{
closed = 1;
nodes = (
"-310 1944 LINE",
"-435 1944 LINE",
"-435 2069 LINE",
"-310 2069 LINE"
);
},
{
closed = 1;
nodes = (
"1199 1382 LINE",
"1074 1382 LINE",
"1074 1507 LINE",
"1199 1507 LINE"
);
},
{
closed = 1;
nodes = (
"97 14 LINE",
"-28 14 LINE",
"-28 139 LINE",
"97 139 LINE"
);
},
{
closed = 1;
nodes = (
"340 987 LINE",
"215 987 LINE",
"215 1112 LINE",
"340 1112 LINE"
);
},
{
closed = 1;
nodes = (
"553 -240 LINE",
"428 -240 LINE",
"428 -115 LINE",
"553 -115 LINE"
);
},
{
closed = 1;
nodes = (
"-75 -1101 LINE",
"-200 -1101 LINE",
"-200 -976 LINE",
"-75 -976 LINE"
);
},
{
closed = 1;
nodes = (
"591 1370 LINE",
"466 1370 LINE",
"466 1495 LINE",
"591 1495 LINE"
);
},
{
closed = 1;
nodes = (
"-160 -1198 LINE",
"-285 -1198 LINE",
"-285 -1073 LINE",
"-160 -1073 LINE"
);
},
{
closed = 1;
nodes = (
"1054 505 LINE",
"929 505 LINE",
"929 630 LINE",
"1054 630 LINE"
);
},
{
closed = 1;
nodes = (
"1636 1141 LINE",
"1511 1141 LINE",
"1511 1266 LINE",
"1636 1266 LINE"
);
},
{
closed = 1;
nodes = (
"-654 -1169 LINE",
"-779 -1169 LINE",
"-779 -1044 LINE",
"-654 -1044 LINE"
);
},
{
closed = 1;
nodes = (
"1239 492 LINE",
"1114 492 LINE",
"1114 617 LINE",
"1239 617 LINE"
);
},
{
closed = 1;
nodes = (
"456 856 LINE",
"331 856 LINE",
"331 981 LINE",
"456 981 LINE"
);
},
{
closed = 1;
nodes = (
"-20 -1183 LINE",
"-145 -1183 LINE",
"-145 -1058 LINE",
"-20 -1058 LINE"
);
},
{
closed = 1;
nodes = (
"1492 -1115 LINE",
"1367 -1115 LINE",
"1367 -990 LINE",
"1492 -990 LINE"
);
},
{
closed = 1;
nodes = (
"-664 799 LINE",
"-789 799 LINE",
"-789 924 LINE",
"-664 924 LINE"
);
},
{
closed = 1;
nodes = (
"1006 930 LINE",
"881 930 LINE",
"881 1055 LINE",
"1006 1055 LINE"
);
},
{
closed = 1;
nodes = (
"523 -1324 LINE",
"398 -1324 LINE",
"398 -1199 LINE",
"523 -1199 LINE"
);
}
);
width = 1125;
}
);
note = J;
unicode = 004A;
},
{
glyphname = K;
lastChange = "2021-07-12 13:17:18 +0000";
layers = (
{
layerId = "AC43567E-C337-40C0-B780-8BB3F06D1FA4";
paths = (
{
closed = 1;
nodes = (
"250 750 LINE",
"125 750 LINE",
"125 875 LINE",
"250 875 LINE"
);
},
{
closed = 1;
nodes = (
"375 750 LINE",
"250 750 LINE",
"250 875 LINE",
"375 875 LINE"
);
},
{
closed = 1;
nodes = (
"500 750 LINE",
"375 750 LINE",
"375 875 LINE",
"500 875 LINE"
);
},
{
closed = 1;
nodes = (
"875 750 LINE",
"750 750 LINE",
"750 875 LINE",
"875 875 LINE"
);
},
{
closed = 1;
nodes = (
"1000 750 LINE",
"875 750 LINE",
"875 875 LINE",
"1000 875 LINE"
);
},
{
closed = 1;
nodes = (
"375 625 LINE",
"250 625 LINE",
"250 750 LINE",
"375 750 LINE"
);
},
{
closed = 1;
nodes = (
"500 625 LINE",
"375 625 LINE",
"375 750 LINE",
"500 750 LINE"
);
},
{
closed = 1;
nodes = (
"875 625 LINE",
"750 625 LINE",
"750 750 LINE",
"875 750 LINE"
);
},
{
closed = 1;
nodes = (
"1000 625 LINE",
"875 625 LINE",
"875 750 LINE",
"1000 750 LINE"
);
},
{
closed = 1;
nodes = (
"375 500 LINE",
"250 500 LINE",
"250 625 LINE",
"375 625 LINE"
);
},
{
closed = 1;
nodes = (
"500 500 LINE",
"375 500 LINE",
"375 625 LINE",
"500 625 LINE"
);
},
{
closed = 1;
nodes = (
"750 500 LINE",
"625 500 LINE",
"625 625 LINE",
"750 625 LINE"
);
},
{
closed = 1;
nodes = (
"875 500 LINE",
"750 500 LINE",
"750 625 LINE",
"875 625 LINE"
);
},
{
closed = 1;
nodes = (
"375 375 LINE",
"250 375 LINE",
"250 500 LINE",
"375 500 LINE"
);
},
{
closed = 1;
nodes = (
"500 375 LINE",
"375 375 LINE",
"375 500 LINE",
"500 500 LINE"
);
},
{
closed = 1;
nodes = (
"625 375 LINE",
"500 375 LINE",
"500 500 LINE",
"625 500 LINE"
);
},
{
closed = 1;
nodes = (
"750 375 LINE",
"625 375 LINE",
"625 500 LINE",
"750 500 LINE"
);
},
{
closed = 1;
nodes = (
"375 250 LINE",
"250 250 LINE",
"250 375 LINE",
"375 375 LINE"
);
},
{
closed = 1;
nodes = (
"500 250 LINE",
"375 250 LINE",
"375 375 LINE",
"500 375 LINE"
);
},
{
closed = 1;
nodes = (
"750 250 LINE",
"625 250 LINE",
"625 375 LINE",
"750 375 LINE"
);
},
{
closed = 1;
nodes = (
"875 250 LINE",
"750 250 LINE",
"750 375 LINE",
"875 375 LINE"
);
},
{
closed = 1;
nodes = (
"375 125 LINE",
"250 125 LINE",
"250 250 LINE",
"375 250 LINE"
);
},
{
closed = 1;
nodes = (
"500 125 LINE",
"375 125 LINE",
"375 250 LINE",
"500 250 LINE"
);
},
{
closed = 1;
nodes = (
"875 125 LINE",
"750 125 LINE",
"750 250 LINE",
"875 250 LINE"
);
},
{
closed = 1;
nodes = (
"1000 125 LINE",
"875 125 LINE",
"875 250 LINE",
"1000 250 LINE"
);
},
{
closed = 1;
nodes = (
"250 0 LINE",
"125 0 LINE",
"125 125 LINE",
"250 125 LINE"
);
},
{
closed = 1;
nodes = (
"375 0 LINE",
"250 0 LINE",
"250 125 LINE",
"375 125 LINE"
);
},
{
closed = 1;
nodes = (
"500 0 LINE",
"375 0 LINE",
"375 125 LINE",
"500 125 LINE"
);
},
{
closed = 1;
nodes = (
"875 0 LINE",
"750 0 LINE",
"750 125 LINE",
"875 125 LINE"
);
},
{
closed = 1;
nodes = (
"1000 0 LINE",
"875 0 LINE",
"875 125 LINE",
"1000 125 LINE"
);
}
);
width = 1125;
},
{
layerId = "2C46A1C2-E2B6-44B8-927E-E05F8288DB30";
paths = (
{
closed = 1;
nodes = (
"458 -86 LINE",
"333 -86 LINE",
"333 39 LINE",
"458 39 LINE"
);
},
{
closed = 1;
nodes = (
"992 1450 LINE",
"867 1450 LINE",
"867 1575 LINE",
"992 1575 LINE"
);
},
{
closed = 1;
nodes = (
"795 1663 LINE",
"670 1663 LINE",
"670 1788 LINE",
"795 1788 LINE"
);
},
{
closed = 1;
nodes = (
"1718 1881 LINE",
"1593 1881 LINE",
"1593 2006 LINE",
"1718 2006 LINE"
);
},
{
closed = 1;
nodes = (
"1923 1783 LINE",
"1798 1783 LINE",
"1798 1908 LINE",
"1923 1908 LINE"
);
},
{
closed = 1;
nodes = (
"-161 -329 LINE",
"-286 -329 LINE",
"-286 -204 LINE",
"-161 -204 LINE"
);
},
{
closed = 1;
nodes = (
"1023 11 LINE",
"898 11 LINE",
"898 136 LINE",
"1023 136 LINE"
);
},
{
closed = 1;
nodes = (
"1421 1955 LINE",
"1296 1955 LINE",
"1296 2080 LINE",
"1421 2080 LINE"
);
},
{
closed = 1;
nodes = (
"600 185 LINE",
"475 185 LINE",
"475 310 LINE",
"600 310 LINE"
);
},
{
closed = 1;
nodes = (
"1235 253 LINE",
"1110 253 LINE",
"1110 378 LINE",
"1235 378 LINE"
);
},
{
closed = 1;
nodes = (
"-239 1173 LINE",
"-364 1173 LINE",
"-364 1298 LINE",
"-239 1298 LINE"
);
},
{
closed = 1;
nodes = (
"-693 936 LINE",
"-818 936 LINE",
"-818 1061 LINE",
"-693 1061 LINE"
);
},
{
closed = 1;
nodes = (
"2312 1974 LINE",
"2187 1974 LINE",
"2187 2099 LINE",
"2312 2099 LINE"
);
},
{
closed = 1;
nodes = (
"-257 1614 LINE",
"-382 1614 LINE",
"-382 1739 LINE",
"-257 1739 LINE"
);
},
{
closed = 1;
nodes = (
"903 1781 LINE",
"778 1781 LINE",
"778 1906 LINE",
"903 1906 LINE"
);
},
{
closed = 1;
nodes = (
"1658 -1119 LINE",
"1533 -1119 LINE",
"1533 -994 LINE",
"1658 -994 LINE"
);
},
{
closed = 1;
nodes = (
"187 -892 LINE",
"62 -892 LINE",
"62 -767 LINE",
"187 -767 LINE"
);
},
{
closed = 1;
nodes = (
"1459 542 LINE",
"1334 542 LINE",
"1334 667 LINE",
"1459 667 LINE"
);
},
{
closed = 1;
nodes = (
"275 1472 LINE",
"150 1472 LINE",
"150 1597 LINE",
"275 1597 LINE"
);
},
{
closed = 1;
nodes = (
"2183 1576 LINE",
"2058 1576 LINE",
"2058 1701 LINE",
"2183 1701 LINE"
);
},
{
closed = 1;
nodes = (
"2103 -132 LINE",
"1978 -132 LINE",
"1978 -7 LINE",
"2103 -7 LINE"
);
},
{
closed = 1;
nodes = (
"1241 1454 LINE",
"1116 1454 LINE",
"1116 1579 LINE",
"1241 1579 LINE"
);
},
{
closed = 1;
nodes = (
"1208 -858 LINE",
"1083 -858 LINE",
"1083 -733 LINE",
"1208 -733 LINE"
);
},
{
closed = 1;
nodes = (
"2322 -1134 LINE",
"2197 -1134 LINE",
"2197 -1009 LINE",
"2322 -1009 LINE"
);
},
{
closed = 1;
nodes = (
"1235 484 LINE",
"1110 484 LINE",
"1110 609 LINE",
"1235 609 LINE"
);
},
{
closed = 1;
nodes = (
"427 400 LINE",
"302 400 LINE",
"302 525 LINE",
"427 525 LINE"
);
},
{
closed = 1;
nodes = (
"-887 784 LINE",
"-1012 784 LINE",
"-1012 909 LINE",
"-887 909 LINE"
);
},
{
closed = 1;
nodes = (
"1732 1032 LINE",
"1607 1032 LINE",
"1607 1157 LINE",
"1732 1157 LINE"
);
},
{
closed = 1;
nodes = (
"1113 727 LINE",
"988 727 LINE",
"988 852 LINE",
"1113 852 LINE"
);
},
{
closed = 1;
nodes = (
"1321 441 LINE",
"1196 441 LINE",
"1196 566 LINE",
"1321 566 LINE"
);
}
);
width = 1125;
}
);
note = K;
unicode = 004B;
},
{
glyphname = L;
lastChange = "2021-07-12 13:17:18 +0000";
layers = (
{
layerId = "AC43567E-C337-40C0-B780-8BB3F06D1FA4";
paths = (
{
closed = 1;
nodes = (
"250 750 LINE",
"125 750 LINE",
"125 875 LINE",
"250 875 LINE"
);
},
{
closed = 1;
nodes = (
"375 750 LINE",
"250 750 LINE",
"250 875 LINE",
"375 875 LINE"
);
},
{
closed = 1;
nodes = (
"500 750 LINE",
"375 750 LINE",
"375 875 LINE",
"500 875 LINE"
);
},
{
closed = 1;
nodes = (
"625 750 LINE",
"500 750 LINE",
"500 875 LINE",
"625 875 LINE"
);
},
{
closed = 1;
nodes = (
"375 625 LINE",
"250 625 LINE",
"250 750 LINE",
"375 750 LINE"
);
},
{
closed = 1;
nodes = (
"500 625 LINE",
"375 625 LINE",
"375 750 LINE",
"500 750 LINE"
);
},
{
closed = 1;
nodes = (
"375 500 LINE",
"250 500 LINE",
"250 625 LINE",
"375 625 LINE"
);
},
{
closed = 1;
nodes = (
"500 500 LINE",
"375 500 LINE",
"375 625 LINE",
"500 625 LINE"
);
},
{
closed = 1;
nodes = (
"375 375 LINE",
"250 375 LINE",
"250 500 LINE",
"375 500 LINE"
);
},
{
closed = 1;
nodes = (
"500 375 LINE",
"375 375 LINE",
"375 500 LINE",
"500 500 LINE"
);
},
{
closed = 1;
nodes = (
"375 250 LINE",
"250 250 LINE",
"250 375 LINE",
"375 375 LINE"
);
},
{
closed = 1;
nodes = (
"500 250 LINE",
"375 250 LINE",
"375 375 LINE",
"500 375 LINE"
);
},
{
closed = 1;
nodes = (
"1000 250 LINE",
"875 250 LINE",
"875 375 LINE",
"1000 375 LINE"
);
},
{
closed = 1;
nodes = (
"375 125 LINE",
"250 125 LINE",
"250 250 LINE",
"375 250 LINE"
);
},
{
closed = 1;
nodes = (
"500 125 LINE",
"375 125 LINE",
"375 250 LINE",
"500 250 LINE"
);
},
{
closed = 1;
nodes = (
"875 125 LINE",
"750 125 LINE",
"750 250 LINE",
"875 250 LINE"
);
},
{
closed = 1;
nodes = (
"1000 125 LINE",
"875 125 LINE",
"875 250 LINE",
"1000 250 LINE"
);
},
{
closed = 1;
nodes = (
"250 0 LINE",
"125 0 LINE",
"125 125 LINE",
"250 125 LINE"
);
},
{
closed = 1;
nodes = (
"375 0 LINE",
"250 0 LINE",
"250 125 LINE",
"375 125 LINE"
);
},
{
closed = 1;
nodes = (
"500 0 LINE",
"375 0 LINE",
"375 125 LINE",
"500 125 LINE"
);
},
{
closed = 1;
nodes = (
"625 0 LINE",
"500 0 LINE",
"500 125 LINE",
"625 125 LINE"
);
},
{
closed = 1;
nodes = (
"750 0 LINE",
"625 0 LINE",
"625 125 LINE",
"750 125 LINE"
);
},
{
closed = 1;
nodes = (
"875 0 LINE",
"750 0 LINE",
"750 125 LINE",
"875 125 LINE"
);
},
{
closed = 1;
nodes = (
"1000 0 LINE",
"875 0 LINE",
"875 125 LINE",
"1000 125 LINE"
);
}
);
width = 1125;
},
{
layerId = "2C46A1C2-E2B6-44B8-927E-E05F8288DB30";
paths = (
{
closed = 1;
nodes = (
"-841 1855 LINE",
"-966 1855 LINE",
"-966 1980 LINE",
"-841 1980 LINE"
);
},
{
closed = 1;
nodes = (
"874 -50 LINE",
"749 -50 LINE",
"749 75 LINE",
"874 75 LINE"
);
},
{
closed = 1;
nodes = (
"227 -561 LINE",
"102 -561 LINE",
"102 -436 LINE",
"227 -436 LINE"
);
},
{
closed = 1;
nodes = (
"1219 944 LINE",
"1094 944 LINE",
"1094 1069 LINE",
"1219 1069 LINE"
);
},
{
closed = 1;
nodes = (
"-383 171 LINE",
"-508 171 LINE",
"-508 296 LINE",
"-383 296 LINE"
);
},
{
closed = 1;
nodes = (
"-243 -496 LINE",
"-368 -496 LINE",
"-368 -371 LINE",
"-243 -371 LINE"
);
},
{
closed = 1;
nodes = (
"1492 1821 LINE",
"1367 1821 LINE",
"1367 1946 LINE",
"1492 1946 LINE"
);
},
{
closed = 1;
nodes = (
"-772 -12 LINE",
"-897 -12 LINE",
"-897 113 LINE",
"-772 113 LINE"
);
},
{
closed = 1;
nodes = (
"-742 534 LINE",
"-867 534 LINE",
"-867 659 LINE",
"-742 659 LINE"
);
},
{
closed = 1;
nodes = (
"-308 -434 LINE",
"-433 -434 LINE",
"-433 -309 LINE",
"-308 -309 LINE"
);
},
{
closed = 1;
nodes = (
"-184 1036 LINE",
"-309 1036 LINE",
"-309 1161 LINE",
"-184 1161 LINE"
);
},
{
closed = 1;
nodes = (
"-721 501 LINE",
"-846 501 LINE",
"-846 626 LINE",
"-721 626 LINE"
);
},
{
closed = 1;
nodes = (
"1195 -985 LINE",
"1070 -985 LINE",
"1070 -860 LINE",
"1195 -860 LINE"
);
},
{
closed = 1;
nodes = (
"766 1028 LINE",
"641 1028 LINE",
"641 1153 LINE",
"766 1153 LINE"
);
},
{
closed = 1;
nodes = (
"-880 1514 LINE",
"-1005 1514 LINE",
"-1005 1639 LINE",
"-880 1639 LINE"
);
},
{
closed = 1;
nodes = (
"412 -96 LINE",
"287 -96 LINE",
"287 29 LINE",
"412 29 LINE"
);
},
{
closed = 1;
nodes = (
"2317 -810 LINE",
"2192 -810 LINE",
"2192 -685 LINE",
"2317 -685 LINE"
);
},
{
closed = 1;
nodes = (
"1389 488 LINE",
"1264 488 LINE",
"1264 613 LINE",
"1389 613 LINE"
);
},
{
closed = 1;
nodes = (
"-11 687 LINE",
"-136 687 LINE",
"-136 812 LINE",
"-11 812 LINE"
);
},
{
closed = 1;
nodes = (
"1882 496 LINE",
"1757 496 LINE",
"1757 621 LINE",
"1882 621 LINE"
);
},
{
closed = 1;
nodes = (
"369 -611 LINE",
"244 -611 LINE",
"244 -486 LINE",
"369 -486 LINE"
);
},
{
closed = 1;
nodes = (
"436 -958 LINE",
"311 -958 LINE",
"311 -833 LINE",
"436 -833 LINE"
);
},
{
closed = 1;
nodes = (
"572 548 LINE",
"447 548 LINE",
"447 673 LINE",
"572 673 LINE"
);
},
{
closed = 1;
nodes = (
"-269 1434 LINE",
"-394 1434 LINE",
"-394 1559 LINE",
"-269 1559 LINE"
);
}
);
width = 1125;
}
);
note = L;
unicode = 004C;
},
{
glyphname = M;
lastChange = "2021-07-12 13:17:18 +0000";
layers = (
{
layerId = "AC43567E-C337-40C0-B780-8BB3F06D1FA4";
paths = (
{
closed = 1;
nodes = (
"250 750 LINE",
"125 750 LINE",
"125 875 LINE",
"250 875 LINE"
);
},
{
closed = 1;
nodes = (
"375 750 LINE",
"250 750 LINE",
"250 875 LINE",
"375 875 LINE"
);
},
{
closed = 1;
nodes = (
"875 750 LINE",
"750 750 LINE",
"750 875 LINE",
"875 875 LINE"
);
},
{
closed = 1;
nodes = (
"1000 750 LINE",
"875 750 LINE",
"875 875 LINE",
"1000 875 LINE"
);
},
{
closed = 1;
nodes = (
"250 625 LINE",
"125 625 LINE",
"125 750 LINE",
"250 750 LINE"
);
},
{
closed = 1;
nodes = (
"375 625 LINE",
"250 625 LINE",
"250 750 LINE",
"375 750 LINE"
);
},
{
closed = 1;
nodes = (
"500 625 LINE",
"375 625 LINE",
"375 750 LINE",
"500 750 LINE"
);
},
{
closed = 1;
nodes = (
"750 625 LINE",
"625 625 LINE",
"625 750 LINE",
"750 750 LINE"
);
},
{
closed = 1;
nodes = (
"875 625 LINE",
"750 625 LINE",
"750 750 LINE",
"875 750 LINE"
);
},
{
closed = 1;
nodes = (
"1000 625 LINE",
"875 625 LINE",
"875 750 LINE",
"1000 750 LINE"
);
},
{
closed = 1;
nodes = (
"250 500 LINE",
"125 500 LINE",
"125 625 LINE",
"250 625 LINE"
);
},
{
closed = 1;
nodes = (
"375 500 LINE",
"250 500 LINE",
"250 625 LINE",
"375 625 LINE"
);
},
{
closed = 1;
nodes = (
"500 500 LINE",
"375 500 LINE",
"375 625 LINE",
"500 625 LINE"
);
},
{
closed = 1;
nodes = (
"625 500 LINE",
"500 500 LINE",
"500 625 LINE",
"625 625 LINE"
);
},
{
closed = 1;
nodes = (
"750 500 LINE",
"625 500 LINE",
"625 625 LINE",
"750 625 LINE"
);
},
{
closed = 1;
nodes = (
"875 500 LINE",
"750 500 LINE",
"750 625 LINE",
"875 625 LINE"
);
},
{
closed = 1;
nodes = (
"1000 500 LINE",
"875 500 LINE",
"875 625 LINE",
"1000 625 LINE"
);
},
{
closed = 1;
nodes = (
"250 375 LINE",
"125 375 LINE",
"125 500 LINE",
"250 500 LINE"
);
},
{
closed = 1;
nodes = (
"375 375 LINE",
"250 375 LINE",
"250 500 LINE",
"375 500 LINE"
);
},
{
closed = 1;
nodes = (
"500 375 LINE",
"375 375 LINE",
"375 500 LINE",
"500 500 LINE"
);
},
{
closed = 1;
nodes = (
"625 375 LINE",
"500 375 LINE",
"500 500 LINE",
"625 500 LINE"
);
},
{
closed = 1;
nodes = (
"750 375 LINE",
"625 375 LINE",
"625 500 LINE",
"750 500 LINE"
);
},
{
closed = 1;
nodes = (
"875 375 LINE",
"750 375 LINE",
"750 500 LINE",
"875 500 LINE"
);
},
{
closed = 1;
nodes = (
"1000 375 LINE",
"875 375 LINE",
"875 500 LINE",
"1000 500 LINE"
);
},
{
closed = 1;
nodes = (
"250 250 LINE",
"125 250 LINE",
"125 375 LINE",
"250 375 LINE"
);
},
{
closed = 1;
nodes = (
"375 250 LINE",
"250 250 LINE",
"250 375 LINE",
"375 375 LINE"
);
},
{
closed = 1;
nodes = (
"625 250 LINE",
"500 250 LINE",
"500 375 LINE",
"625 375 LINE"
);
},
{
closed = 1;
nodes = (
"875 250 LINE",
"750 250 LINE",
"750 375 LINE",
"875 375 LINE"
);
},
{
closed = 1;
nodes = (
"1000 250 LINE",
"875 250 LINE",
"875 375 LINE",
"1000 375 LINE"
);
},
{
closed = 1;
nodes = (
"250 125 LINE",
"125 125 LINE",
"125 250 LINE",
"250 250 LINE"
);
},
{
closed = 1;
nodes = (
"375 125 LINE",
"250 125 LINE",
"250 250 LINE",
"375 250 LINE"
);
},
{
closed = 1;
nodes = (
"875 125 LINE",
"750 125 LINE",
"750 250 LINE",
"875 250 LINE"
);
},
{
closed = 1;
nodes = (
"1000 125 LINE",
"875 125 LINE",
"875 250 LINE",
"1000 250 LINE"
);
},
{
closed = 1;
nodes = (
"250 0 LINE",
"125 0 LINE",
"125 125 LINE",
"250 125 LINE"
);
},
{
closed = 1;
nodes = (
"375 0 LINE",
"250 0 LINE",
"250 125 LINE",
"375 125 LINE"
);
},
{
closed = 1;
nodes = (
"875 0 LINE",
"750 0 LINE",
"750 125 LINE",
"875 125 LINE"
);
},
{
closed = 1;
nodes = (
"1000 0 LINE",
"875 0 LINE",
"875 125 LINE",
"1000 125 LINE"
);
}
);
width = 1125;
},
{
layerId = "2C46A1C2-E2B6-44B8-927E-E05F8288DB30";
paths = (
{
closed = 1;
nodes = (
"1446 379 LINE",
"1321 379 LINE",
"1321 504 LINE",
"1446 504 LINE"
);
},
{
closed = 1;
nodes = (
"-615 -175 LINE",
"-740 -175 LINE",
"-740 -50 LINE",
"-615 -50 LINE"
);
},
{
closed = 1;
nodes = (
"1966 481 LINE",
"1841 481 LINE",
"1841 606 LINE",
"1966 606 LINE"
);
},
{
closed = 1;
nodes = (
"1854 -266 LINE",
"1729 -266 LINE",
"1729 -141 LINE",
"1854 -141 LINE"
);
},
{
closed = 1;
nodes = (
"870 279 LINE",
"745 279 LINE",
"745 404 LINE",
"870 404 LINE"
);
},
{
closed = 1;
nodes = (
"1490 -43 LINE",
"1365 -43 LINE",
"1365 82 LINE",
"1490 82 LINE"
);
},
{
closed = 1;
nodes = (
"-61 -482 LINE",
"-186 -482 LINE",
"-186 -357 LINE",
"-61 -357 LINE"
);
},
{
closed = 1;
nodes = (
"973 323 LINE",
"848 323 LINE",
"848 448 LINE",
"973 448 LINE"
);
},
{
closed = 1;
nodes = (
"1826 1334 LINE",
"1701 1334 LINE",
"1701 1459 LINE",
"1826 1459 LINE"
);
},
{
closed = 1;
nodes = (
"2290 934 LINE",
"2165 934 LINE",
"2165 1059 LINE",
"2290 1059 LINE"
);
},
{
closed = 1;
nodes = (
"-350 -371 LINE",
"-475 -371 LINE",
"-475 -246 LINE",
"-350 -246 LINE"
);
},
{
closed = 1;
nodes = (
"-739 1671 LINE",
"-864 1671 LINE",
"-864 1796 LINE",
"-739 1796 LINE"
);
},
{
closed = 1;
nodes = (
"-951 1195 LINE",
"-1076 1195 LINE",
"-1076 1320 LINE",
"-951 1320 LINE"
);
},
{
closed = 1;
nodes = (
"1850 924 LINE",
"1725 924 LINE",
"1725 1049 LINE",
"1850 1049 LINE"
);
},
{
closed = 1;
nodes = (
"1060 1451 LINE",
"935 1451 LINE",
"935 1576 LINE",
"1060 1576 LINE"
);
},
{
closed = 1;
nodes = (
"1368 1004 LINE",
"1243 1004 LINE",
"1243 1129 LINE",
"1368 1129 LINE"
);
},
{
closed = 1;
nodes = (
"117 -899 LINE",
"-8 -899 LINE",
"-8 -774 LINE",
"117 -774 LINE"
);
},
{
closed = 1;
nodes = (
"-585 1416 LINE",
"-710 1416 LINE",
"-710 1541 LINE",
"-585 1541 LINE"
);
},
{
closed = 1;
nodes = (
"-582 573 LINE",
"-707 573 LINE",
"-707 698 LINE",
"-582 698 LINE"
);
},
{
closed = 1;
nodes = (
"1557 1339 LINE",
"1432 1339 LINE",
"1432 1464 LINE",
"1557 1464 LINE"
);
},
{
closed = 1;
nodes = (
"-632 1771 LINE",
"-757 1771 LINE",
"-757 1896 LINE",
"-632 1896 LINE"
);
},
{
closed = 1;
nodes = (
"1799 -286 LINE",
"1674 -286 LINE",
"1674 -161 LINE",
"1799 -161 LINE"
);
},
{
closed = 1;
nodes = (
"2168 -780 LINE",
"2043 -780 LINE",
"2043 -655 LINE",
"2168 -655 LINE"
);
},
{
closed = 1;
nodes = (
"92 67 LINE",
"-33 67 LINE",
"-33 192 LINE",
"92 192 LINE"
);
},
{
closed = 1;
nodes = (
"1513 993 LINE",
"1388 993 LINE",
"1388 1118 LINE",
"1513 1118 LINE"
);
},
{
closed = 1;
nodes = (
"1719 570 LINE",
"1594 570 LINE",
"1594 695 LINE",
"1719 695 LINE"
);
},
{
closed = 1;
nodes = (
"-657 561 LINE",
"-782 561 LINE",
"-782 686 LINE",
"-657 686 LINE"
);
},
{
closed = 1;
nodes = (
"1992 1300 LINE",
"1867 1300 LINE",
"1867 1425 LINE",
"1992 1425 LINE"
);
},
{
closed = 1;
nodes = (
"136 -514 LINE",
"11 -514 LINE",
"11 -389 LINE",
"136 -389 LINE"
);
},
{
closed = 1;
nodes = (
"1653 1318 LINE",
"1528 1318 LINE",
"1528 1443 LINE",
"1653 1443 LINE"
);
},
{
closed = 1;
nodes = (
"1516 -1059 LINE",
"1391 -1059 LINE",
"1391 -934 LINE",
"1516 -934 LINE"
);
},
{
closed = 1;
nodes = (
"1367 -262 LINE",
"1242 -262 LINE",
"1242 -137 LINE",
"1367 -137 LINE"
);
},
{
closed = 1;
nodes = (
"2446 596 LINE",
"2321 596 LINE",
"2321 721 LINE",
"2446 721 LINE"
);
},
{
closed = 1;
nodes = (
"-492 -576 LINE",
"-617 -576 LINE",
"-617 -451 LINE",
"-492 -451 LINE"
);
},
{
closed = 1;
nodes = (
"924 230 LINE",
"799 230 LINE",
"799 355 LINE",
"924 355 LINE"
);
},
{
closed = 1;
nodes = (
"1017 -1368 LINE",
"892 -1368 LINE",
"892 -1243 LINE",
"1017 -1243 LINE"
);
},
{
closed = 1;
nodes = (
"1874 589 LINE",
"1749 589 LINE",
"1749 714 LINE",
"1874 714 LINE"
);
}
);
width = 1125;
}
);
note = M;
unicode = 004D;
},
